<?xml version="1.0" encoding="UTF-8" standalone="no"?>
<svg
   xmlns="http://www.w3.org/2000/svg"
   version="1.1"
   viewBox="0 0 40 40">
  <path
     transform="scale(0.26458333)"
     d="M 63.65625 8.9355469 C 55.706622 8.9355469 48.150823 10.351432 40.988281 13.263672 C 33.825733 16.175912 27.607484 20.112435 22.333984 25.228516 C 16.981764 30.344596 12.811797 36.40442 9.7421875 43.488281 C 6.6724873 50.572091 5.0976562 58.285716 5.0976562 66.628906 C 5.0976562 74.972108 6.5937574 82.7644 9.7421875 89.769531 C 12.890527 96.774651 17.060444 102.83509 22.333984 107.95117 C 27.686214 113.06729 33.904463 117.0819 40.988281 119.99414 C 46.963482 122.45061 53.278616 123.8296 59.925781 124.20508 L 59.925781 134.7832 C 59.925781 137.83404 62.351547 140.25781 65.402344 140.25781 L 66.373047 140.25781 C 66.529519 140.26915 66.687039 140.27734 66.845703 140.27734 L 136.58789 140.27734 L 136.58789 140.33789 L 142.0625 140.33789 C 145.1133 140.33789 147.53906 137.91216 147.53906 134.86133 L 147.53906 80.257812 C 147.83991 78.801901 147.54959 77.237422 146.59961 75.957031 C 146.11934 75.288849 145.52114 74.764885 144.85742 74.382812 C 144.01069 73.868683 143.04907 73.611328 142.0625 73.611328 C 141.84971 73.611328 141.63431 73.629603 141.41797 73.650391 C 141.15189 73.620154 140.88106 73.601563 140.60742 73.601562 L 118.45508 73.601562 C 118.4895 72.70277 118.51758 71.799452 118.51758 70.878906 C 118.51758 69.068588 118.43938 67.338268 118.20312 65.449219 C 117.96698 63.560218 117.73086 62.06403 117.41602 60.804688 L 63.105469 60.804688 L 63.105469 74.408203 C 62.240833 74.786847 61.460562 75.383458 60.865234 76.191406 C 60.170444 77.170342 59.876458 78.315764 59.925781 79.451172 L 59.925781 102.73633 C 56.353323 102.4034 52.931598 101.59841 49.726562 100.31641 C 45.397529 98.584816 41.540173 96.066319 38.234375 92.917969 C 34.928614 89.769845 32.330416 85.992317 30.441406 81.505859 C 28.552406 77.01945 27.607422 72.060422 27.607422 66.550781 C 27.607422 61.041171 28.552406 56.082112 30.441406 51.595703 C 32.330416 47.109253 34.928614 43.251904 38.234375 40.103516 C 41.461483 36.955165 45.239319 34.514793 49.568359 32.783203 C 53.897347 31.051613 58.541945 30.1875 63.421875 30.1875 C 69.482506 30.1875 74.756126 31.131869 78.927734 33.099609 C 83.099316 35.067299 87.033664 37.90028 90.654297 41.599609 L 106.08203 26.644531 C 100.96591 21.134881 94.905518 16.806553 87.900391 13.658203 C 80.895259 10.509813 72.786531 8.9355469 63.65625 8.9355469 z M 71.318359 76.853516 L 135.81055 76.853516 L 103.6543 100.36328 L 71.318359 76.853516 z M 136.58789 89.984375 L 136.58789 137.02539 L 70.876953 137.02539 L 70.876953 90.119141 L 103.6543 113.97461 L 127.76367 96.390625 L 136.58789 89.984375 z "
     style="fill-opacity:1;stroke-width:0.84037876"
     fill="var(--fill, #b3b3b3)"/>
</svg>
