<?xml version="1.0" encoding="UTF-8" standalone="no"?>
<svg
   id="svg20"
   viewBox="0 0 524.7 494.3"
   version="1.1"
   height="494.3mm"
   width="524.7mm"
   xmlns="http://www.w3.org/2000/svg"
   xmlns:svg="http://www.w3.org/2000/svg"
   xmlns:rdf="http://www.w3.org/1999/02/22-rdf-syntax-ns#"
   xmlns:cc="http://creativecommons.org/ns#"
   xmlns:dc="http://purl.org/dc/elements/1.1/">
  <path
     fill="#3d3f94"
     d="m 180.85,493.8866 -130.37,-94.03 -50.21,-152.9 50.14,-152.69 131.2,-94.28 162.1,0.356 130.68,94.18 50.02,152.8 -50.02,152.4 -131.33,94.54 z"
     style="stroke-width:0.2646" />
  <path
     style="fill:#facf14;fill-opacity:1;stroke-width:1.00006"
     d="m 719.96289,105.41016 -440.4668,318.50195 -167.4707,509.85742 169.77539,514.20507 437.70703,315.4766 H 1263.0039 L 1701.9963,1447.2949 1871.0178,934.79102 1702.715,421.9082 1263.8359,105.41016 Z"
     transform="scale(0.26458333)" />
  <path
     fill="#d71b3d"
     d="m 326.8972,262.6744 -10.47,-8.011 -5.801,-2.395 c -3.19,-1.317 -9.611,-3.83 -14.27,-5.584 l -8.467,-3.189 -5.821,0.5604 -16.27,-4.914 c -12.73,-3.845 -19.06,-5.597 -29.1,-8.057 l -12.83,-3.144 -10.05,-0.4757 c -5.53,-0.2616 -10.14,-0.5473 -10.24,-0.6347 -0.1009,-0.0875 0.3275,-1.945 0.952,-4.128 l 1.136,-3.969 2.573,-0.4984 c 2.558,-0.4954 2.572,-0.5026 2.402,-1.191 -0.3701,-1.492 -0.7941,-1.999 -2.067,-2.471 -1.37,-0.5084 -1.377,-0.4698 -0.2007,1.099 l 0.6802,0.9073 -0.6615,-0.207 c -0.3638,-0.1138 -2.15,-0.3057 -3.969,-0.4264 -1.819,-0.1207 -3.959,-0.4024 -4.756,-0.6259 -1.286,-0.3607 -1.516,-0.362 -2.051,-0.0117 -0.5712,0.3742 -0.6023,0.5584 -0.6023,3.564 v 3.169 h -3.704 v -3.704 c 0,-4.133 0.085,-3.982 -1.923,-3.424 -0.7246,0.2012 -1.265,0.635 -1.975,1.586 -0.5375,0.72 -1.081,1.309 -1.209,1.309 -0.1272,0 -0.9764,-0.4167 -1.887,-0.926 -1.833,-1.025 -2.893,-1.148 -4.625,-0.5371 -0.6063,0.2139 -1.031,0.2734 -0.9437,0.1323 0.0872,-0.1411 0.0422,-0.2566 -0.1,-0.2566 -0.1422,0 -0.5245,0.7991 -0.8496,1.776 l -0.5909,1.776 -5.344,-5.625 -2.997,1.044 -9.095,-2.145 -16.22,0.004 -14.18,-2.159 -11.86,-5.035 3.232,-3.873 1.349,0.5086 c 3.796,1.431 19.09,6.788 19.17,6.714 0.0494,-0.0473 -0.0995,-1.001 -0.3307,-2.119 -0.2313,-1.118 -0.4205,-2.186 -0.4205,-2.373 0,-0.1867 0.7133,-0.799 1.585,-1.361 l 1.585,-1.021 0.002,-1.881 c 0.002,-1.746 0.1601,-2.267 2.204,-7.276 l 2.202,-5.395 1.568,-0.1866 c 0.8625,-0.1026 2.342,-0.2581 3.288,-0.3456 l 1.72,-0.159 3.175,-4.748 3.307,0.1522 c 1.819,0.0837 3.747,0.2155 4.284,0.293 1.082,0.1561 0.8921,0.4812 1.823,-3.116 0.2048,-0.7915 0.8748,-1.496 3.697,-3.89 18.46154,-11.35141 12.42195,-8.3125 44.5312,-19.7525 l 2.852,-0.1944 3.121,-2.034 c 2.18,-1.421 3.638,-2.174 4.835,-2.498 l 1.713,-0.4638 7.489,-18.04 c 4.119,-9.923 7.563,-18.12 7.653,-18.23 0.0904,-0.1015 11.05,1.476 24.35,3.506 13.3,2.03 24.39,3.69 24.63,3.69 0.2428,0 2.119,-1.31 4.17,-2.91 l 3.729,-2.91 h 3.25 l 3.168,-2.888 c 2.875,-2.621 3.611,-3.128 7.952,-5.49 l 4.784,-2.602 5.409,-6.678 c 2.975,-3.673 5.507,-6.738 5.627,-6.812 0.2072,-0.128 4.149,4.974 4.698,6.081 0.1444,0.291 0.4638,1.363 0.7096,2.381 0.4462,1.849 0.4518,1.856 3.056,4.162 1.981,1.754 3.101,3.028 4.653,5.292 1.124,1.64 2.117,3.064 2.206,3.166 0.089,0.1016 1.223,-0.0518 2.52,-0.3409 1.297,-0.2891 2.438,-0.4317 2.536,-0.317 0.0978,0.1148 1.474,3.036 3.057,6.492 l 2.88,6.284 h 3.208 l 3.375,3.405 -0.5422,5.507 c -0.537,5.454 -0.5375,5.563 -0.0522,11.2 0.2695,3.129 0.4949,6.016 0.5009,6.416 l 0.0109,0.7276 c 0.55378,5.36592 0.91086,12.67665 2.2012,21.5631 l 3.629,11.24 c 1.996,6.185 4.418,13.14 5.382,15.45 0.9642,2.315 1.753,4.316 1.753,4.447 0,0.131 -0.7131,1.779 -1.585,3.662 -1.469,3.174 -1.866,3.762 -5.438,8.054 -2.119,2.547 -3.959,4.63 -4.089,4.63 -0.1295,0 -1.08,-0.3131 -2.113,-0.6958 -1.032,-0.3827 -1.929,-0.6437 -1.993,-0.58 -0.0637,0.0637 -0.8238,1.614 -1.689,3.445 l -1.573,3.329 -2.071,-0.491 c -1.139,-0.2701 -2.253,-0.4951 -2.475,-0.5001 -0.5558,-0.0124 -2.756,4.429 -2.401,4.846 0.1429,0.1677 1.215,1.019 2.382,1.892 l 2.122,1.588 0.0106,2.467 0.0106,2.467 2.69,3.853 -1.111,2.221 c -0.6111,1.221 -1.156,2.27 -1.211,2.329 -0.055,0.059 -0.8009,-0.1037 -1.658,-0.3632 -0.8571,-0.2595 -1.693,-0.4268 -1.857,-0.3719 -0.1647,0.0549 -1.366,0.9327 -2.671,1.951 l -2.371,1.851 -5.925,14.95 -2.502,2.777 c -1.376,1.527 -2.636,2.768 -2.798,2.757 -0.1628,-0.0109 -5.008,-3.625 -10.77,-8.031 z m -49.5,-29.28 c 0.342,-0.5476 0.0228,-1.096 -2.201,-3.778 -0.5048,-0.6089 -7.407,-3.558 -8.731,-3.73 -2.333,-0.3036 -2.434,-0.3537 -2.859,-1.414 -0.3273,-0.8181 -0.616,-1.081 -1.512,-1.377 -0.9549,-0.3152 -1.138,-0.3129 -1.327,0.0165 -0.1208,0.2101 -0.5237,0.7897 -0.8953,1.288 -0.6557,0.8796 -0.7238,0.9042 -2.322,0.8389 -1.467,-0.0599 -1.914,-0.2268 -4.092,-1.526 -1.345,-0.8026 -2.893,-1.56 -3.44,-1.684 -0.9448,-0.2131 -1.085,-0.1512 -2.802,1.236 l -1.808,1.461 -1.858,-1.542 c -2.933,-2.434 -2.688,-2.332 -3.854,-1.596 -0.5592,0.353 -2.102,0.8966 -3.428,1.208 l -2.411,0.5661 -5.247,-1.852 c -5.706,-2.014 -5.602,-1.998 -11.14,-1.679 -2.787,0.1606 -2.96,0.2036 -3.067,0.7638 -0.1071,0.5604 0.051,0.6259 2.821,1.169 1.614,0.3165 4.679,0.981 6.812,1.477 3.755,0.873 7.613,1.47 12,1.857 1.496,0.132 3.189,0.564 5.778,1.474 2.742,0.9643 4.839,1.486 8.352,2.078 3.856,0.6496 5.371,1.045 8.51,2.223 2.1,0.7878 4.473,1.507 5.274,1.598 0.8004,0.0912 3.23,-0.001 5.398,-0.2057 l 3.943,-0.3716 1.613,1.024 c 1.869,1.186 2.03,1.217 2.491,0.4779 z m -81.22,-15.5594 c 0,-3.383 -0.005,-3.412 -0.6369,-3.571 -0.3503,-0.0879 -0.8265,-0.2326 -1.058,-0.3216 -0.3733,-0.1432 -0.4214,0.2649 -0.4214,3.571 v 3.732 h 2.117 z m 9.784,-3.579 c -0.001,-7.3e-4 0.005,-4.3e-4 0.004,-0.002 z m 157.974,-61.538 c -264.26,-101.718333 -132.13,-50.85917 0,0 z"
     style="stroke-width:0.2646" />
  <path
     d="m 102.995,310.60111 c -0.1863,-0.2245 -0.4061,-0.82301 -0.4884,-1.33001 l -0.1496,-0.9217 3.007,-0.15719 c 1.654,-0.0865 5.924,-0.28331 9.489,-0.43741 12.08,-0.52189 13.92,-0.6999 15.24,-1.47399 1.392,-0.81571 1.525,-1.289 0.2971,-1.05802 -0.713,0.1338 -0.8707,0.0796 -0.8766,-0.30128 -0.004,-0.2554 -0.0957,-0.91771 -0.2038,-1.47201 l -0.1965,-1.007 1.264,0.0813 c 1.258,0.0809 1.266,0.0866 1.486,1.20599 0.1216,0.61849 0.3247,1.12401 0.4512,1.12401 0.2816,0 2.458,-2.83099 3.036,-3.94999 0.5435,-1.05101 0.8244,-1.025 1.199,0.10988 0.1674,0.50731 0.4155,0.99099 0.5512,1.075 0.3092,0.19111 1.86,-0.30128 3.419,-1.085 0.6548,-0.32938 1.686,-0.73049 2.291,-0.89131 0.605,-0.16078 1.684,-0.69429 2.399,-1.18599 0.7142,-0.4913 1.897,-1.197 2.629,-1.56699 0.732,-0.37 2.569,-1.61399 4.084,-2.76199 3.341,-2.53302 4.763,-3.38101 6.574,-3.918 1.016,-0.3016 1.5,-0.61532 1.824,-1.182 0.5256,-0.91932 1.24,-1.22201 3.313,-1.40603 0.9649,-0.0856 1.749,-0.31797 2.079,-0.61669 0.4697,-0.42449 1.064,-0.47939 5.198,-0.47979 h 4.668 l 2.778,-1.10199 c 1.528,-0.60611 3.851,-1.28601 5.163,-1.51 2.49,-0.42612 3.935,-0.98161 4.314,-1.65802 0.1395,-0.24929 0.861,-0.4791 1.921,-0.6119 2.462,-0.3084 9.641,-2.47398 12.89,-3.889 1.539,-0.67019 3.937,-1.607 5.328,-2.08299 1.391,-0.47522 3.244,-1.18901 4.117,-1.58599 2.171,-0.98743 5.972,-2.26401 6.243,-2.096 0.1219,0.0753 0.6722,-0.0893 1.223,-0.36571 0.6158,-0.30919 2.173,-0.63029 4.044,-0.8341 2.207,-0.2404 3.333,-0.49469 4.101,-0.92601 0.7212,-0.40519 1.69,-0.64149 3.043,-0.7419 1.091,-0.081 2.193,-0.22928 2.447,-0.3294 0.3799,-0.14939 0.463,-0.0364 0.463,0.62981 0,0.7352 0.1062,0.83799 1.124,1.089 2.888,0.7126 6.328,1.988 9.022,3.346 1.622,0.81748 2.99,1.59099 3.038,1.72 0.0485,0.12841 0.5256,0.23339 1.06,0.23339 0.6267,0 1.818,0.42601 3.351,1.19902 1.309,0.65939 2.92,1.26798 3.581,1.353 1.224,0.15708 6.451,-0.69451 7.868,-1.28202 0.396,-0.16409 1.018,-0.32559 1.381,-0.3589 0.3638,-0.0333 1.994,-0.31481 3.62399,-0.62558 3.06001,-0.58381 9.96302,-3.13201 13.03002,-4.80801 0.81039,-0.4436 2.71298,-1.28101 4.22799,-1.861 1.515,-0.5801 3.30099,-1.367 3.96901,-1.748 3.14198,-1.79501 2.83398,-1.715 5.978,-1.55001 1.60099,0.0838 3.625,0.35711 4.49799,0.6073 1.88799,0.54142 3.638,0.56491 5.886,0.079 1.583,-0.34229 1.67899,-0.33319 2.262,0.21432 0.3347,0.31438 1.02,0.65008 1.52199,0.74588 0.50231,0.0959 3.47501,1.70501 6.60702,3.57601 3.13198,1.871 5.9,3.40201 6.15199,3.40201 0.25191,0 0.45791,0.10567 0.45791,0.2349 0,0.12919 2.70899,1.45899 6.01898,2.95597 3.31102,1.49601 7.70901,3.53402 9.774,4.528 2.06502,0.99381 4.00402,1.80703 4.308,1.80703 0.30422,0 0.62161,0.17859 0.7053,0.39687 0.0838,0.21831 0.43481,0.39691 0.78012,0.39691 0.79388,0 2.755,0.7738 2.755,1.08701 0,0.1297 0.22058,0.2358 0.4903,0.2358 0.63979,0 6.653,2.83699 6.653,3.13899 0,0.12742 0.3964,0.29591 0.8808,0.37462 0.48448,0.0786 2.71698,0.85789 4.96099,1.73199 2.24401,0.87379 5.15199,1.83801 6.46099,2.14199 1.309,0.304 2.79799,0.71932 3.307,0.92292 3.20302,1.28 7.49001,2.38699 10.39,2.68298 0.9843,0.10041 1.85801,0.29331 1.94202,0.42881 0.0894,0.1447 0.30398,0.1202 0.52048,-0.0595 0.20889,-0.17341 0.8,-0.24789 1.366,-0.17219 0.5484,0.0734 1.51,0.20179 2.136,0.28519 4.112,0.54761 10.27002,1.81999 10.54,2.17699 0.18402,0.2431 0.37031,0.29821 0.46881,0.1388 0.10459,-0.16928 1.69101,-0.2078 4.405,-0.10678 4.128,0.15359 4.245,0.14319 4.38398,-0.38831 0.1501,-0.57409 0.79852,-0.84989 2.012,-0.8559 0.61122,-0.003 0.72761,0.1083 0.72761,0.69591 v 0.69948 l 2.18299,-0.19389 c 1.20103,-0.1066 4.088,-0.29641 6.41602,-0.4218 4.56165,-0.27265 3.66178,-0.43788 10.54571,-0.9839 l 1.73799,-0.16291 c 4.91099,-0.46008 6.295,-0.50008 6.48798,-0.1874 0.14372,0.23262 0.28141,0.20032 0.51652,-0.12128 0.2639,-0.3609 1.00701,-0.464 4.20799,-0.58381 l 3.88699,-0.14549 v 0.6831 c 0,0.37568 -0.10909,0.9702 -0.24249,1.32098 -0.239,0.62852 -0.30829,0.64061 -4.69598,0.82251 -2.45002,0.1015 -5.22801,0.297 -6.17403,0.4345 -0.94588,0.13751 -2.96997,0.3111 -4.49799,0.38579 -1.528,0.0747 -3.31399,0.25252 -3.96899,0.39521 -1.798,0.39169 -18.67001,1.26201 -22.89001,1.17999 -2.037,-0.0392 -4.71598,-0.25159 -5.95299,-0.47199 -1.23701,-0.2204 -3.85601,-0.6981 -5.82102,-1.06199 -1.96498,-0.36351 -4.55398,-0.7448 -5.75498,-0.84722 -1.20099,-0.10239 -2.18299,-0.26008 -2.18201,-0.35049 2.1e-4,-0.0904 -1.905,-0.1288 -4.234,-0.0855 -2.32899,0.0433 -4.435,-0.0333 -4.68,-0.17031 -0.25451,-0.1424 -0.679,-0.15349 -0.99129,-0.0257 -0.30041,0.1229 -3.82,0.46558 -7.822,0.76139 -17.25999,1.276 -27.58999,1.36099 -32.01001,0.26371 -1.23698,-0.30642 -3.01998,-0.6577 -3.96298,-0.78052 -0.94261,-0.1228 -1.75602,-0.35129 -1.80901,-0.50779 -0.0521,-0.1564 -0.2113,-0.21249 -0.35359,-0.12449 -0.1424,0.088 -2.96,0.19159 -6.26102,0.2303 -3.301,0.0387 -7.13399,0.20248 -8.51599,0.36409 -1.38199,0.16161 -3.82299,0.4042 -5.42401,0.53919 -2.54,0.21421 -2.95299,0.19172 -3.24098,-0.17608 -0.30041,-0.3829 -0.33071,-0.3806 -0.33071,0.0259 0,0.4046 -0.47471,0.44651 -4.96099,0.43821 -3.50202,-0.007 -5.467,-0.12848 -6.68102,-0.41461 -2.39498,-0.56448 -11.48998,-0.78988 -15.51998,-0.38459 -1.724,0.17351 -5.21801,0.7204 -7.76401,1.21502 -4.873,0.94689 -10.14,1.43798 -15.46,1.44298 -3.238,0.003 -54.05,2.662 -60.47,3.166 -1.965,0.15381 -8.037,0.51851 -13.49,0.8104 -5.457,0.29191 -10.81,0.5929 -11.91,0.66892 -1.091,0.0761 -14.66,0.78747 -30.16,1.58099 -15.5,0.79348 -29.19,1.52 -30.43,1.613 -1.854,0.1405 -2.314,0.0984 -2.592,-0.23751 z"
     style="fill:#3d3f94;stroke-width:0.0700088" />
  <path
     style="fill:#ffffff;stroke-width:0.999999"
     d="M 1169.3105 455.63672 L 1169.3105 455.63867 C 1161.072 455.54645 1162.1461 455.96374 1163.9121 468.5332 C 1165.4296 479.35021 1165.369 479.43068 1154.5195 481.0332 C 1150.1656 481.67644 1142.6219 483.56773 1137.7539 485.23828 C 1132.8896 486.90883 1128.5295 488.04235 1128.0684 487.75586 C 1127.6046 487.46937 1125.544 482.52159 1123.4902 476.75781 L 1119.7578 466.2793 L 1114.5977 468.2832 C 1105.028 472.00037 1096.9395 476.06605 1096.9395 477.16211 C 1096.9395 477.76041 1099.8656 482.12766 1103.4414 486.86719 C 1107.0165 491.60672 1109.9414 496.07889 1109.9414 496.80078 C 1109.9414 497.52267 1107.3544 499.75662 1104.1934 501.75977 C 1101.031 503.76292 1094.5129 509.45728 1089.7129 514.41602 C 1079.7349 524.71901 1081.0542 524.6445 1071.3105 515.49805 C 1064.0009 508.6382 1061.9574 507.05498 1061.0957 507.58789 C 1059.122 508.80754 1045.8184 529.44011 1046.5781 530.10156 C 1047.0547 530.51652 1051.0459 532.11162 1055.4453 533.64648 C 1059.8447 535.18135 1064.4209 537.04191 1065.6113 537.7793 C 1066.9557 538.61045 1070.9409 539.12992 1076.1113 539.14844 C 1093.671 539.2108 1093.2401 539.36654 1096.9023 531.61133 C 1099.3666 526.39558 1100.3834 525.18164 1102.2852 525.18164 C 1103.5756 525.18164 1105.463 526.10171 1106.4805 527.22461 C 1107.4968 528.34751 1111.5032 531.68321 1115.3848 534.64258 C 1120.8273 538.78872 1123.5711 540.18855 1127.377 540.74414 L 1132.3125 541.46484 L 1123.7363 530.96289 C 1119.0195 525.18399 1114.8748 519.54868 1114.5195 518.4375 C 1114.0059 516.81911 1114.8094 515.79662 1118.5469 513.32031 C 1124.7151 509.23464 1142.3848 500.18555 1144.1914 500.18555 C 1145.1227 500.18555 1148.4511 507.54379 1153.8066 521.43359 C 1158.3118 533.11989 1162.6702 544.03572 1163.4941 545.68359 L 1164.9902 548.68359 L 1164.4219 545.83789 C 1163.4588 541.01525 1156.9375 501.20085 1156.9375 500.14258 C 1156.9375 498.17722 1162.3117 497.16132 1172.9473 497.11328 C 1185.9073 497.05508 1191.9355 498.37271 1191.9355 501.26367 C 1191.9355 502.35973 1190.7877 510.94211 1189.3848 520.3418 C 1187.9818 529.7377 1187.0311 537.62143 1187.2715 537.86328 C 1187.5119 538.10366 1188.7061 535.01533 1189.9258 531 C 1191.1454 526.98614 1193.6366 520.55056 1195.4629 516.69922 C 1197.288 512.84788 1199.0965 508.43255 1199.4805 506.88672 C 1199.8645 505.34089 1201.2668 503.36734 1202.5938 502.49805 C 1205.3437 500.69635 1204.4313 500.38736 1221.2207 508.79492 C 1232.0037 514.19587 1234.7854 516.42641 1233.2207 518.42578 C 1230.5006 521.89539 1206.5069 552.89074 1205.5469 554.17578 C 1204.9384 554.99027 1206.3519 554.16444 1208.6895 552.3418 C 1211.0272 550.51855 1212.9375 548.36155 1212.9375 547.55273 C 1212.9375 546.74392 1213.3367 546.32572 1213.8242 546.62695 C 1214.3118 546.92818 1220.6884 542.23084 1227.998 536.18359 C 1235.3039 530.14013 1241.8919 525.19727 1242.6289 525.19727 C 1245.4617 525.19727 1256.4867 537.70225 1260.459 545.42383 C 1263.9766 552.25721 1264.2582 553.30166 1262.9316 554.60938 C 1262.1085 555.42121 1252.6581 559.77618 1241.9355 564.28516 C 1231.2092 568.79413 1222.1014 572.77766 1221.6934 573.13672 C 1221.2835 573.4954 1231.3379 572.25724 1244.0371 570.38672 C 1258.7508 568.21954 1267.4755 567.33297 1268.084 567.94336 C 1271.7418 571.60119 1273.5752 599.42009 1270.3672 602.62891 C 1268.2968 604.69933 1267.5806 604.65862 1245.4824 601.22266 C 1235.0585 599.60162 1226.3847 598.41882 1226.207 598.5957 C 1225.7554 599.04736 1263.1623 614.22801 1264.6816 614.21289 C 1266.5102 614.19399 1266.1723 618.07522 1263.9102 623.05664 C 1261.4959 628.37822 1261.4294 630.06889 1263.6016 630.90039 C 1264.5196 631.25264 1272.2222 637.31472 1280.7148 644.37109 C 1289.2113 651.42747 1296.3274 657.19727 1296.5352 657.19727 C 1296.7411 657.19727 1298.9349 654.41575 1301.4082 651.01758 L 1301.4082 651.00195 C 1303.8815 647.60265 1305.7351 644.64928 1305.5234 644.44141 C 1305.3141 644.23202 1300.0633 642.4007 1293.8535 640.37109 L 1282.5586 636.67969 L 1282.291 632.18164 C 1281.9388 626.28558 1284.5894 618.08393 1287.0566 617.44141 C 1288.0896 617.17117 1288.9355 616.13496 1288.9355 615.13867 C 1288.9355 614.14239 1289.6106 612.6532 1290.4355 611.82812 C 1291.2607 611.00306 1291.9355 609.89355 1291.9355 609.36328 C 1291.9355 607.36127 1295.1898 607.32743 1305.1562 609.22656 C 1310.8066 610.30335 1316.2179 611.18555 1317.1816 611.18555 C 1318.7929 611.18555 1318.9336 609.56719 1318.9336 591.04297 L 1318.9336 570.90234 L 1313.1855 571.57617 C 1310.0233 571.94619 1304.0425 572.51606 1299.8926 572.84375 L 1292.3535 573.43945 L 1286.9668 555.78516 C 1283.298 543.7587 1281.91 537.80676 1282.6055 537.11133 C 1283.1679 536.54893 1288.0748 534.33925 1293.5098 532.20117 C 1298.9447 530.06347 1303.4844 527.94586 1303.6016 527.49609 C 1303.876 526.43102 1289.9067 508.10738 1287.8848 506.88281 C 1286.7066 506.1681 1284.0949 507.65129 1277.0234 513.06055 C 1271.9023 516.97614 1267.5439 520.18164 1267.3398 520.18164 C 1267.1369 520.18164 1262.8017 516.00653 1257.7031 510.90039 C 1252.3097 505.49945 1246.6819 500.84682 1244.2441 499.77344 C 1241.939 498.75943 1239.7839 497.22706 1239.4551 496.36914 C 1239.0851 495.40495 1241.206 491.40937 1245.0098 485.91016 C 1248.7533 480.49787 1250.8075 476.65117 1250.248 476.0918 C 1249.1214 474.96512 1230.8069 465.17578 1229.8242 465.17578 C 1229.4364 465.17578 1227.6785 469.56458 1225.9199 474.92773 C 1224.1594 480.29088 1222.2618 485.24165 1221.7051 485.92578 C 1220.1887 487.79514 1216.9144 487.45524 1209.4688 484.65234 C 1205.78 483.26371 1199.9879 481.88868 1196.5977 481.59766 C 1193.2086 481.30663 1188.9407 480.84225 1187.1152 480.56445 L 1183.7969 480.05859 L 1184.1152 467.86719 L 1184.4355 455.67383 L 1173.4375 455.67383 C 1171.8553 455.67383 1170.4876 455.65184 1169.3105 455.63672 z M 1101.7168 550.5957 C 1099.3135 550.58381 1096.8232 550.58724 1094.2734 550.60547 L 1094.2734 550.60352 C 1077.2751 550.72522 1057.658 551.50136 1043.9336 552.75 C 1035.2633 553.53917 1024.6874 554.19135 1020.4316 554.20117 C 1016.1759 554.21251 1008.6484 554.66675 1003.6973 555.21289 C 998.74605 555.75903 988.09078 556.82823 980.02148 557.58984 C 971.94838 558.35138 964.87323 559.26588 964.29492 559.62305 C 963.71703 559.98021 955.62933 560.91537 946.32031 561.70117 C 922.54334 563.70882 915.1954 565.65971 915.19922 569.95703 C 915.20001 570.90683 918.60181 574.99913 922.75781 579.05078 C 926.91533 583.10243 931.42024 588.16352 932.76953 590.30273 C 934.11882 592.44195 935.65364 594.1875 936.18164 594.1875 C 936.70964 594.1875 938.84214 596.74832 940.91797 599.87891 C 943.84174 604.28584 945.48727 605.77523 948.19727 606.4707 C 950.12214 606.96469 952.19618 607.78053 952.80469 608.2832 C 953.41357 608.7855 965.11516 611.22987 978.80469 613.7168 C 1021.9291 621.54798 1025.7828 622.62647 1046.6836 632.74805 C 1056.6275 637.55942 1069.9579 648.26148 1073.5371 654.3125 C 1074.7171 656.30733 1077.0334 659.64612 1078.6816 661.73242 C 1081.3462 665.10111 1081.7551 666.53996 1082.3379 674.60547 C 1082.6988 679.59822 1083.0417 688.41238 1083.1016 694.1875 C 1083.1707 700.90372 1083.7788 706.3075 1084.7852 709.1875 C 1085.7445 711.93106 1086.5775 718.85674 1086.9199 726.93359 L 1087.4805 740.17578 L 1092.6738 744.18359 C 1095.53 746.38702 1098.415 748.18945 1099.084 748.18945 C 1099.753 748.18945 1100.0202 748.64319 1099.6777 749.19727 C 1099.3353 749.75134 1099.872 750.49351 1100.8691 750.84766 C 1101.8666 751.2018 1103.9003 752.66043 1105.3887 754.08984 C 1111.4132 759.87252 1124.8994 769.92632 1141.1816 780.77734 C 1149.1564 786.09136 1157.7877 791.84855 1160.3691 793.56445 C 1162.9469 795.28263 1165.5373 797.72422 1166.123 798.99414 C 1166.7089 800.26406 1167.55 801.07877 1167.9902 800.80664 C 1168.4305 800.53451 1170.9969 802.30874 1173.6934 804.74805 C 1176.3899 807.18924 1178.9846 809.18555 1179.457 809.18555 C 1179.9291 809.18555 1181.749 810.26286 1183.498 811.57812 C 1185.2488 812.89378 1190.3049 815.77921 1194.7383 817.99023 C 1199.1678 820.20201 1203.3856 822.72654 1204.1113 823.59961 C 1204.8355 824.4723 1206.2106 825.1875 1207.168 825.1875 C 1209.5339 825.1875 1223.1889 830.88165 1225.2109 832.71094 C 1226.1071 833.52202 1227.487 834.18555 1228.2773 834.18555 C 1229.0676 834.18555 1231.7316 835.31011 1234.1992 836.68359 C 1239.4225 839.59307 1245.482 839.36108 1250.8867 836.04492 L 1250.9277 836.05273 C 1257.644 831.93305 1268.4991 812.79486 1268.6465 804.8125 C 1268.7164 801.06623 1268.4065 800.53984 1265.2227 798.99023 C 1263.2977 798.05367 1257.4498 796.80319 1252.2227 796.21094 C 1246.9957 795.61869 1238.2219 794.46431 1232.7227 793.64453 C 1227.2234 792.82475 1215.3787 791.5515 1206.3984 790.81445 C 1188.6347 789.35635 1186.7422 788.682 1182.7246 782.40039 C 1181.6248 780.67999 1180.0493 779.24376 1179.2246 779.20898 C 1174.6627 779.01547 1159.7562 763.46032 1155.5723 754.5293 C 1149.0147 740.52615 1150.7412 724.09145 1159.1016 720.93555 C 1160.6306 720.35841 1162.2963 718.98694 1162.8027 717.88672 C 1163.3088 716.7865 1173.2519 709.45737 1184.9004 701.60352 C 1201.0654 690.70336 1207.6611 686.83388 1212.7559 685.25781 C 1220.8327 682.76295 1231.7155 682.55706 1239.1309 684.75977 C 1247.9259 687.37142 1256.0237 696.60627 1285.3906 737.52344 C 1295.3308 751.36785 1303.5933 762.84215 1303.752 763.02734 C 1303.9103 763.21065 1306.2149 762.40174 1308.873 761.23047 C 1317.9666 757.22417 1328.5266 744.4621 1337.4727 726.67188 L 1341.0039 719.64844 L 1333.5801 711.66992 C 1329.4982 707.28189 1324.4107 701.21698 1322.2715 698.19336 C 1317.8419 691.91934 1311.024 685.19853 1300.2031 676.44141 C 1296.0797 673.10182 1289.3304 666.92914 1285.2031 662.71875 C 1281.0797 658.51214 1274.7706 653.10716 1271.1914 650.71094 C 1267.6107 648.31547 1263.1114 644.97265 1261.1914 643.2832 C 1251.6783 634.90777 1240.2531 626.59014 1230.8496 621.18164 C 1225.1198 617.88665 1220.0286 615.19141 1219.541 615.19141 C 1219.0538 615.19141 1208.9925 619.0956 1197.1777 623.86914 L 1175.7012 632.54688 L 1164.9941 632.97656 C 1155.602 633.35489 1153.7508 633.14891 1149.9297 631.29883 C 1147.5335 630.13889 1145.0795 629.18945 1144.4785 629.18945 C 1142.585 629.18945 1134.7442 620.864 1132.707 616.69141 C 1131.3672 613.94596 1130.6364 609.968 1130.3809 604.00391 L 1130.0098 595.31445 L 1134.8555 592.24805 C 1146.2431 585.04427 1155.5823 582.0964 1171.2031 580.77734 C 1174.7783 580.47574 1178.9659 579.87252 1180.5117 579.4375 L 1183.3184 578.64648 L 1180.2578 574.42188 C 1174.8417 566.94597 1164.5764 560.73971 1149.2051 555.65625 C 1139.435 552.42475 1139.492 552.43452 1120.2051 551.13281 C 1115.3483 550.80521 1108.9266 550.63138 1101.7168 550.5957 z M 1174.6523 560.21289 C 1172.8624 560.17283 1171.0738 560.42947 1170.7129 561.01367 C 1170.4328 561.46684 1172.3187 563.41789 1174.9043 565.34961 C 1180.0596 569.20095 1184.6035 575.15738 1185.6504 579.44336 C 1186.305 582.1238 1186.2114 582.19424 1181.9629 582.20898 C 1169.092 583.22915 1167.9253 582.98601 1151.7871 586.64648 C 1149.2064 587.21417 1149.0255 587.54107 1149.6582 590.47852 C 1151.6228 599.6023 1158.7245 607.23987 1168.1016 610.31641 C 1172.0809 611.62099 1181.3875 610.5972 1185.7422 608.37695 C 1200.8855 600.65111 1204.7653 582.03189 1193.8164 569.59766 C 1189.9651 565.22474 1186.9569 563.16852 1182.293 561.72852 C 1178.406 560.60482 1181.0718 560.3968 1174.6523 560.21289 z M 1337.1172 574.11719 L 1337.1172 616.25977 L 1356.6152 615.6875 L 1356.6152 595.18945 L 1356.6152 574.68945 L 1337.1172 574.11719 z M 1375.1172 577.1875 L 1375.1172 620.19922 L 1392.1172 620.19922 L 1392.1172 598.68945 L 1392.1172 577.1875 L 1375.1172 577.1875 z M 1307.7109 601.19336 C 1309.7074 601.19336 1312.2242 603.99198 1311.627 605.54688 C 1310.8597 607.54624 1309.8931 607.613 1307.4629 605.83594 C 1305.6735 604.52605 1305.8505 601.19336 1307.7109 601.19336 z M 1330.0547 619.17578 C 1318.066 619.17578 1304.1562 619.46872 1299.1445 619.82422 L 1290.0371 620.4707 L 1288.4961 624.99414 C 1287.6483 627.48183 1287.1484 629.71098 1287.3848 629.94531 C 1287.621 630.18153 1293.1138 632.06945 1299.5957 634.14062 C 1306.0738 636.21181 1311.7964 638.57021 1312.3066 639.38281 C 1312.9809 640.452 1312.0828 642.55887 1309.0547 647.01758 L 1304.8711 653.17383 L 1327.3262 653.17383 C 1339.6777 653.17383 1350.38 652.94405 1351.1133 652.66406 L 1351.1172 652.66797 C 1352.1686 652.26583 1352.3867 648.68649 1352.1523 635.66602 L 1351.8555 619.17578 L 1330.0547 619.17578 z M 1387.0703 625.17383 C 1367.1182 625.17383 1364.0994 625.37754 1363.5703 626.75586 C 1363.2362 627.62591 1362.9629 633.70407 1362.9629 640.25781 L 1362.9629 652.17383 L 1409.9805 652.17383 L 1409.9629 638.67578 L 1409.9629 625.17383 L 1387.0703 625.17383 z M 946.36328 625.18164 C 943.71473 625.18233 940.03728 626.66257 933.67773 630.28516 C 928.74923 633.09108 924.42559 635.67793 924.07031 636.0332 C 923.41611 636.68517 917.84934 681.19743 916.67383 695.18164 C 915.86463 704.80432 917.55988 717.23634 921.27734 728.94531 C 924.89855 740.34815 924.97604 744.75558 921.67383 751.27148 L 919.13086 756.28906 L 921.87695 764.98633 C 923.38805 769.76743 924.93465 774.06051 925.31445 774.52539 C 926.12977 775.5213 934.35573 766.8988 935.52734 763.82227 C 935.98244 762.62529 935.84974 759.77417 935.22461 757.29102 C 934.1671 753.09196 934.25425 752.74075 937.04883 749.78516 C 938.66121 748.07946 940.48392 745.70006 941.09961 744.50195 C 942.96103 740.87172 942.34474 733.29995 939.20312 721.2168 C 937.56286 714.90877 936.2207 708.43451 936.2207 706.83203 C 936.2207 705.22985 935.68791 702.14015 935.03711 699.9707 C 931.1366 686.94645 952.02295 680.74094 962.43555 691.83008 C 964.76865 694.31474 965.49997 696.72397 967.6543 708.99609 C 969.03148 716.84995 970.36338 723.60536 970.61328 724.00977 C 970.86311 724.41418 970.36501 732.32843 969.50781 741.59961 C 968.11162 756.69508 968.10994 758.54318 969.47461 759.30664 C 970.31291 759.77568 971.27823 761.27017 971.61914 762.62891 C 971.96005 763.98765 974.14693 766.41727 976.47852 768.02734 C 983.55383 772.91049 992.2207 782.65381 992.2207 785.72656 C 992.2207 788.05097 992.55861 788.35268 994.69922 787.94336 C 996.4612 787.6066 997.33804 787.98116 997.73633 789.23438 C 998.86943 792.80451 1007.367 799.24262 1017.9648 804.55664 C 1036.2048 813.70688 1039.2553 814.48115 1057.877 814.73438 C 1069.4914 814.89197 1075.3827 815.40269 1078.875 816.55469 C 1085.047 818.58959 1120.7915 825.85193 1128.7285 826.67969 C 1132.0284 827.02476 1136.3009 827.90651 1138.2285 828.63672 C 1140.1534 829.36692 1145.1234 830.7038 1149.2695 831.60938 C 1153.4157 832.51456 1158.438 834.2525 1160.4336 835.46875 C 1167.524 839.80009 1175.7297 848.56943 1179.2598 855.5918 C 1181.6571 860.36156 1183.8859 863.22164 1186.7168 865.17188 C 1188.9373 866.69955 1192.915 870.70067 1195.5605 874.06445 C 1200.7423 880.65969 1200.5719 880.60463 1210.2324 878.83203 C 1214.1815 878.1058 1216.8385 877.09966 1217.0234 876.25977 C 1217.1894 875.49932 1219.5521 872.78581 1222.2734 870.23047 C 1225.0752 867.59992 1227.2207 864.69755 1227.2207 863.54102 C 1227.2207 860.03815 1221.6841 856.44661 1213.0176 854.33008 C 1209.8319 853.55187 1204.3515 850.33247 1196.0176 844.3457 C 1189.2523 839.48523 1178.8207 832.90111 1172.8301 829.71875 C 1166.8396 826.53374 1160.2594 822.41239 1158.207 820.55664 C 1156.1547 818.70089 1153.9512 817.1875 1153.3086 817.1875 C 1152.6665 817.1875 1137.2611 806.61149 1119.0703 793.68555 C 1098.0107 778.71862 1085.1265 770.18555 1083.5996 770.18555 C 1077.0496 770.18555 1065.8089 761.25397 1061.4473 752.57617 C 1057.8095 745.34216 1057.2552 741.73603 1056.3066 719.18359 C 1055.7654 706.30296 1054.6681 693.26438 1053.7383 688.68359 C 1050.5926 673.18753 1040.947 657.9823 1032.375 655.00781 C 1030.0763 654.20958 1025.1902 653.86584 1019.2188 654.08203 C 1013.9954 654.27139 1007.246 654.48401 1004.2188 654.55469 L 998.71875 654.68359 L 998.83984 650.68359 C 998.90636 648.48353 999.13125 644.68975 999.33984 642.25195 L 999.71875 637.81836 L 993.32422 636.50195 C 989.80771 635.77738 981.70979 633.63491 975.32617 631.74023 C 960.34976 627.29606 951.02604 625.18216 946.36523 625.18164 L 946.36328 625.18164 z M 1423.625 642.25 L 1423.3516 643.625 C 1423.2008 644.38125 1422.9203 646.38904 1422.7285 648.08789 L 1422.3789 651.17773 L 1424.0645 651.38281 C 1426.858 651.72451 1469.7543 651.77413 1471.4375 651.4375 C 1472.8608 651.15284 1473 650.95532 1473 649.21289 C 1473 648.1608 1472.7567 646.16392 1472.459 644.77539 L 1471.918 642.25 L 1447.7715 642.25 L 1423.625 642.25 z M 873.86719 1026.4102 C 872.57491 1026.4271 870.23346 1027.0377 865.60742 1027.8164 C 860.18342 1028.7295 858.70263 1032.8568 850.24023 1033.8262 C 837.90764 1035.2394 830.11345 1036.9553 821.03125 1040.2617 L 815.41211 1042.3086 L 814.87305 1048.9727 C 814.57673 1052.6377 814.43742 1055.7407 814.56445 1055.873 C 814.69145 1056.0046 817.09384 1055.1402 819.9043 1053.9531 L 825.01562 1051.7949 L 830.54102 1055.6016 C 835.43169 1058.9687 836.57591 1059.3475 840.5293 1058.9023 C 843.60319 1058.5558 856.7636 1059.6672 858.69531 1056.6504 L 858.68164 1056.6504 C 862.38596 1050.8602 864.26814 1049.849 871.56641 1049.7129 C 875.23293 1049.6437 875.54312 1049.8641 876.36328 1053.1387 C 876.84517 1055.0635 878.41578 1057.6934 879.85352 1058.9785 C 882.04035 1060.9355 883.15036 1061.2156 886.64453 1060.6914 C 888.94248 1060.3467 892.09115 1060.5467 893.64453 1061.1367 C 896.07552 1062.0607 896.82294 1061.8795 899.05664 1059.8223 C 900.48228 1058.5093 903.67666 1056.4566 906.14844 1055.2578 C 908.62327 1054.0604 912.44875 1051.4833 914.64844 1049.5312 C 918.48844 1046.1248 918.57198 1045.9261 916.71094 1044.5605 C 912.8407 1041.7237 894.24476 1035.1578 886.05078 1033.7363 C 879.69354 1032.6335 877.32062 1031.7755 876.28125 1030.207 C 875.45732 1027.349 875.52869 1026.3884 873.86719 1026.4102 z M 1224.6504 1173.1816 C 1033.721 1172.3924 766.12543 1181.2412 608.81836 1195.7168 C 595.29774 1222.7958 579.12109 1243.0938 579.12109 1243.0938 C 579.12109 1243.0938 500.03679 1260.7914 470.93359 1267.1348 C 492.38854 1342.0675 508.95389 1337.9613 470.25391 1444.8574 C 530.19532 1424.8279 685.49219 1413.8789 685.49219 1413.8789 C 685.49219 1413.8789 676.62439 1388.8794 675.75 1360.75 C 810.28655 1339.3381 1237.5149 1335.8459 1303.9043 1351.2812 C 1305.2399 1365.3024 1307.8887 1393.7207 1307.8887 1393.7207 C 1307.8887 1393.7207 1453.1175 1397.727 1521.6934 1411.3848 C 1489.1529 1319.6836 1489.8806 1275.4085 1518.8652 1236.7305 C 1482.089 1227.7509 1442.35 1226.3461 1417.75 1216.9316 C 1416.838 1182.7684 1395.4579 1180.8287 1383.1016 1177.332 C 1343.4197 1174.7785 1288.2935 1173.4447 1224.6504 1173.1816 z "
     transform="scale(0.26458333)" />
  <path
     style="fill:#fff212;fill-opacity:1;stroke:none;stroke-width:0.999999px;stroke-linecap:butt;stroke-linejoin:miter;stroke-opacity:1"
     d="M 736.48828 548.49414 C 736.24683 548.49435 736.00129 548.49627 735.75 548.5 C 728.60975 548.6062 724.53549 551.66895 721.875 556.25 C 719.57312 560.21359 722 570 722 570 L 697 583.75 L 690.35742 592.74023 L 615.36523 586.82227 L 579.5 578.375 L 585.125 585 L 608.875 589 L 582.875 591.5 L 597.75 599.75 L 613.75 602.625 L 589.5 605 L 612.75 614 L 605.125 616.625 L 666.5 651.25 L 708.375 660.375 L 689 691.375 L 691 707.75 L 720.75 730.25 L 701.625 742.125 L 686.625 764.75 L 693.375 786.25 L 732.25 808.125 L 733.45898 836.20312 L 741.83984 836.22266 L 744 809.375 L 785.5 815.75 L 781.375 807.5 L 744.71094 795.19141 L 744.71094 735.28711 L 781.25 708.625 L 784.25 699.125 L 774.625 672 L 763.5 660 L 815.375 648.5 L 872.375 616.125 L 862.625 614.25 L 885.125 604.625 L 864.625 602.5 L 889.875 594.875 C 889.875 594.875 896.05056 590.69049 884.75 590.5 C 879.59401 590.41307 865.875 588.875 865.875 588.875 C 865.875 588.875 893.30936 586.0094 898.25 579.875 C 888.37413 577.34706 853.625 586.875 853.625 586.875 C 853.625 586.875 799.44596 593.9302 781.13672 589.72461 C 777.32748 585.76903 756.625 571.125 756.625 571.125 L 750.89258 568.98633 C 750.89258 568.98633 754.24595 559.44173 749.875 554 C 746.80973 550.18385 743.97331 548.4878 736.48828 548.49414 z M 731.10156 573.12891 C 731.14161 573.12593 731.17948 573.12651 731.2168 573.12891 C 731.37602 573.13915 731.51052 573.19897 731.61914 573.3125 C 733.35701 575.12905 731.54201 622.47853 731.44336 636.24414 C 722.77097 631.62495 716.91051 625.99506 713.29297 618.71875 C 709.19649 610.47908 702.31148 596.47076 709.93555 591.31836 C 720.66683 584.06608 728.57877 573.31648 731.10156 573.12891 z M 743.57227 576.05078 L 764.55859 592.29102 C 764.55859 592.29102 765.65329 605.65163 762.34961 612.26562 C 759.04592 618.87965 753.66451 628.37726 744.67188 628.88281 C 742.30835 622.22892 743.57227 576.05078 743.57227 576.05078 z M 731.50195 658.84766 C 733.16392 667.86213 731.67969 719.83398 731.67969 719.83398 C 731.67969 719.83398 708.02361 710.16972 704.54297 698.70898 C 701.06233 687.24825 721.26631 665.91987 731.50195 658.84766 z M 743.69922 661.05664 C 743.69922 661.05664 769.23883 681.79836 768.625 696.32422 C 768.01117 710.85008 743.96484 719.57031 743.96484 719.57031 L 743.69922 661.05664 z M 731.32422 739.10352 L 731.67969 791.7832 C 731.67969 791.7832 702.78161 780.37932 702.6875 764.38281 C 702.59354 748.3863 731.32422 739.10352 731.32422 739.10352 z "
     transform="scale(0.26458333)" />
  <path
     fill="#3b3636"
     d="m 199.56664,413.70426 c 0.0117,-0.4366 -0.0339,-0.6449 -0.1015,-0.463 -0.1709,0.46 -0.8571,0.4143 -1.043,-0.0695 -0.2323,-0.6055 0.4127,-1.27 0.8668,-0.8936 0.2919,0.2423 0.3618,0.151 0.3618,-0.473 0,-0.4253 -0.1458,-0.919 -0.3241,-1.097 -0.2558,-0.2558 -0.2558,-0.4336 0,-0.8431 0.1783,-0.2854 0.3241,-1.354 0.3241,-2.375 v -1.856 h 5.292 v 21.17 h 12.96 v 4.498 h -18.26 c 0.057,-5.86436 -0.18586,-11.73404 -0.0761,-17.5978 z m 111.4315,-8.087 5.159,0.1514 0.1374,25.54 h -5.297 z m -186.7,-23.35 c -0.7614,-0.8104 -0.7338,-1.082 0.3289,-3.24 1.399,-2.841 1.974,-4.454 2.822,-7.907 1.536,-6.261 1.686,-14.4 0.4018,-21.76 -0.8019,-4.598 -0.7653,-4.485 -3.445,-10.65 -1.495,-3.439 -1.922,-4.668 -1.675,-4.825 0.3045,-0.1934 1.21,-0.2757 4.035,-0.3671 0.5821,-0.0188 1.237,-0.0971 1.455,-0.1739 0.8333,-0.2932 3.878,-0.78 7.148,-1.143 3.729,-0.4139 6.822,-1.106 12.76,-2.857 3.738,-1.102 4.751,-1.498 3.828,-1.498 -1.047,0 -0.8021,-4.912 0.3587,-7.187 0.7619,-1.494 2.636,-3.238 4.348,-4.048 1.741,-0.8236 3.038,-1.124 3.038,-0.7038 0,0.488 0.4571,0.3373 0.5968,-0.1968 0.15,-0.5736 1.687,-0.8434 5.753,-1.01 1.382,-0.0566 5.907,-0.3785 10.05,-0.7154 4.147,-0.3369 7.648,-0.5166 7.78,-0.3995 0.1314,0.1172 0.4291,0.1159 0.6615,-0.003 0.2324,-0.1188 1.554,-0.2924 2.936,-0.386 1.382,-0.0935 3.645,-0.2852 5.027,-0.426 1.382,-0.1408 3.666,-0.2592 5.074,-0.2631 2.219,-0.006 2.576,0.0544 2.681,0.4558 0.091,0.3484 0.1286,0.3157 0.1517,-0.1323 0.0222,-0.4308 0.1952,-0.5962 0.626,-0.5986 0.3274,-0.003 5.12,-0.2975 10.65,-0.657 5.53,-0.3595 18.81,-0.9468 29.5,-1.305 10.7,-0.3583 20.83,-0.7107 22.52,-0.7832 2.113,-0.0908 3.165,-0.0375 3.373,0.1707 0.227,0.227 0.3818,0.2233 0.62,-0.0148 0.1746,-0.1746 0.6509,-0.3175 1.058,-0.3175 0.5715,0 0.7408,0.1245 0.7408,0.5448 0,0.2996 0.1138,0.4744 0.253,0.3884 0.1392,-0.086 0.1819,-0.3417 0.095,-0.5683 -0.127,-0.3311 0.0188,-0.3967 0.743,-0.3342 0.4956,0.0427 1.018,0.0103 1.162,-0.0719 0.144,-0.0822 0.6989,-0.0946 1.234,-0.0274 0.767,0.0962 0.94,0.2147 0.815,0.5584 -0.1275,0.3508 -0.0405,0.3326 0.4437,-0.0929 0.59,-0.5183 0.9961,-0.5296 19.82,-0.5517 14.92,-0.0175 42.23,0.3936 42.87,0.6452 0.0542,0.0214 -0.0409,0.2068 -0.2113,0.4122 -0.195,0.235 -0.2138,0.4327 -0.0507,0.5335 0.1425,0.0881 0.334,0.0392 0.4254,-0.1087 0.0914,-0.1479 0.5164,-0.2689 0.9443,-0.2689 0.428,0 0.7781,-0.1374 0.7781,-0.3053 0,-0.4376 14.16,-0.1333 14.7,0.316 0.2469,0.205 0.384,0.2185 0.384,0.0379 0,-0.5196 2.218,-0.5756 7.805,-0.1971 7.537,0.5106 8.857,0.8032 8.868,1.967 0.003,0.3416 0.0509,0.3566 0.2309,0.0726 0.2546,-0.4018 1.002,-0.1185 1.605,0.6082 0.2796,0.337 0.2757,0.495 -0.0217,0.8743 -0.3347,0.4268 -0.3241,0.4323 0.1345,0.0712 0.4565,-0.3595 0.5677,-0.3108 1.345,0.5886 0.8763,1.014 1.464,2.518 1.464,3.745 0,0.3879 0.1786,0.7737 0.3969,0.8575 0.4805,0.1844 0.527,1.057 0.0661,1.243 -0.1976,0.0797 -0.1443,0.1419 0.1323,0.1544 0.2547,0.0114 0.463,0.1259 0.463,0.2543 0,0.2912 6.572,1.577 9.193,1.799 1.648,0.1394 2.023,0.2643 2.461,0.8216 0.3869,0.4918 0.517,0.5484 0.517,0.2247 0,-0.6409 1.077,-0.5523 1.248,0.1028 0.1206,0.4611 0.1814,0.4802 0.4383,0.1378 0.264,-0.3519 0.6474,-0.3365 3.341,0.1341 3.506,0.6126 4.233,0.8649 4.233,1.468 0,0.3548 0.0724,0.3748 0.3932,0.1086 0.314,-0.2606 0.7808,-0.2361 2.315,0.1211 1.965,0.4575 3.377,0.9179 3.377,1.101 0,0.0564 -0.3274,0.4677 -0.7276,0.914 -2.352,2.623 -5.358,8.853 -5.358,11.1 0,0.429 -0.1025,0.7801 -0.2277,0.7801 -0.7929,0 -0.8401,9.855 -0.0689,14.4 0.2944,1.735 0.4697,3.261 0.3895,3.391 -0.0802,0.1298 0.0436,0.3769 0.2751,0.5491 0.2315,0.1722 0.4659,0.6703 0.5209,1.107 0.0549,0.4366 0.1841,1.032 0.2869,1.323 0.1028,0.291 0.3535,0.9921 0.557,1.558 0.2035,0.5658 0.3067,1.131 0.2294,1.256 -0.0774,0.1252 0.0448,0.4924 0.2715,0.8161 0.2267,0.3237 0.4122,0.9728 0.4122,1.443 0,0.5374 0.1716,0.9509 0.463,1.115 0.3709,0.2093 0.3972,0.3277 0.1323,0.5952 -0.4444,0.4488 -0.4198,0.8481 0.0412,0.6712 0.2525,-0.0969 0.5499,0.271 0.926,1.145 0.6366,1.48 0.6901,2.011 0.2233,2.219 -0.1819,0.0812 -0.0331,0.1209 0.3307,0.0882 0.5368,-0.0482 0.6469,0.0466 0.5842,0.5033 -0.0438,0.3191 0.0994,0.6305 0.3307,0.7193 0.2425,0.0931 0.408,0.4794 0.408,0.9525 0,1.556 -1.933,2.05 -3.172,0.8111 -0.282,-0.282 -0.576,-0.4105 -0.6532,-0.2855 -0.0773,0.125 -1.059,-0.0643 -2.181,-0.4206 -1.122,-0.3564 -2.819,-0.7548 -3.772,-0.8854 -0.9523,-0.1306 -2.505,-0.357 -3.451,-0.5031 -1.986,-0.3068 -20.76,-1.194 -21.25,-1.004 -0.575,0.2206 -19.91,-0.5653 -21.65,-0.8798 -0.913,-0.1656 -2.167,-0.5984 -2.788,-0.9618 l -1.128,-0.6608 0.1672,-4.998 c 0.1394,-4.167 0.1052,-5.02 -0.2052,-5.128 -0.2048,-0.0715 -3.587,-0.3163 -7.516,-0.5441 -8.196,-0.4751 -9.922,-0.6441 -9.922,-0.9713 0,-0.1288 -0.2679,-0.0632 -0.5953,0.1458 -0.5051,0.3225 -1.537,0.34 -6.813,0.1152 -7.352,-0.3132 -12.92,-0.4287 -30.16,-0.6259 -7.058,-0.0807 -13.25,-0.1653 -13.76,-0.1881 -0.5093,-0.0228 -4.2,0.061 -8.202,0.1862 -9.959,0.3114 -9.872,0.3074 -10.32,0.4734 -0.2183,0.0811 -10.1,0.5218 -21.96,0.9793 -11.86,0.4576 -24.3,1.002 -27.65,1.211 -7.007,0.436 -15.74,0.6167 -15.74,0.3258 8e-5,-0.1091 -0.1189,-0.1984 -0.2644,-0.1984 -0.1455,0 -0.2646,0.1647 -0.2646,0.366 0,0.5262 -0.8548,0.6848 -3.704,0.6872 -2.359,0.003 -3.922,0.1243 -10.45,0.818 -1.455,0.1546 -3.717,0.3849 -5.027,0.5117 -3.28,0.3176 -10.27,1.684 -12.06,2.358 -1.747,0.6574 -2.703,1.563 -2.579,2.443 0.0717,0.5066 0.4125,0.7297 1.847,1.209 1.918,0.6411 7.027,1.396 9.447,1.396 0.8366,0 1.664,0.1429 1.839,0.3175 0.2006,0.2006 0.4101,0.225 0.569,0.066 0.1589,-0.1589 1.675,-0.1523 4.118,0.018 2.127,0.1482 3.908,0.228 3.959,0.1774 0.0506,-0.0506 -0.1953,-0.9368 -0.5465,-1.969 -0.4607,-1.354 -0.6386,-2.454 -0.6386,-3.948 v -2.07 h 2.381 v 1.88 c 0,2.247 0.5529,4.532 1.645,6.797 0.6288,1.304 0.7721,1.894 0.6611,2.722 -0.1899,1.416 -0.5158,1.743 -2.072,2.076 -0.7254,0.1556 -1.64,0.4438 -2.033,0.6405 -0.3929,0.1967 -1.667,0.5014 -2.831,0.6772 -1.164,0.1757 -2.86,0.4447 -3.767,0.5977 -0.9079,0.1531 -1.938,0.2063 -2.288,0.1183 -0.3506,-0.088 -1.262,-0.0415 -2.026,0.1033 -0.9482,0.1798 -1.494,0.176 -1.72,-0.0122 -0.2248,-0.1866 -0.7033,-0.1919 -1.483,-0.0164 -0.633,0.1425 -4.581,0.529 -8.772,0.8587 -6.031,0.4744 -7.728,0.533 -8.132,0.2805 -0.675,-0.4215 -1.064,-0.4047 -0.8934,0.0387 0.1055,0.2749 -0.3714,0.3989 -2.059,0.5354 -4.047,0.3275 -10.56,1.525 -14.7,2.702 -2.257,0.6419 -4.186,1.167 -4.287,1.167 -0.1007,0 -0.442,-0.2756 -0.7584,-0.6124 z m 4.403,-2.808 c 1.155,-0.4748 3.814,-1.065 5.341,-1.186 0.3638,-0.0287 0.84,-0.1256 1.058,-0.2154 1.22,-0.5012 8.55,-1.493 13.23,-1.791 1.965,-0.1248 5.358,-0.3531 7.541,-0.5074 2.183,-0.1543 6.707,-0.4648 10.05,-0.69 3.347,-0.2252 6.383,-0.4644 6.747,-0.5315 0.364,-0.0671 1.759,-0.2426 3.1,-0.3901 2.574,-0.283 3.659,-0.6272 3.892,-1.235 0.1713,-0.4465 -1.051,-0.9748 -1.801,-0.7786 -0.2825,0.0739 -0.7282,0.0196 -0.9904,-0.1208 -0.2622,-0.1403 -1.642,-0.3081 -3.066,-0.3728 -4.665,-0.212 -9.247,-0.5815 -9.552,-0.7702 -0.1647,-0.1018 -1.344,-0.232 -2.621,-0.2894 -4.421,-0.1985 -6.875,-1.525 -7.138,-3.857 -0.0736,-0.6533 0.0995,-2.733 0.3847,-4.621 0.4181,-2.768 0.5069,-4.587 0.4583,-9.386 -0.0332,-3.274 -0.1958,-6.608 -0.3614,-7.408 -0.3145,-1.52 -0.8226,-5.334 -0.9076,-6.813 -0.0272,-0.4729 -0.1387,-0.8599 -0.2478,-0.8599 -0.1091,0 -0.1984,-0.3646 -0.1984,-0.8101 0,-0.8748 -1.252,-5.532 -1.583,-5.89 -0.111,-0.1198 -1.236,0.1474 -2.501,0.5936 -2.504,0.8838 -6.079,1.67 -9.807,2.157 -1.31,0.171 -2.679,0.429 -3.043,0.5733 -0.364,0.1443 -1.376,0.3516 -2.249,0.4606 -4.832,0.6035 -8.137,1.197 -8.246,1.48 -0.0668,0.174 0.2432,1.121 0.6889,2.103 0.4457,0.9829 0.8103,1.912 0.8103,2.064 0,0.1522 0.232,0.7608 0.5156,1.352 2.832,5.908 3.733,18.35 1.966,27.14 -0.7199,3.581 -0.9043,4.024 -1.603,3.848 -0.7496,-0.1881 -0.8271,0.2819 -0.0854,0.5173 0.291,0.0924 0.5292,0.2774 0.5292,0.4111 0,0.1338 -0.4762,1.511 -1.058,3.061 -0.5821,1.55 -1.058,2.92 -1.058,3.046 0,0.3475 0.4421,0.2786 1.803,-0.281 z m 271,-10.26 c -5.146,-12.92 -6.464,-23.24 -4.096,-32.09 0.7027,-2.627 1.307,-4.014 2.703,-6.203 0.4588,-0.7197 0.8341,-1.464 0.8341,-1.654 0,-0.4395 0.4357,-0.4492 0.642,-0.0143 0.0863,0.1819 0.095,-0.0773 0.0193,-0.576 -0.0757,-0.4987 -0.1909,-0.96 -0.2559,-1.025 -0.385,-0.385 -22.78,-4.389 -23.18,-4.143 -0.1134,0.0701 -0.2888,0.8987 -0.3898,1.841 -0.1009,0.9426 -0.2591,1.668 -0.3515,1.611 -0.0924,-0.0565 -0.1857,6.702 -0.2074,15.02 -0.0585,22.47 -0.1746,23.02 -5.026,23.71 -1.285,0.182 -1.891,0.1685 -2.152,-0.0481 -0.2741,-0.2275 -0.414,-0.219 -0.5708,0.0346 -0.1598,0.2585 -1.909,0.3365 -7.587,0.3383 -8.171,0.003 -13.46,0.5028 -13.46,1.272 0,0.4874 0.9363,0.6262 7.938,1.177 2.96,0.2326 8.329,0.4157 12.18,0.4153 4.633,0 6.987,0.0941 7.181,0.2884 0.205,0.205 0.4412,0.2077 0.8119,0.009 0.2875,-0.1539 0.5869,-0.2156 0.6654,-0.1372 0.0784,0.0784 2.803,0.2442 6.054,0.3685 9.324,0.3564 16.6,1.149 16.84,1.835 0.0434,0.1237 0.3038,0.166 0.5788,0.0941 0.275,-0.0719 0.7681,0.057 1.096,0.2866 0.3277,0.2295 0.6378,0.3754 0.689,0.3242 0.0513,-0.0512 -0.3797,-1.28 -0.9576,-2.731 z m -44.64,-5.264 c 2.888,-0.0798 4.381,-0.0313 4.276,0.139 -0.0889,0.1439 0.0666,0.3838 0.3457,0.5331 0.4064,0.2175 0.5327,0.1746 0.6348,-0.2157 0.1589,-0.6078 1.688,-0.7501 6.016,-0.5599 2.137,0.0939 3.24,0.0358 3.704,-0.1953 0.3638,-0.181 0.8786,-0.3299 1.144,-0.3307 0.3153,0 0.4527,-0.162 0.3967,-0.4647 -0.1105,-0.5967 -2.738,-1.464 -6.965,-2.298 -3.737,-0.7376 -17.43,-2.388 -18,-2.169 -0.5584,0.2143 -0.5807,6.197 -0.0238,6.411 0.3331,0.1278 1.863,-0.1858 3.021,-0.6193 0.3727,-0.1396 0.3922,-0.1003 0.118,0.2374 -0.1806,0.2225 -0.2447,0.4883 -0.1424,0.5906 0.1023,0.1023 0.3764,-0.0665 0.6092,-0.375 0.3945,-0.523 0.7242,-0.5694 4.861,-0.6837 z m -194.7,-2.331 c 1.489,-0.502 3.808,-1.043 5.201,-1.213 1.382,-0.1689 3.99,-0.5313 5.794,-0.8053 1.804,-0.274 3.357,-0.4509 3.45,-0.3932 0.1612,0.0997 1.241,-0.006 6.763,-0.6587 4.055,-0.4796 11.05,-0.89 37.31,-2.189 25.95,-1.284 27.95,-1.349 28.22,-0.9251 0.1778,0.2752 0.2726,0.2646 0.4766,-0.0533 0.2117,-0.3301 1.638,-0.4366 8.476,-0.6326 7.899,-0.2265 8.238,-0.2161 8.629,0.2646 0.3927,0.483 0.4025,0.4801 0.2829,-0.0824 l -0.1238,-0.5827 22.13,0.0536 c 19.1,0.0463 26.87,0.1567 40.65,0.5779 1.455,0.0445 4.075,0.211 5.821,0.37 1.746,0.159 5.854,0.411 9.128,0.5599 3.274,0.1489 6.787,0.3925 7.805,0.5412 1.019,0.1488 4.471,0.5696 7.673,0.9353 5.881,0.6717 8.178,1.131 11.75,2.352 2.768,0.9447 2.827,0.9307 3.047,-0.7186 0.3597,-2.695 0.6054,-12.58 0.4847,-19.51 -0.1002,-5.752 -0.0241,-8.038 0.4235,-12.73 0.6025,-6.316 0.6059,-6.281 -0.9086,-9.467 -1.112,-2.339 -2.374,-3.515 -4.442,-4.136 -2.025,-0.6086 -7.053,-0.9019 -15.65,-0.913 -4.22,-0.006 -8.685,-0.1204 -9.922,-0.2554 -1.237,-0.135 -10.49,-0.3288 -20.57,-0.4306 -10.54,-0.1064 -18.32,-0.2862 -18.32,-0.4231 0,-0.1309 -0.2342,-0.1127 -0.5204,0.0405 -0.511,0.2735 -18.9,0.1362 -19.35,-0.1445 -0.1104,-0.0682 -0.2755,-0.003 -0.3669,0.1448 -0.234,0.3786 -8.514,0.3609 -8.748,-0.0188 -0.128,-0.2072 -0.2583,-0.2072 -0.4654,0 -0.1582,0.1582 -1.034,0.2876 -1.946,0.2876 -1.366,0 -1.632,-0.0701 -1.506,-0.3969 0.2147,-0.5594 -0.6075,-0.5118 -0.9238,0.0535 -0.2286,0.4085 -1.975,0.5048 -18.78,1.035 -10.19,0.3216 -18.75,0.6476 -19.01,0.7245 -0.2638,0.0768 -3.575,0.2084 -7.359,0.2923 -3.784,0.0839 -7.594,0.2658 -8.467,0.404 -1.919,0.304 -8.576,0.7133 -17.33,1.066 -7.315,0.2945 -13.08,0.7023 -15.3,1.082 -0.8244,0.141 -3.702,0.3868 -6.394,0.5462 -10.09,0.5975 -16.36,1.177 -17.61,1.629 -3.097,1.113 -4.769,2.4 -5.552,4.275 -0.5819,1.393 -0.4086,3.29 1.069,11.7 0.8532,4.855 1.072,6.609 0.8427,6.758 -0.2217,0.144 -0.2272,0.2573 -0.0195,0.3994 0.1596,0.1091 0.558,1.98 0.8853,4.156 0.5491,3.651 0.5803,4.477 0.4028,10.65 -0.1058,3.68 -0.106,6.692 -5.3e-4,6.692 0.1056,0 1.401,-0.4077 2.879,-0.9059 z m -53.212,1.173 c -4.8,-0.8344 -8.500001,-4.419 -9.497001,-9.203 -0.3641,-1.746 -0.3786,-5.601 -0.0281,-7.492 0.685,-3.694 3.656001,-7.522 6.732001,-8.673 6.003,-2.246 12.74,-0.5594 15.81,3.957 2.661,3.917 3.064,10.51 0.9252,15.15 -2.18,4.727 -7.921,7.305 -13.94,6.259 z m 5.953,-4.959 c 2.601,-1.339 3.637,-3.434 3.787,-7.659 0.1255,-3.532 -0.3152,-5.301 -1.733,-6.957 -1.448,-1.691 -2.727,-2.239 -5.23,-2.239 -2.397,0 -3.627,0.4904 -5.064,2.018 -1.146,1.219 -1.601,2.218 -1.967,4.321 -0.9317,5.35 1.062,9.714 5.031,11.01 1.145,0.3743 4.02,0.0994 5.175,-0.4948 z m 298,4.258 c -0.0534,-11.09625 -0.1764,-25.75 -0.1764,-25.75 h 7.855 l 4.735,17.395 c 0,0 4.607,-17.06 4.607,-17.26 0,-0.0741 0.3588,-0.1348 0.7973,-0.1348 0.4385,0 1.034,-0.1477 1.323,-0.3282 0.4183,-0.2612 0.6328,-0.2612 1.051,0 0.3047,0.1903 1.418,0.3282 2.648,0.3282 h 2.123 l -0.1374,25.8 h -4.762 l -0.2646,-19.22 -4.92,19.3539 h -4.982 l -5.0389,-19.4472 -0.2727,19.447 -4.586,-0.1764 z m -303.4,-56.91 c 0.005,-2.9 0.42,-9.212 0.8178,-12.44 l 0.302,-2.447 h 1.158 c 0.6369,0 1.158,-0.1191 1.158,-0.2646 0,-0.1455 -0.4762,-0.2646 -1.058,-0.2646 -1.192,0 -1.212,-0.0524 -0.7718,-2.104 0.2858,-1.333 0.289,-1.336 1.339,-1.336 0.634,0 0.987,-0.1052 0.8885,-0.2646 -0.0899,-0.1455 -0.5137,-0.2646 -0.9417,-0.2646 -0.8875,0 -0.9189,-0.1436 -0.4628,-2.119 l 0.3153,-1.366 1.008,0.0961 c 1.027,0.0979 1.345,-0.1286 0.5891,-0.4188 -0.2302,-0.0883 -0.6469,-0.1606 -0.926,-0.1606 -0.6088,0 -0.6011,0.1481 -0.0828,-1.606 0.5547,-1.877 0.4891,-1.811 1.558,-1.57 0.5101,0.115 0.9275,0.108 0.9275,-0.0156 0,-0.1236 -0.4058,-0.3009 -0.9018,-0.3939 l -0.9018,-0.1692 1.267,-3.725 -1.209,0.1656 c -1.759,0.2411 -2.975,0.9097 -3.849,2.117 -0.8781,1.212 -1.729,3.794 -2.017,6.123 l -0.1967,1.588 -0.7043,-1.201 c -1.235,-2.105 -1.882,-4.428 -1.691,-6.068 0.3643,-3.131 2.283,-4.787 6.208,-5.359 1.752,-0.2553 2.069,-0.3729 1.82,-0.6732 -0.5041,-0.6075 -2.251,-1.384 -3.114,-1.384 -0.9356,0 -2.985,0.9734 -4.197,1.993 -1.071,0.9016 -1.049,0.5926 0.0978,-1.347 2.322,-3.928 4.889,-4.769 8.054,-2.638 1.172,0.7886 1.335,0.837 1.335,0.3964 0,-0.2762 -0.373,-0.9269 -0.829,-1.446 -0.4559,-0.5193 -0.7834,-0.9848 -0.7276,-1.035 0.2279,-0.2032 3.579,-0.6662 4.07,-0.5623 0.291,0.0617 0.9814,0.1847 1.534,0.2734 l 1.005,0.1612 -0.5405,0.8746 c -0.5647,0.9136 -1.406,3.084 -1.255,3.236 0.0482,0.0482 0.7609,-0.1489 1.584,-0.4382 1.865,-0.6555 2.657,-0.6537 4.118,0.009 0.9598,0.4355 4.448,3.618 4.211,3.842 -0.0402,0.0379 -0.966,-0.0917 -2.057,-0.2879 -1.091,-0.1962 -2.937,-0.358 -4.101,-0.3595 l -2.117,-0.003 1.567,0.6506 c 1.912,0.7936 2.466,1.266 3.095,2.634 0.5787,1.26 0.6407,5.043 0.1171,7.144 -0.356,1.429 -0.3457,1.439 -1.188,-1.196 -0.9576,-2.997 -2.931,-5.358 -5.295,-6.338 -0.4399,-0.1822 -0.9576,-0.2707 -1.151,-0.1967 -0.6115,0.2346 -2.466,9.353 -3.211,15.78 -0.2264,1.956 -0.5412,6.361 -0.6996,9.79 -0.1584,3.429 -0.3343,6.383 -0.3911,6.564 -0.0687,0.2203 -0.6802,0.3307 -1.831,0.3307 h -1.728 l 0.004,-2.315 z m 333.439,-4.7614 2.569,-0.0864 0.1642,-0.9827 c 0.2313,-1.385 0.3403,-1.624 0.3645,-0.8015 0.0114,0.3907 -0.0953,1.016 -0.2371,1.389 -0.2549,0.6703 -0.2899,0.678 -2.844,0.6233 l -2.586,-0.0554 z m -16.28,-0.5889 c -1.611,-0.1643 -2.79,-0.5366 -1.699,-0.5366 0.5297,0 0.5256,0.1676 0.1688,-6.907 -0.3197,-6.338 -0.8054,-10.87 -1.713,-15.98 -0.708,-3.987 -1.81,-8.778 -2.082,-9.05 -0.3332,-0.3332 -2.796,1.079 -3.964,2.272 -1.334,1.364 -2.273,3.085 -2.977,5.455 l -0.4715,1.588 -0.3201,-1.323 c -0.5152,-2.129 -0.4488,-6.153 0.1222,-7.408 0.5977,-1.314 0.9597,-1.617 2.855,-2.387 l 1.51,-0.6137 -0.9079,-0.17 c -0.8378,-0.157 -3.959,0.1275 -6.001,0.5468 -0.4729,0.0971 -0.8599,0.0687 -0.8599,-0.0632 0,-0.3948 2.977,-3.177 3.889,-3.635 1.132,-0.5679 2.955,-0.5365 4.574,0.0789 1.62,0.6154 1.652,0.4719 0.4334,-1.948 -0.7762,-1.542 -0.8364,-1.796 -0.463,-1.949 0.5957,-0.2442 4.502,-0.2233 5.405,0.0289 l 0.7428,0.2073 -0.809,1.021 c -1.264,1.595 -1.07,2.012 0.4844,1.045 2.477,-1.54 4.262,-1.478 6.133,0.2119 0.9885,0.893 3.07,3.964 2.842,4.193 -0.0594,0.0594 -0.6829,-0.3008 -1.386,-0.8004 -1.699,-1.208 -3.373,-1.831 -4.307,-1.602 -0.8445,0.2063 -2.723,1.428 -2.723,1.771 0,0.1257 0.5737,0.2286 1.275,0.2286 0.7013,0 1.922,0.1901 2.712,0.4224 4.519,1.328 5.624,5.525 2.832,10.76 l -0.846,1.587 -0.3318,-2.298 c -0.5696,-3.945 -2.153,-6.576 -4.362,-7.247 -1.069,-0.3247 -2.602,-0.6042 -2.602,-0.4743 0,0.0518 0.2926,0.8715 0.6502,1.822 0.6928,1.84 0.6271,2.04 -0.6718,2.04 -0.2791,0 -0.5075,0.1205 -0.5075,0.2677 0,0.1614 0.3957,0.2044 0.9958,0.1085 l 0.9958,-0.1592 0.4274,1.595 c 0.4592,1.714 0.3788,1.892 -0.8532,1.892 -0.2791,0 -0.5075,0.1282 -0.5075,0.2848 0,0.1671 0.4032,0.2501 0.9755,0.2008 0.9669,-0.0833 0.9785,-0.0724 1.318,1.237 0.4786,1.846 0.4633,1.902 -0.5735,2.097 -1.277,0.2396 -1.191,0.7275 0.0925,0.5223 l 1.019,-0.1629 0.3183,1.618 c 0.175,0.8898 0.2455,1.736 0.1565,1.88 -0.089,0.144 -0.5715,0.2618 -1.072,0.2618 -0.5008,0 -0.9104,0.1191 -0.9104,0.2646 0,0.1455 0.5199,0.2646 1.155,0.2646 h 1.155 l 0.3048,2.315 c 0.1676,1.273 0.442,4.899 0.6098,8.057 l 0.305,5.741 1.365,0.2117 -0.7276,0.0397 c -0.4528,0.0246 -0.7276,0.1896 -0.7276,0.4365 0,0.2183 -0.1488,0.38 -0.3307,0.3593 -0.1819,-0.0206 -1.134,-0.1194 -2.116,-0.2195 z m 10.7,-0.8016 c 0,-0.1455 -0.8037,-0.2875 -1.786,-0.3156 l -1.786,-0.051 1.677,-0.0945 c 0.9531,-0.0537 1.825,0.0283 2.02,0.19 0.2527,0.2098 0.3836,0.1784 0.4978,-0.1191 0.0929,-0.2421 0.4494,-0.3892 0.8908,-0.3676 0.5941,0.0291 0.6249,0.0576 0.1598,0.1482 -0.3168,0.0617 -0.7184,0.2836 -0.8923,0.4931 -0.3652,0.44 -0.7806,0.5019 -0.7806,0.1164 z m -108.747,-36.351 -10.45,-8 -4.63,-1.936 c -2.547,-1.065 -8.96,-3.582 -14.25,-5.593 l -9.622,-3.657 -5.892,0.5569 -15.88,-4.804 c -12.4,-3.754 -18.77,-5.516 -29.1,-8.06 l -13.23,-3.256 -9.986,-0.4825 c -5.492,-0.2654 -10.1,-0.5519 -10.24,-0.6367 -0.1435,-0.0887 0.2323,-1.836 0.8846,-4.113 l 1.134,-3.958 2.487,-0.494 c 1.368,-0.2717 2.528,-0.5344 2.58,-0.5836 0.0512,-0.0493 -0.0999,-0.6706 -0.3358,-1.381 -0.3998,-1.204 -0.5182,-1.32 -1.747,-1.713 -1.416,-0.453 -1.423,-0.4285 -0.2776,1.099 l 0.6802,0.9073 -0.6615,-0.2052 c -0.3638,-0.1129 -2.15,-0.3078 -3.969,-0.4332 -1.819,-0.1254 -3.959,-0.4078 -4.756,-0.6276 -1.284,-0.3544 -1.516,-0.355 -2.051,-0.005 -0.5712,0.3742 -0.6023,0.5584 -0.6023,3.564 v 3.169 h -3.704 v -3.704 c 0,-4.133 0.085,-3.982 -1.923,-3.424 -0.7246,0.2012 -1.265,0.635 -1.975,1.586 -0.5375,0.72 -1.067,1.309 -1.176,1.309 -0.109,0 -0.9571,-0.4167 -1.884,-0.926 -1.863,-1.024 -2.931,-1.147 -4.661,-0.5371 -0.6063,0.2139 -1.031,0.2734 -0.9437,0.1323 0.0872,-0.1411 0.0422,-0.2566 -0.1,-0.2566 -0.1422,0 -0.5245,0.7991 -0.8496,1.776 l -0.5909,1.776 -5.344,-5.629 -2.91,1.036 -9.26,-2.137 -16.13,0.004 -14.2,-2.161 -11.84,-5.039 3.191,-3.823 6.261,2.229 c 13.08,4.656 14.33,5.071 14.32,4.749 -0.005,-0.1758 -0.1795,-1.094 -0.3876,-2.039 -0.2081,-0.9459 -0.3825,-1.915 -0.3876,-2.154 -0.005,-0.2458 0.6778,-0.8766 1.576,-1.455 l 1.585,-1.021 0.002,-1.881 c 0.002,-1.746 0.1601,-2.267 2.204,-7.276 l 2.202,-5.395 1.568,-0.1866 c 0.8625,-0.1026 2.35,-0.2586 3.305,-0.3466 l 1.737,-0.16 3.141,-4.757 3.043,0.1526 c 1.673,0.0839 3.601,0.219 4.283,0.3 l 1.24,0.1475 0.2987,-1.147 c 0.1643,-0.6309 0.4112,-1.582 0.5488,-2.114 0.2048,-0.7915 0.8748,-1.496 3.697,-3.89 1.896,-1.608 3.451,-3.009 3.456,-3.113 0.005,-0.104 -1.248,-0.7506 -2.785,-1.437 -5.059,-2.259 -14.18,-7.628 -14.18,-8.346 0,-0.2584 0.342,-0.3755 1.124,-0.3848 1.037,-0.0123 0.9236,-0.0801 -1.456,-0.8699 -4.252,-1.412 -4.49,-2.27 -0.6453,-2.329 l 2.432,-0.0376 -1.72,-0.1879 c -0.9459,-0.1033 -2.375,-0.4839 -3.175,-0.8457 -3.176,-1.436 -2.69,-2.314 1.307,-2.361 l 2.529,-0.0298 -2.249,-0.3107 c -3.194,-0.4413 -5.688,-1.684 -5.145,-2.563 0.28,-0.4531 2.824,-0.1524 6.664,0.7877 6.507,1.593 12.9,2.41 18.85,2.41 4.685,0 5.018,-0.0751 5.788,-1.307 0.373,-0.596 1.087,-1.222 1.776,-1.557 0.6336,-0.3078 1.612,-0.9754 2.175,-1.484 0.663,-0.599 1.404,-0.9849 2.108,-1.097 1.021,-0.1633 1.071,-0.212 0.8394,-0.8214 -0.6574,-1.729 0.1164,-3.576 1.898,-4.53 2.477,-1.327 5.716,-0.2257 6.535,2.222 0.2894,0.8649 0.2842,1.187 -0.0325,1.994 l -0.3778,0.9618 1.215,0.1665 c 0.8854,0.1214 1.468,0.4108 2.149,1.067 0.5138,0.4952 1.53,1.246 2.257,1.668 0.7285,0.423 1.561,1.176 1.852,1.677 l 0.5292,0.9084 3.974,0.0957 c 2.186,0.0527 5.258,0.008 6.826,-0.0986 l 2.852,-0.1944 3.121,-2.034 c 2.182,-1.422 3.638,-2.174 4.838,-2.498 l 1.716,-0.4645 7.487,-18.04 c 4.118,-9.922 7.561,-18.12 7.651,-18.22 0.0899,-0.1005 11.05,1.477 24.35,3.506 13.3,2.029 24.39,3.688 24.63,3.688 0.2429,0 2.12,-1.31 4.17,-2.91 l 3.729,-2.91 h 3.25 l 3.131,-2.854 c 2.824,-2.573 3.604,-3.112 7.949,-5.49 l 4.818,-2.637 5.413,-6.678 c 2.977,-3.673 5.512,-6.739 5.634,-6.814 0.2062,-0.1274 4.088,4.911 4.687,6.084 0.1486,0.291 0.4715,1.363 0.7173,2.381 0.4464,1.85 0.4506,1.855 3.067,4.173 2.045,1.811 3.095,3.016 4.783,5.486 1.814,2.655 2.253,3.145 2.724,3.037 4.028,-0.9257 4.216,-0.9514 4.433,-0.6068 0.1199,0.1903 1.497,3.114 3.059,6.498 l 2.841,6.152 h 3.208 l 3.375,3.405 -0.5422,5.507 c -0.537,5.454 -0.5375,5.563 -0.0522,11.2 0.2695,3.129 0.4949,6.016 0.5009,6.416 l 0.0109,0.7276 h 3.969 v 12.7 l 2.183,0.004 c 1.201,0.002 2.335,0.1005 2.521,0.2185 0.2556,0.1622 0.32,1.208 0.2646,4.295 l -0.0733,4.081 -6.663,0.2646 3.622,11.24 c 1.992,6.185 4.414,13.13 5.382,15.44 0.9679,2.308 1.76,4.3 1.76,4.426 0,0.126 -0.7252,1.796 -1.612,3.711 -1.504,3.249 -1.869,3.79 -5.449,8.076 -2.111,2.526 -3.938,4.594 -4.062,4.594 -0.1234,0 -1.069,-0.3131 -2.101,-0.6958 -1.032,-0.3827 -1.929,-0.6437 -1.993,-0.58 -0.0637,0.0637 -0.8238,1.614 -1.689,3.445 l -1.573,3.329 -2.071,-0.491 c -1.139,-0.2701 -2.253,-0.4951 -2.475,-0.5001 -0.2472,-0.006 -0.8379,0.8656 -1.521,2.244 -0.6145,1.239 -1.117,2.298 -1.117,2.352 0,0.054 1.072,0.946 2.381,1.981 l 2.381,1.881 v 4.802 l 2.69,3.853 -1.111,2.221 c -0.6111,1.221 -1.156,2.27 -1.211,2.329 -0.055,0.059 -0.801,-0.1037 -1.658,-0.3632 -0.8569,-0.2594 -1.693,-0.4268 -1.857,-0.3719 -0.1647,0.0549 -1.367,0.9327 -2.671,1.951 l -2.372,1.851 -5.938,14.97 -2.496,2.77 c -1.373,1.523 -2.629,2.761 -2.792,2.749 -0.1628,-0.0111 -4.999,-3.62 -10.75,-8.02 z m 13.21,4.468 2.146,-2.381 5.885,-14.91 5.689,-4.525 1.53,0.5263 c 0.8413,0.2894 1.556,0.4962 1.587,0.4594 0.236,-0.2742 1.708,-3.42 1.708,-3.65 0,-0.16 -0.5358,-1.042 -1.191,-1.959 l -1.191,-1.669 v -4.779 l -4.998,-3.806 2.965,-5.956 2.141,0.4844 c 1.178,0.2664 2.272,0.4874 2.433,0.4912 0.1604,0.004 0.9875,-1.489 1.838,-3.317 0.8505,-1.828 1.624,-3.372 1.72,-3.431 0.0957,-0.0592 1.105,0.2509 2.243,0.689 1.675,0.645 2.128,0.7315 2.38,0.4548 0.171,-0.188 1.82,-2.155 3.665,-4.372 3.001,-3.606 3.524,-4.391 4.968,-7.458 l 1.614,-3.429 -1.809,-4.316 c -0.9949,-2.374 -3.441,-9.376 -5.435,-15.56 l -3.626,-11.24 -5.997,-0.2646 v -8.202 l 2.778,-0.16 v -6.468 c 0,-6.292 0.0143,-6.468 0.5292,-6.468 0.6571,0 0.6571,-0.004 0.0138,-7.276 -0.4861,-5.494 -0.4856,-5.616 0.0443,-10.94 l 0.5359,-5.383 -1.412,-1.43 c -1.405,-1.423 -1.421,-1.43 -3.043,-1.43 -0.9944,0 -1.728,-0.129 -1.88,-0.3307 -0.2157,-0.2852 -2.737,-5.655 -5.14,-10.95 l -0.7366,-1.622 -2.062,0.4889 c -1.134,0.2689 -2.241,0.4907 -2.459,0.4928 -0.2183,0.002 -1.34,-1.429 -2.493,-3.18 -1.74,-2.643 -2.576,-3.611 -4.921,-5.699 l -2.825,-2.515 -0.4739,-2.075 c -0.4184,-1.832 -0.7042,-2.388 -2.441,-4.747 -1.082,-1.47 -2.047,-2.667 -2.146,-2.661 -0.0983,0.007 -2.5,2.893 -5.338,6.414 l -5.159,6.402 -4.819,2.659 c -4.31,2.378 -5.168,2.972 -8.118,5.625 l -3.299,2.966 h -3.245 l -3.729,2.91 c -2.224,1.736 -3.969,2.91 -4.324,2.91 -0.3273,0 -11.17,-1.609 -24.1,-3.575 -12.93,-1.966 -23.73,-3.603 -24,-3.638 -0.4182,-0.0533 -1.645,2.698 -7.938,17.8 -4.094,9.824 -7.527,17.99 -7.631,18.15 -0.1034,0.1579 -0.9903,0.5042 -1.971,0.7696 -1.76,0.4763 -6.242,3.063 -5.65,3.26 0.4545,0.1515 5.146,-0.7021 8.735,-1.589 3.845,-0.9505 6.417,-1.124 6.555,-0.4422 0.1378,0.6813 -2.602,1.885 -5.1,2.241 l -2.117,0.3015 2.482,0.01 c 1.88,0.008 2.582,0.1095 2.893,0.4205 0.371,0.371 0.3658,0.46 -0.0537,0.9235 -0.6967,0.7698 -3.003,1.679 -4.792,1.89 -1.571,0.1849 -1.563,0.1873 0.7359,0.2231 1.878,0.0293 2.355,0.1186 2.488,0.4658 0.2173,0.5662 -0.2782,0.8425 -3.348,1.867 -2.376,0.7928 -2.455,0.8426 -1.378,0.8599 0.9416,0.0151 1.128,0.1002 1.055,0.4814 -0.1166,0.6087 -6.104,4.249 -11.39,6.927 -4.88,2.471 -7.782,3.455 -12.5,4.24 -1.892,0.3145 -3.714,0.6283 -4.049,0.6973 -0.5732,0.118 -0.5204,0.2239 0.8822,1.77 2.052,2.262 3.6,5.49 3.756,7.827 0.1066,1.606 0.0483,1.861 -0.6878,3.004 -1.184,1.838 -4.434,4.24 -8.542,6.314 l -1.545,0.7798 v 15.85 l 1.776,0.5485 c 0.9767,0.3017 2.078,0.489 2.447,0.4162 0.4352,-0.0858 2.198,0.4465 5.008,1.513 l 4.337,1.645 0.6446,1.81 c 0.3546,0.9954 0.5976,1.857 0.5401,1.914 -0.0575,0.0575 -1.279,0.3462 -2.714,0.6415 -1.435,0.2953 -2.648,0.5754 -2.695,0.6224 -0.1587,0.1587 -1.984,6.56 -1.893,6.639 0.0497,0.0426 4.674,0.3239 10.28,0.6251 l 10.19,0.5476 12.7,3.166 c 9.358,2.333 16.88,4.431 28.58,7.974 l 15.88,4.808 5.987,-0.5535 9.706,3.684 c 5.338,2.026 11.82,4.569 14.4,5.651 5.218,2.189 3.397,0.9605 18.2,12.27 3.856,2.948 7.148,5.331 7.316,5.295 0.1672,-0.0351 1.27,-1.135 2.45,-2.445 z m -65.06,-33.19 -1.984,-1.253 -3.836,0.3572 c -2.11,0.1965 -4.519,0.2845 -5.353,0.1956 -0.8429,-0.0898 -3.193,-0.7978 -5.292,-1.594 -3.121,-1.184 -4.589,-1.57 -8.478,-2.229 -3.381,-0.5727 -5.761,-1.157 -8.467,-2.078 -2.241,-0.7628 -4.513,-1.354 -5.616,-1.462 -4.653,-0.4545 -8.64,-1.032 -10.58,-1.533 -1.164,-0.3002 -4.319,-0.9868 -7.011,-1.526 l -4.895,-0.9798 0.0565,-0.7707 c 0.1476,-2.013 -0.1733,-1.881 5.034,-2.082 l 4.699,-0.1821 10.62,3.697 2.216,-0.5159 c 1.219,-0.2838 2.773,-0.859 3.455,-1.278 l 1.239,-0.7625 2.048,1.702 c 1.126,0.9363 2.155,1.768 2.285,1.849 0.1307,0.0808 1.004,-0.4632 1.941,-1.209 1.567,-1.247 1.784,-1.342 2.707,-1.181 0.5517,0.0961 2.202,0.8763 3.667,1.734 2.307,1.35 2.845,1.559 4.012,1.559 1.312,0 1.374,-0.0355 2.319,-1.323 0.5341,-0.7276 1.017,-1.323 1.073,-1.323 0.0562,0 0.7551,0.2888 1.553,0.6417 1.129,0.4994 1.535,0.843 1.83,1.55 0.3593,0.86 0.467,0.9183 2.023,1.094 1.841,0.2083 8.821,3.216 9.527,4.105 2.745,3.458 2.724,3.422 2.404,4.184 -0.1682,0.4002 -0.5101,0.9836 -0.7597,1.296 l -0.4539,0.5687 z m 2.333,-0.5675 c 0.3522,-0.564 0.2969,-0.6594 -2.201,-3.791 -0.4893,-0.6134 -7.383,-3.553 -8.731,-3.723 -2.342,-0.2956 -2.455,-0.3496 -2.78,-1.334 -0.2249,-0.6816 -0.559,-1.037 -1.243,-1.323 -1.336,-0.558 -1.445,-0.5206 -2.326,0.7943 l -0.7938,1.184 -1.674,0.006 c -1.565,0.005 -1.835,-0.0905 -4.154,-1.474 -1.364,-0.8141 -2.928,-1.581 -3.475,-1.705 -0.9448,-0.2131 -1.085,-0.1512 -2.802,1.236 l -1.808,1.461 -1.858,-1.542 c -2.933,-2.434 -2.688,-2.332 -3.854,-1.596 -0.5592,0.353 -2.095,0.8951 -3.414,1.205 l -2.397,0.5628 -5.266,-1.849 c -5.722,-2.009 -5.624,-1.994 -11.15,-1.676 -2.787,0.1606 -2.96,0.2036 -3.067,0.7638 -0.1071,0.5604 0.051,0.6259 2.821,1.169 1.614,0.3164 4.679,0.981 6.812,1.477 3.744,0.8705 7.571,1.464 12,1.859 1.486,0.1328 3.198,0.5703 5.76,1.472 2.729,0.9601 4.829,1.482 8.354,2.076 3.883,0.6542 5.381,1.046 8.547,2.234 2.217,0.8321 4.5,1.509 5.406,1.603 0.8623,0.0893 3.283,-0.007 5.38,-0.2132 l 3.812,-0.3755 1.612,1.023 c 1.868,1.185 2.029,1.216 2.49,0.4773 z m 39.97,0.0283 c -0.2333,-0.1399 -0.9394,-0.9221 -1.569,-1.738 -0.6297,-0.8161 -1.657,-1.837 -2.284,-2.268 -0.8354,-0.5748 -1.37,-1.257 -2.007,-2.559 -0.6366,-1.303 -1.007,-1.776 -1.393,-1.776 -0.3162,-2.6e-4 -0.5266,-0.1792 -0.5285,-0.4495 -0.006,-0.8082 -1.466,-2.065 -2.399,-2.065 -0.8046,0 -1.353,-0.5467 -1.047,-1.043 0.1313,-0.2125 -0.9875,-0.5945 -3.135,-1.07 -1.094,-0.2425 -1.365,-0.2202 -1.769,0.1456 -0.5517,0.4993 -1.04,0.3054 -1.04,-0.4132 0,-0.3942 -0.2608,-0.531 -1.257,-0.6596 -0.6912,-0.0893 -1.479,-0.2081 -1.75,-0.264 -0.2714,-0.0559 -0.715,0.0366 -0.9856,0.2056 -0.395,0.2467 -0.5587,0.221 -0.8294,-0.13 -0.2257,-0.2927 -1.825,-0.7484 -4.835,-1.378 -2.474,-0.5172 -5.085,-1.122 -5.803,-1.344 -0.9752,-0.3015 -1.912,-0.3614 -3.704,-0.2368 -2.528,0.1758 -5.33,-0.139 -7.488,-0.8413 -2.82,-0.9176 -7.303,-3.366 -8.778,-4.794 -0.7988,-0.7738 -1.663,-1.407 -1.919,-1.407 -0.5307,0 -1.127,-0.927 -0.8672,-1.348 0.1479,-0.2394 -1.869,-2.362 -4.536,-4.773 -0.4241,-0.3834 -1.047,-1.067 -1.385,-1.519 l -0.6136,-0.822 0.7957,-8.402 -0.7313,-4.151 c -0.6683,-3.794 -0.7998,-4.22 -1.527,-4.947 -1.411,-1.411 -4.1,-1.51 -5.41,-0.2005 -0.6925,0.6925 -0.599,1.994 0.1341,1.868 0.5666,-0.0978 0.9734,0.3901 0.7691,0.9224 -0.0749,0.1951 -0.302,0.3547 -0.5047,0.3547 -0.5528,0 -0.4605,1.389 0.2683,4.038 1.268,4.608 1.209,6.494 -0.2522,8.111 -0.8014,0.8871 -0.8612,1.066 -0.6579,1.967 0.1267,0.5616 0.1198,1.358 -0.0158,1.838 -0.2884,1.02 -2.744,3.625 -3.417,3.625 -0.3747,0 -0.6879,-0.6206 -1.427,-2.827 l -0.9466,-2.827 0.6586,-1.439 c 0.8605,-1.88 0.8321,-3.143 -0.1352,-6.005 -0.4401,-1.302 -0.7938,-2.907 -0.7938,-3.603 0,-1.193 -0.4614,-2.086 -1.077,-2.086 -0.501,0 -0.2506,-1.286 0.2835,-1.455 0.453,-0.1438 0.5292,-0.4003 0.5292,-1.783 0,-1.417 1.4,-13.88 1.739,-15.49 0.0703,-0.3324 0.4221,-0.7384 0.7819,-0.9024 0.3636,-0.1657 0.6542,-0.5226 0.6542,-0.8037 0,-0.3732 0.1582,-0.4849 0.6038,-0.4265 0.3321,0.0435 1.044,-0.1805 1.582,-0.4979 2.537,-1.497 3.515,-1.444 10.62,0.5777 2.28,0.6485 4.857,1.319 5.727,1.49 1.809,0.3558 2.08,0.7842 1.596,2.525 -0.1562,0.5627 -0.2847,1.289 -0.2855,1.613 l -0.003,0.5904 3.692,-0.168 c 4.573,-0.208 5.444,0.05 7.403,2.194 2.924,3.199 3.869,6.715 4.225,15.71 0.2732,6.908 0.5639,8.066 2.59,10.32 1.316,1.464 2.577,2.229 4.163,2.527 0.7281,0.1366 3.37,1.87 9.38,6.156 4.602,3.281 8.69,6.016 9.086,6.078 0.3954,0.0621 0.7816,0.3082 0.8581,0.5471 0.1721,0.537 1.919,1.697 5.038,3.346 1.31,0.6923 3.767,2.253 5.462,3.468 2.436,1.747 3.525,2.35 5.207,2.881 2.171,0.6857 3.488,1.718 3.486,2.731 -0.003,0.7038 -0.9294,2.038 -1.968,2.83 -0.8711,0.6645 -0.9201,0.7688 -0.5517,1.176 0.569,0.6288 0.5114,1.331 -0.1092,1.331 -0.2824,0 -0.5966,-0.1343 -0.698,-0.2985 -0.1746,-0.2825 -2.333,-0.193 -3.888,0.1612 -0.3237,0.0737 -0.7795,0.0195 -1.013,-0.1204 z m 3.665,-0.9793 c 0.6989,-0.0962 1.124,-0.2917 1.124,-0.5164 0,-0.1989 0.5953,-0.9354 1.323,-1.637 0.7276,-0.7013 1.323,-1.514 1.323,-1.807 0,-0.9811 -1.775,-2.059 -4.254,-2.584 -0.3753,-0.0794 -2.102,-1.168 -3.836,-2.42 -1.735,-1.252 -4.519,-3.005 -6.188,-3.895 -1.669,-0.8908 -3.469,-2.013 -4.001,-2.493 -0.5317,-0.4804 -1.1,-0.8734 -1.264,-0.8734 -0.164,0 -4.223,-2.798 -9.021,-6.218 -5.229,-3.727 -8.966,-6.219 -9.328,-6.22 -1.089,-0.005 -3.228,-1.216 -4.399,-2.491 -2.274,-2.477 -2.909,-5.083 -2.941,-12.07 -0.0315,-6.883 -1.363,-11.39 -4.225,-14.31 -1.929,-1.967 -3.173,-2.27 -7.451,-1.818 -1.604,0.1695 -3.103,0.2361 -3.332,0.1482 -0.4279,-0.1642 -0.4227,-0.4247 0.0708,-3.524 0.1684,-1.058 0.1417,-1.125 -0.4511,-1.126 -0.3466,-0.001 -1.94,-0.3599 -3.541,-0.7972 -10.17,-2.778 -10.31,-2.794 -12.7,-1.491 -3.559,1.937 -3.52,1.9 -3.707,3.563 -0.0931,0.8279 -0.4518,3.767 -0.7971,6.532 -1.174,9.399 -1.109,11.98 0.4143,16.57 0.9612,2.893 0.9846,4.083 0.1142,5.801 l -0.6684,1.319 0.7066,2.31 c 0.3886,1.271 0.7958,2.411 0.9048,2.533 0.2288,0.2575 2.401,-2 2.713,-2.819 0.1149,-0.3022 0.0921,-1.092 -0.0506,-1.755 -0.2522,-1.171 -0.2324,-1.233 0.6945,-2.187 1.371,-1.411 1.447,-2.885 0.3861,-7.435 -1.619,-6.942 -1.609,-7.358 0.2163,-8.596 0.7867,-0.5338 1.174,-0.6131 2.577,-0.5267 1.732,0.1067 2.628,0.5642 3.566,1.82 0.302,0.4045 0.741,2.055 1.157,4.349 0.8578,4.732 0.8289,4.103 0.405,8.827 -0.3246,3.618 -0.3205,4.096 0.0366,4.296 0.221,0.1237 0.4757,0.5191 0.566,0.8786 0.0902,0.3595 0.6691,1.002 1.286,1.428 1.829,1.262 4.165,3.872 4.165,4.652 0,0.544 0.1288,0.6811 0.6399,0.6811 0.4435,0 0.8121,0.2787 1.201,0.908 0.7061,1.142 2.298,2.208 5.832,3.901 4.013,1.923 5.962,2.36 10.32,2.311 2.604,-0.0289 3.894,0.0704 4.762,0.3664 1.547,0.5276 11.01,2.463 13.23,2.706 0.9459,0.1036 2.137,0.3399 2.646,0.5251 0.509,0.1852 1.64,0.4804 2.514,0.656 2.329,0.4684 3.503,1.07 5.424,2.781 1.246,1.109 2.012,2.084 2.778,3.537 0.7601,1.441 1.36,2.208 2.129,2.722 0.589,0.3936 1.649,1.452 2.356,2.351 1.278,1.627 1.291,1.634 2.369,1.462 0.5961,-0.0955 1.59,-0.2432 2.208,-0.3284 z m 5.755,-10.2 c -0.5821,-0.3167 -1.594,-0.6425 -2.249,-0.724 -0.8853,-0.1101 -1.182,-0.2591 -1.159,-0.5811 0.0336,-0.4549 -2.921,-1.784 -4.303,-1.936 -0.3846,-0.0422 -0.8087,-0.2722 -0.9423,-0.511 -0.1336,-0.2388 -1.218,-0.9211 -2.41,-1.516 -1.192,-0.595 -2.546,-1.367 -3.009,-1.715 -0.4632,-0.3481 -1.016,-0.6328 -1.228,-0.6328 -0.2124,0 -0.4595,-0.191 -0.549,-0.4243 -0.0896,-0.2334 -0.3256,-0.3619 -0.5246,-0.2855 -0.2113,0.0811 -0.4827,-0.1267 -0.6526,-0.4998 -0.1969,-0.4322 -0.4778,-0.6178 -0.869,-0.5744 -0.441,0.049 -0.6308,-0.124 -0.8004,-0.7296 -0.1471,-0.5253 -0.6474,-1.073 -1.479,-1.62 -0.6912,-0.4543 -2.805,-1.845 -4.696,-3.09 -1.892,-1.245 -4.305,-2.946 -5.362,-3.78 -1.776,-1.401 -1.971,-1.491 -2.554,-1.178 -0.3475,0.186 -0.7622,0.2575 -0.9216,0.159 -0.4001,-0.2473 -0.3661,-1.471 0.0409,-1.472 0.1819,-5.3e-4 -0.0562,-0.2369 -0.5292,-0.5253 -0.473,-0.2884 -0.8599,-0.6417 -0.8599,-0.7852 0,-0.1435 -0.387,-0.3594 -0.8599,-0.4797 -0.473,-0.1203 -0.9655,-0.4512 -1.095,-0.7352 -0.1291,-0.284 -0.7971,-0.9585 -1.485,-1.499 l -1.25,-0.9825 -0.1311,-3.861 c -0.121,-3.565 -0.3913,-4.868 -0.8543,-4.119 -0.4087,0.6613 -0.6013,0.2097 -0.3568,-0.8368 0.1494,-0.6397 0.2098,-3.204 0.14,-5.947 -0.1205,-4.739 -0.135,-4.839 -0.8334,-5.755 -0.3909,-0.5125 -0.8687,-0.9318 -1.062,-0.9318 -0.1931,0 -0.4992,-0.1786 -0.6804,-0.3969 -0.2276,-0.2742 -0.2376,-0.3969 -0.0324,-0.3969 0.5978,0 0.2686,-0.647 -0.8979,-1.765 -1.048,-1.004 -1.258,-1.105 -1.713,-0.8212 -0.7199,0.4496 -1.323,-0.1082 -0.8815,-0.8153 0.2576,-0.4124 0.1205,-0.594 -1.003,-1.33 -1.987,-1.301 -4.502,-2.412 -5.46,-2.413 -0.5577,-1.4e-4 -0.8599,-0.1295 -0.8599,-0.3681 0,-0.619 -4.438,-1.674 -14.55,-3.461 -2.983,-0.5269 -5.781,-1.12 -6.218,-1.317 -0.4366,-0.1975 -1.121,-0.4871 -1.521,-0.6435 -0.421,-0.1646 -1.121,-0.8996 -1.662,-1.745 -0.5141,-0.8036 -1.08,-1.475 -1.257,-1.492 -0.1774,-0.0168 -0.5012,-0.0465 -0.7195,-0.0661 -0.2608,-0.0234 -0.3733,-0.2687 -0.3282,-0.7157 0.055,-0.5442 -0.4073,-1.16 -2.315,-3.082 -1.311,-1.321 -2.384,-2.601 -2.384,-2.843 0,-1.862 1.967,-2.569 8.524,-3.062 2.079,-0.1564 4.137,-0.3943 4.573,-0.5287 0.8945,-0.2753 7.332,-0.9245 13.1,-1.321 2.11,-0.1451 6.277,-0.4579 9.26,-0.6952 3.5,-0.2783 8.24,-0.4244 13.36,-0.4117 9.133,0.0226 11.32,0.1114 11.82,0.4795 0.1954,0.1452 1.248,0.5407 2.34,0.8788 1.091,0.3381 2.342,0.8028 2.778,1.033 0.5852,0.3081 1.394,0.3986 3.08,0.3447 2.923,-0.0936 4.482,0.5141 6.19,2.414 3.353,3.73 2.136,9.411 -2.485,11.6 -2.548,1.205 -6.097,0.5892 -8.197,-1.423 -0.9847,-0.9432 -2.159,-3.054 -2.159,-3.88 0,-0.2959 -0.07,-0.538 -0.1554,-0.538 -0.0855,0 -0.9189,0.427 -1.852,0.9488 -2.803,1.567 -2.788,1.585 4.668,5.636 l 6.364,3.458 10.07,-4.03 1.6,0.7646 c 0.8798,0.4205 1.707,0.7646 1.837,0.7646 0.1307,0 0.3226,0.1202 0.4264,0.2671 0.1038,0.1469 0.7246,0.6124 1.379,1.035 0.6544,0.4226 2.059,1.483 3.12,2.358 1.061,0.875 2.192,1.609 2.514,1.632 0.3535,0.0253 0.6144,0.2424 0.6612,0.5502 0.0427,0.2806 0.859,1.042 1.821,1.699 0.9591,0.6548 2.492,1.885 3.407,2.734 0.9149,0.8488 1.732,1.533 1.817,1.521 0.5084,-0.0724 0.6545,0.0392 0.7302,0.5575 0.0479,0.3283 0.8298,1.196 1.804,2.003 3.392,2.808 5.572,4.886 6.4,6.103 0.4631,0.6805 1.898,2.388 3.189,3.794 l 2.347,2.556 -0.9734,1.942 c -2.725,5.436 -5.205,8.5 -7.92,9.788 -0.8731,0.4139 -1.715,0.7527 -1.871,0.7528 -0.1557,1.1e-4 -1.116,-1.161 -2.135,-2.579 -8.247,-11.49 -8.15,-11.36 -12.07,-16.04 -1.595,-1.906 -3.149,-2.542 -6.217,-2.546 -2.015,-0.002 -2.744,0.1174 -4.151,0.6805 -0.998,0.3995 -1.883,0.9522 -2.131,1.331 -0.2336,0.3565 -0.5274,0.5848 -0.6529,0.5073 -0.1255,-0.0776 -2.263,1.235 -4.751,2.916 -3.734,2.524 -4.523,3.167 -4.523,3.688 0,0.5135 -0.1549,0.646 -0.8337,0.7135 -1.388,0.138 -1.947,1.185 -1.929,3.609 0.0185,2.444 0.3755,3.78 1.439,5.386 1.297,1.959 4.13,4.707 5.039,4.888 0.4994,0.0999 0.9419,0.4239 1.165,0.8533 0.8337,1.602 1.521,1.943 4.437,2.199 1.496,0.1313 4.149,0.418 5.895,0.6371 1.746,0.2191 4.604,0.5574 6.35,0.7518 3.966,0.4413 5.306,0.7991 6.148,1.641 0.5551,0.5551 0.64,0.836 0.5209,1.724 -0.1842,1.374 -2.055,5.267 -3.366,7.004 -1.724,2.285 -4.527,3.218 -6.478,2.156 z m 4.158,-0.8984 c 1.318,-0.6814 3.355,-3.821 4.709,-7.255 0.8839,-2.242 0.093,-2.9 -4.122,-3.429 -1.3,-0.1631 -4.09,-0.5244 -6.2,-0.8029 -2.11,-0.2784 -4.968,-0.5749 -6.35,-0.6588 -3.467,-0.2104 -4.61,-0.5447 -5.56,-1.627 -0.4346,-0.4949 -0.7901,-0.9908 -0.7901,-1.102 0,-0.1112 -0.4135,-0.3518 -0.9189,-0.5345 -1.037,-0.3751 -4.009,-3.27 -5.196,-5.06 -1.061,-1.601 -1.654,-3.725 -1.666,-5.965 -0.0119,-2.196 0.5874,-3.491 1.882,-4.067 0.4568,-0.2033 0.8824,-0.5679 0.9458,-0.8103 0.155,-0.5929 10.49,-7.583 12.49,-8.446 1.387,-0.599 1.955,-0.6862 4.498,-0.6892 2.651,-0.003 3.03,0.0599 4.257,0.7072 0.7407,0.3908 1.693,1.116 2.117,1.611 2.578,3.015 5.326,6.591 9.094,11.83 2.353,3.274 4.44,6.175 4.637,6.445 0.3465,0.4754 0.4061,0.4698 1.769,-0.1661 2.501,-1.168 4.49,-3.502 6.927,-8.131 l 1.462,-2.778 -2.498,-2.76 c -1.374,-1.518 -2.498,-2.865 -2.498,-2.992 0,-0.4015 -2.689,-3.1 -4.895,-4.912 -1.164,-0.9564 -3.25,-2.848 -4.636,-4.204 -1.386,-1.356 -3.172,-2.897 -3.969,-3.424 -0.797,-0.527 -1.807,-1.292 -2.243,-1.698 -0.436,-0.406 -1.344,-1.135 -2.017,-1.619 -0.6726,-0.4839 -1.889,-1.416 -2.703,-2.07 -1.482,-1.193 -2.821,-2.026 -5.381,-3.351 l -1.369,-0.7085 -11.55,4.704 -3.175,0.009 c -3.118,0.008 -3.205,-0.008 -4.828,-0.8913 -2.836,-1.544 -4.106,-3.802 -3.981,-7.081 l 0.0773,-2.033 2.187,-1.29 c 2.33,-1.374 5.572,-2.306 8.062,-2.317 0.6892,-0.003 1.782,-0.1472 2.428,-0.3201 1.159,-0.3099 1.17,-0.3243 0.8179,-1.006 -0.5894,-1.14 -2.619,-2.825 -4.607,-3.827 -2.034,-1.024 -5.432,-2.222 -6.904,-2.433 -1.178,-0.1688 -8.096,-0.6347 -10.19,-0.686 -2.286,-0.0561 -13.89,0.5429 -16.54,0.854 -1.237,0.1452 -3.321,0.27 -4.63,0.2775 -1.31,0.007 -3.274,0.1242 -4.366,0.2593 -1.092,0.1351 -3.532,0.3707 -5.424,0.5236 -1.892,0.1528 -3.89,0.4003 -4.441,0.5498 -0.5507,0.1495 -2.932,0.4359 -5.292,0.6364 -6.118,0.5198 -8.127,1.065 -8.127,2.205 0,0.257 0.7894,1.237 1.754,2.177 0.9649,0.9402 2.06,2.126 2.434,2.635 0.3741,0.5093 0.9837,1.229 1.355,1.599 0.3709,0.3699 1.044,1.203 1.496,1.852 1.123,1.612 2.391,2.026 10.82,3.532 9.802,1.751 13.68,2.896 17.99,5.315 1.938,1.087 5.455,4.089 5.966,5.092 0.2056,0.4038 0.7929,1.258 1.305,1.899 0.887,1.11 0.9391,1.292 1.101,3.836 0.0937,1.469 0.1848,3.802 0.2023,5.185 0.019,1.497 0.1964,2.986 0.4385,3.681 0.2395,0.6878 0.4719,2.612 0.5655,4.682 l 0.1589,3.515 1.318,1.072 c 0.7251,0.5898 1.488,1.072 1.695,1.072 0.2073,0 0.307,0.1131 0.2216,0.2513 -0.0854,0.1382 0.1159,0.3945 0.4474,0.5694 0.3315,0.175 0.8662,0.5679 1.188,0.8732 1.621,1.537 5.281,4.228 10.45,7.687 2.724,1.822 5.149,3.612 5.388,3.977 0.2395,0.3655 0.5753,0.6645 0.7463,0.6645 0.171,0 0.8371,0.4762 1.48,1.058 0.6432,0.5821 1.271,1.058 1.396,1.058 0.125,0 0.6057,0.2847 1.069,0.6326 0.4632,0.3479 1.735,1.076 2.827,1.617 1.091,0.5414 2.184,1.16 2.428,1.376 0.2442,0.2152 1.427,0.7318 2.629,1.148 1.202,0.4161 2.515,1.001 2.919,1.299 0.4036,0.2984 0.8874,0.5479 1.075,0.5545 0.1878,0.007 0.8772,0.3038 1.532,0.6605 1.305,0.7111 2.866,0.6964 4.29,-0.0404 z m -19.79,-54.84 c 0.5591,-0.2192 0.6414,-0.1685 -6.872,-4.227 -2.191,-1.184 -4.066,-2.152 -4.167,-2.152 -0.4642,0 -0.1016,1.853 0.6028,3.082 0.9276,1.617 1.925,2.477 2.653,2.287 0.3374,-0.0882 0.5839,0.0225 0.6951,0.3123 0.0948,0.247 0.4236,0.5506 0.7308,0.6747 0.6882,0.278 5.661,0.2963 6.357,0.0233 z m 3.047,-5.733 c 2.17,-1.181 3.459,-3.268 3.456,-5.598 -0.003,-1.911 -0.4221,-3.055 -1.621,-4.418 -1.452,-1.649 -4.173,-3.071 -3.347,-1.749 0.3918,0.6274 -0.0405,1.23 -0.701,0.9761 -0.461,-0.1769 -0.5762,-1.234 -0.1345,-1.234 0.1541,0 0.2066,-0.1191 0.1167,-0.2646 -0.2083,-0.337 -1.727,-0.337 -2.249,0 -0.2238,0.1446 -0.263,0.2582 -0.0899,0.2605 0.1688,0.002 0.8832,0.4598 1.588,1.017 1.29,1.02 2.91,3.518 2.604,4.014 -0.0902,0.146 -0.5439,0.267 -1.008,0.269 -1.411,0.006 -2.092,0.2699 -1.753,0.6786 0.383,0.4615 0.0924,0.9053 -0.5928,0.9053 -0.438,0 -0.5197,-0.1292 -0.4179,-0.6615 0.1096,-0.5734 0.0345,-0.658 -0.5645,-0.6351 -1.151,0.0439 -2.053,0.3658 -1.676,0.5985 0.1828,0.113 0.2639,0.3162 0.1802,0.4517 -0.2406,0.3892 -1.395,0.2867 -1.637,-0.1454 -0.1782,-0.3185 -0.4064,-0.34 -1.221,-0.1151 -0.9525,0.263 -0.9929,0.3181 -0.8204,1.119 0.518,2.407 2.4,4.429 4.878,5.241 1.223,0.4012 3.583,0.0666 5.011,-0.7104 z m 24.57,10.47 c -2.272,-1.892 -4.323,-3.44 -4.559,-3.44 -0.2353,0 -0.5689,-0.3096 -0.7413,-0.6879 -0.256,-0.5619 -0.2276,-0.9133 0.1552,-1.918 0.7316,-1.921 0.7817,-2.156 0.4581,-2.156 -0.4442,0 -10.78,-4.24 -11.33,-4.648 -0.4152,-0.3082 -0.4232,-0.3905 -0.0708,-0.7343 0.3487,-0.3402 1.071,-0.2791 5.953,0.5038 3.056,0.49 5.943,0.8951 6.416,0.9002 l 0.8599,0.009 v -2.926 c 0,-3.361 -0.3721,-5.278 -1.024,-5.274 -0.2374,0.002 -1.899,0.2291 -3.692,0.5054 -2.349,0.3619 -3.353,0.6289 -3.591,0.9544 -0.2802,0.3832 -0.4134,0.4002 -0.875,0.112 -0.4474,-0.2794 -0.9867,-0.2668 -3.023,0.0702 -2.616,0.433 -3.51,0.2892 -3.351,-0.5385 0.0529,-0.2754 0.3542,-0.4552 0.79,-0.4716 0.6485,-0.0243 11.96,-4.695 12.49,-5.156 0.3173,-0.2775 -1.397,-3.276 -2.753,-4.818 -0.8853,-1.006 -1.184,-1.199 -1.477,-0.9554 -0.2789,0.2314 -0.4642,0.2246 -0.7692,-0.0286 -0.326,-0.2706 -0.4883,-0.2594 -0.8599,0.0592 -0.2519,0.216 -1.589,1.316 -2.972,2.445 -1.382,1.129 -2.633,2.189 -2.778,2.356 -0.1455,0.1667 -0.8004,0.7396 -1.455,1.273 -0.6548,0.5335 -1.592,1.343 -2.082,1.799 -1.188,1.106 -1.755,0.9793 -1.755,-0.3917 0,-0.8995 0.0829,-1.055 0.5631,-1.055 0.417,0 1.567,-1.288 4.432,-4.965 2.128,-2.731 3.869,-5.061 3.869,-5.179 0,-0.118 -0.9823,-0.752 -2.183,-1.41 -1.56,-0.8551 -2.296,-1.127 -2.58,-0.9526 -0.5596,0.3438 -1.85,-0.1988 -1.86,-0.7824 -0.008,-0.4305 -0.0407,-0.4269 -0.3969,0.044 -0.2136,0.2825 -0.3885,0.7494 -0.3885,1.038 0,0.2886 -0.1696,0.7119 -0.3769,0.9416 -0.62,0.6871 -2.309,5.112 -2.316,6.067 -0.004,0.5257 -0.2205,1.101 -0.5329,1.413 -0.526,0.526 -0.5259,0.5276 0.0265,1.042 0.7306,0.6807 0.7107,1.29 -0.0421,1.284 -0.3274,-0.002 -0.7269,-0.0915 -0.8877,-0.1984 -0.3593,-0.2389 -0.9852,-2.089 -0.8052,-2.38 0.0719,-0.1163 0.4528,-2.454 0.8465,-5.194 0.8108,-5.644 0.8335,-5.547 -1.257,-5.372 -0.6842,0.0572 -1.339,0.0155 -1.455,-0.0925 -0.2753,-0.256 -4.312,0.017 -4.312,0.2916 0,0.1155 0.4294,2.749 0.9543,5.852 0.5249,3.103 1.014,6.029 1.087,6.502 0.1099,0.7104 0.0475,0.8592 -0.359,0.8558 -0.2706,-0.002 -0.611,-0.0915 -0.7566,-0.1984 -0.5446,-0.4001 -1.426,-1.872 -1.406,-2.347 0.0249,-0.5812 -3.729,-10.15 -3.979,-10.15 -0.4436,0.0108 -6.245,3.355 -6.478,3.734 -0.2113,0.3438 0.2079,1.014 2.067,3.307 1.283,1.582 2.453,3.03 2.6,3.218 0.5606,0.7159 -0.2034,0.8712 -2.21,0.4491 -1.664,-0.3501 -2.251,-0.636 -3.908,-1.905 -2.496,-1.912 -3.066,-1.957 -3.901,-0.3075 -0.4978,0.9823 -0.8403,1.312 -1.63,1.569 -0.5496,0.1788 -1.234,0.4868 -1.521,0.6843 -0.6884,0.4738 -1.442,0.4564 -1.631,-0.0377 -0.114,-0.297 -0.5893,-0.3969 -1.889,-0.3969 -1.119,0 -1.885,-0.1325 -2.155,-0.3726 -0.2297,-0.2049 -1.549,-0.7584 -2.931,-1.23 -1.382,-0.4716 -2.685,-1.015 -2.894,-1.208 -0.3259,-0.3002 -0.1388,-0.7003 1.312,-2.805 0.9309,-1.35 1.995,-2.895 2.365,-3.434 0.8878,-1.293 1.272,-1.41 2.099,-0.639 3.248,3.03 3.901,3.596 4.156,3.599 0.1601,0.002 0.9025,-0.6995 1.65,-1.559 1.186,-1.363 3.467,-3.273 4.947,-4.141 0.4296,-0.252 0.2852,-0.5332 -1.478,-2.879 l -1.954,-2.6 0.8341,-0.6924 c 0.4587,-0.3808 2.11,-1.206 3.669,-1.835 2.319,-0.9344 2.893,-1.079 3.152,-0.7938 0.174,0.1918 0.7091,1.48 1.189,2.862 0.4799,1.382 0.8971,2.545 0.9271,2.583 0.03,0.0383 0.8488,-0.2294 1.82,-0.5948 1.45,-0.546 5.568,-1.459 6.579,-1.459 0.2742,0 0.0773,-2.445 -0.3604,-4.477 -0.1951,-0.9056 -0.1693,-1.253 0.1139,-1.536 0.4596,-0.4596 4.661,-0.7403 6.139,-0.41 l 1.058,0.2365 -0.1768,6.371 1.969,0.1489 c 1.171,0.0885 2.919,0.4803 4.312,0.9659 1.288,0.4493 2.365,0.817 2.393,0.817 0.0276,0 0.4901,-1.361 1.028,-3.024 0.5377,-1.663 1.123,-3.08 1.302,-3.149 0.2936,-0.1127 6.316,2.969 6.854,3.507 0.125,0.125 -0.5525,1.39 -1.516,2.831 l -1.742,2.605 1.255,0.6311 c 0.6905,0.3471 2.215,1.609 3.387,2.805 l 2.131,2.173 2.352,-1.808 c 1.293,-0.9946 2.543,-1.808 2.778,-1.808 0.235,0 0.7902,0.387 1.235,0.8599 1.352,1.437 4.368,5.73 4.207,5.99 -0.0829,0.1341 -1.46,0.7478 -3.061,1.364 -1.601,0.616 -2.91,1.194 -2.91,1.284 0,0.3728 2.435,8.11 2.599,8.26 0.0984,0.0899 1.648,-0.0193 3.443,-0.2426 2.812,-0.3498 3.298,-0.3541 3.507,-0.0312 0.1342,0.2075 0.2125,3.063 0.1752,6.394 l -0.0674,6.019 3.297,-4.5e-4 0.0712,-5.887 0.0712,-5.887 6.482,-0.1486 v 6.358 c 0,6.243 -0.01,6.358 -0.5449,6.358 -0.5309,0 -0.5436,0.1163 -0.4941,4.534 0.0458,4.09 0.005,4.56 -0.4166,4.795 -0.2571,0.1439 -3.458,0.3145 -7.113,0.3791 -6.108,0.1081 -6.689,0.1588 -7.192,0.6285 -0.3004,0.281 -0.6626,0.5109 -0.8048,0.5109 -0.1422,0 -2.118,-1.548 -4.389,-3.44 z m 5.734,1.011 c 0.6544,-0.8994 1.149,-1.676 1.099,-1.726 -0.0501,-0.0501 -1.443,-0.5437 -3.095,-1.097 l -3.004,-1.006 -0.0552,-1.038 c -0.0811,-1.526 0.5968,-3.749 1.202,-3.941 0.2752,-0.0874 0.58,-0.476 0.6773,-0.8636 0.0973,-0.3876 0.4568,-0.9642 0.799,-1.281 l 0.6221,-0.5766 2.601,0.4853 c 1.43,0.2669 2.869,0.4906 3.196,0.497 l 0.5953,0.0118 v -10.66 l -1.521,0.1699 c -0.8367,0.0934 -2.415,0.2446 -3.507,0.3358 l -1.986,0.166 -1.43,-4.675 c -0.9128,-2.984 -1.338,-4.767 -1.176,-4.929 0.1396,-0.1396 1.433,-0.7125 2.874,-1.273 1.441,-0.5606 2.65,-1.126 2.688,-1.257 0.0838,-0.2933 -3.59,-5.134 -4.156,-5.476 -0.3113,-0.1884 -1.005,0.2061 -2.874,1.635 -1.355,1.036 -2.526,1.884 -2.603,1.884 -0.0763,0 -1.069,-0.9944 -2.206,-2.21 -1.32,-1.411 -2.597,-2.487 -3.532,-2.977 -0.8057,-0.4217 -1.525,-0.922 -1.597,-1.112 -0.0729,-0.1898 0.5857,-1.413 1.464,-2.719 0.8779,-1.306 1.529,-2.482 1.448,-2.614 -0.163,-0.2638 -5.118,-2.922 -5.447,-2.922 -0.1126,0 -0.5285,0.9823 -0.9241,2.183 -1.346,4.084 -1.344,4.082 -4.452,2.954 -1.067,-0.3874 -2.9,-0.7812 -4.225,-0.9079 -1.288,-0.123 -2.404,-0.2872 -2.482,-0.3647 -0.0776,-0.0776 -0.0351,-1.519 0.0944,-3.204 0.2776,-3.612 0.5255,-3.37 -3.341,-3.251 -2.325,0.0717 -2.511,0.1173 -2.479,0.6067 0.019,0.291 0.1658,1.599 0.3259,2.906 0.2265,1.85 0.2188,2.442 -0.0348,2.672 -0.1792,0.1623 -1.327,0.4413 -2.55,0.6199 -1.223,0.1786 -3.227,0.6876 -4.452,1.131 -1.263,0.4568 -2.326,0.7061 -2.455,0.5753 -0.1247,-0.127 -0.6456,-1.406 -1.158,-2.842 -0.512,-1.436 -0.9744,-2.655 -1.028,-2.708 -0.103,-0.103 -3.839,1.43 -5.199,2.133 -0.4483,0.2318 -0.8152,0.5417 -0.8152,0.6886 0,0.1469 0.7739,1.293 1.72,2.547 0.9459,1.254 1.72,2.439 1.72,2.633 0,0.1943 -0.506,0.6717 -1.124,1.061 -1.643,1.034 -3.098,2.216 -4.019,3.262 -0.4454,0.5062 -1.183,1.335 -1.639,1.841 l -0.8292,0.9204 -0.8906,-0.7035 c -0.4898,-0.3869 -1.657,-1.41 -2.594,-2.274 l -1.704,-1.571 -0.6896,0.9626 c -2.442,3.409 -3.498,5.113 -3.286,5.304 0.1318,0.1192 1.308,0.5975 2.613,1.063 1.305,0.4653 2.503,0.9537 2.662,1.085 0.1587,0.1317 1.353,0.2424 2.653,0.246 1.301,0.004 2.603,0.008 2.894,0.009 1.373,0.006 1.739,-0.2791 2.556,-1.989 0.8364,-1.751 1.378,-2.1 2.121,-1.369 0.1923,0.1891 1.271,1.068 2.397,1.954 1.579,1.241 2.327,1.652 3.265,1.793 0.6697,0.1004 1.26,0.1401 1.312,0.0881 0.052,-0.052 -0.8978,-1.293 -2.111,-2.758 -2.651,-3.203 -2.784,-3.515 -1.804,-4.236 1.09,-0.8021 6.807,-3.799 7.246,-3.799 0.2518,0 1.09,1.825 2.46,5.358 2.312,5.96 3.136,7.866 2.935,6.787 -1.129,-6.056 -1.987,-12.25 -1.731,-12.51 0.1932,-0.1929 1.679,-0.2969 4.243,-0.2969 3.313,0 4.016,0.07 4.382,0.4362 0.405,0.4051 0.3868,0.7679 -0.2553,5.094 -0.3802,2.562 -0.6848,4.866 -0.6767,5.12 0.008,0.2544 0.3526,-0.5522 0.7658,-1.793 0.4132,-1.24 1.113,-3.026 1.556,-3.969 0.4425,-0.9424 0.8864,-2.048 0.9865,-2.456 0.1001,-0.4085 0.4693,-0.931 0.8204,-1.161 0.7218,-0.473 0.4848,-0.5512 4.656,1.538 1.274,0.638 2.636,1.411 3.027,1.718 l 0.711,0.5581 -3.666,4.734 c -4.634,5.984 -4.372,5.621 -3.712,5.148 0.291,-0.2084 0.8864,-0.7142 1.323,-1.124 1.215,-1.141 7.63,-6.348 7.998,-6.492 0.8626,-0.338 3.992,3.192 5.39,6.079 0.5319,1.099 0.5607,1.306 0.225,1.626 -0.2116,0.2019 -2.706,1.35 -5.544,2.552 -4.633,1.963 -6.673,2.967 -5.159,2.542 1.457,-0.4093 11.86,-1.78 12.05,-1.588 0.525,0.5259 1.043,3.534 1.043,6.057 0,3.997 0.3098,3.867 -6.65,2.795 -3.067,-0.4721 -5.613,-0.8212 -5.658,-0.7758 -0.1117,0.113 9.383,3.985 10.13,4.13 0.7406,0.1438 0.7563,0.6928 0.0661,2.303 -0.712,1.661 -0.6735,2.142 0.1984,2.476 0.4002,0.1535 2.394,1.705 4.432,3.448 2.038,1.743 3.792,3.177 3.9,3.186 0.1075,0.009 0.7309,-0.7189 1.385,-1.618 z m 1.602,-11.95 c -0.4738,-0.3464 -0.4265,-1.229 0.0659,-1.229 0.5282,0 1.194,0.7406 1.036,1.152 -0.203,0.529 -0.459,0.5467 -1.102,0.0765 z m 11.63,12.33 c 0.1576,-0.1158 0.2646,-1.934 0.2646,-4.494 v -4.3 l -6.642,2e-4 c -3.653,1e-4 -7.364,0.0756 -8.246,0.1678 -1.588,0.166 -1.608,0.1784 -2.023,1.266 -0.2306,0.6039 -0.4193,1.173 -0.4193,1.266 0,0.0922 1.497,0.6665 3.326,1.276 1.83,0.6097 3.387,1.267 3.461,1.46 0.0741,0.1932 -0.3556,1.073 -0.955,1.956 l -1.09,1.605 6.029,-0.004 c 3.316,-0.002 6.148,-0.0915 6.294,-0.1984 z m -11.15,-2.833 c 0.1151,-0.2999 -0.5506,-0.6143 -2.886,-1.363 -1.67,-0.5352 -3.123,-0.8793 -3.23,-0.7646 -0.231,0.2479 -0.3735,0.1819 3.113,1.443 1.528,0.5526 2.795,1.02 2.816,1.04 0.0209,0.0193 0.1051,-0.1404 0.1874,-0.3548 z m 1.218,-6.662 c 1.197,-0.1251 1.534,-0.2394 1.222,-0.4142 -0.5422,-0.3034 -6.035,-1.253 -6.303,-1.09 -0.1091,0.0664 -0.1984,0.2923 -0.1984,0.502 0,0.2097 -0.1191,0.3813 -0.2646,0.3813 -0.1455,0 -0.2646,0.1786 -0.2646,0.3969 0,0.3191 0.4073,0.3969 2.078,0.3969 1.143,0 2.822,-0.0778 3.731,-0.1728 z m 11.26,-5.648 v -5.424 l -5.159,-0.1514 v 11.15 l 5.159,-0.1514 z m -38.51,3.029 c -0.2797,-0.337 -0.2702,-0.4803 0.053,-0.8035 0.2199,-0.22 0.589,-0.3182 0.8372,-0.223 0.5617,0.2156 0.5786,1.064 0.0254,1.276 -0.5539,0.2125 -0.5255,0.2203 -0.9154,-0.2496 z m -124.3,57.32 c 0,-3.383 -0.005,-3.412 -0.6369,-3.571 -0.3503,-0.0879 -0.8265,-0.2326 -1.058,-0.3216 -0.3733,-0.1432 -0.4214,0.2649 -0.4214,3.571 v 3.732 h 2.117 z m -16.9,-1.021 0.3892,-1.257 4.678,-0.6671 1.661,0.9288 c 0.9135,0.5109 1.779,0.9288 1.924,0.9288 0.283,0 3.091,-3.665 2.926,-3.819 -0.0546,-0.051 -0.8895,-0.4492 -1.855,-0.885 -2.013,-0.9082 -4.531,-2.566 -5.571,-3.669 -0.392,-0.4155 -1.03,-1.45 -1.418,-2.299 -0.8902,-1.946 -0.8338,-4.125 0.1579,-6.106 1.065,-2.127 3.918,-4.971 5.972,-5.952 l 1.768,-0.8447 -1.823,-1.065 c -3.677,-2.149 -5.98,-4.516 -6.359,-6.535 -0.0982,-0.5233 -0.0396,-1.492 0.1301,-2.152 0.5288,-2.058 2.367,-5.469 3.78,-7.015 0.7441,-0.8142 1.307,-1.52 1.252,-1.568 -0.0556,-0.0483 -1.646,-0.3557 -3.535,-0.6831 -1.889,-0.3274 -3.958,-0.7531 -4.598,-0.9458 l -1.165,-0.3505 -7.472,6.309 -1.091,4.375 -0.9095,-0.009 c -0.5002,-0.005 -2.479,-0.1018 -4.397,-0.2148 l -3.488,-0.2056 -3.193,4.748 -2.059,0.1664 c -1.133,0.0915 -2.587,0.2509 -3.231,0.3541 l -1.171,0.1877 -2.061,5.027 c -1.944,4.742 -2.061,5.142 -2.07,7.05 l -0.009,2.023 -1.366,0.8875 c -0.7513,0.4881 -1.477,0.961 -1.613,1.051 -0.1464,0.097 -0.0209,1.27 0.309,2.887 0.3055,1.498 0.5002,2.779 0.4325,2.847 -0.0677,0.0677 -4.849,-1.558 -10.63,-3.613 -8.183,-2.911 -10.58,-3.669 -10.87,-3.432 -0.201,0.1668 -0.7156,0.7454 -1.143,1.286 l -0.778,0.9822 10.81,4.563 13.9,2.122 h 16.27 l 9.087,2.133 3.35,-1.115 1.424,1.541 c 0.7832,0.8478 1.748,1.928 2.145,2.401 0.397,0.473 0.8083,0.8599 0.9154,0.8599 0.107,0 0.3697,-0.5655 0.5838,-1.257 z m 26.69,-2.558 c -0.4804,-0.4688 -1.751,-0.9314 -4.756,-1.732 -6.793,-1.81 -11.02,-3.803 -14.12,-6.657 l -1.619,-1.489 0.004,-1.69 c 0.003,-1.366 0.1452,-1.93 0.7399,-2.945 0.4047,-0.6906 1.042,-1.456 1.416,-1.701 0.3741,-0.2452 3.315,-1.707 6.536,-3.249 8.211,-3.931 11.4,-6.102 12.48,-8.488 0.4216,-0.9349 0.449,-1.28 0.1975,-2.479 -0.724,-3.452 -3.476,-7.215 -7.401,-10.12 -1.047,-0.775 -1.97,-1.409 -2.051,-1.409 -0.0805,0 -0.1436,0.5656 -0.1401,1.257 0.006,1.164 0.0866,1.315 1.094,2.051 3.294,2.403 6.136,7.782 5.246,9.93 -0.8051,1.944 -4.386,4.291 -11.74,7.697 -3.969,1.838 -4.949,2.408 -6.06,3.527 -4.277,4.309 -4.683,7.875 -1.281,11.25 2.502,2.482 5.953,4.018 13.13,5.842 3.158,0.8025 4.481,1.012 6.476,1.026 l 2.508,0.0171 -0.6554,-0.6396 z m -9.915,-19.16 c -0.0769,-0.0769 -0.555,0.0582 -1.063,0.3002 l -0.9227,0.44 v 13.45 l 1.984,0.7917 0.0703,-7.419 c 0.0387,-4.08 0.007,-7.482 -0.0695,-7.559 z m -2.779,7.496 c 0,-3.42 -0.0615,-6.218 -0.1366,-6.218 -0.0751,0 -1.247,0.5188 -2.604,1.153 -2.745,1.283 -3.677,2.213 -4.099,4.092 -0.3816,1.698 -5e-5,2.658 1.545,3.884 1.366,1.085 4.74,3.264 5.096,3.291 0.1091,0.008 0.1984,-2.783 0.1984,-6.203 z m -1.213,-10.44 c 0.6669,-0.2859 1.213,-0.6328 1.213,-0.771 0,-0.1382 -0.7523,-0.6719 -1.672,-1.186 -2.556,-1.429 -4.872,-3.233 -5.358,-4.173 -0.6238,-1.206 -0.3804,-2.968 0.7347,-5.316 1.23,-2.591 3.57,-5.063 6.869,-7.26 1.769,-1.178 2.601,-1.892 2.601,-2.233 0,-0.5512 0.2779,-0.6473 0.6875,-0.2377 0.3486,0.3486 3.885,-1.968 5.558,-3.641 1.454,-1.454 2.229,-3.022 3.029,-6.128 0.933,-3.623 0.2379,-5.906 -2.176,-7.149 -0.6302,-0.3243 -1.562,-0.9808 -2.072,-1.459 -0.9548,-0.8965 -2.142,-1.284 -3.136,-1.024 -0.3127,0.0818 -0.5685,0.313 -0.5685,0.5139 0,0.6212 1.899,2.505 3.351,3.325 1.86,1.05 2.151,1.893 1.562,4.539 -1.009,4.533 -2.928,6.918 -8.75,10.87 -5.778,3.923 -7.49,5.487 -9.399,8.59 -1.113,1.809 -2.17,5.12 -1.936,6.064 0.4597,1.855 2.267,3.605 6.176,5.979 1.091,0.6629 2.004,1.208 2.029,1.211 0.0243,0.003 0.5899,-0.2281 1.257,-0.514 z m 4.123,-9.436 c 0,-4.817 -0.0964,-7.536 -0.271,-7.644 -0.1491,-0.0921 -0.6253,-0.0897 -1.058,0.005 l -0.7873,0.1729 v 7.498 c 0,4.124 0.0697,7.68 0.1548,7.901 0.1377,0.3588 0.2549,0.3558 1.058,-0.0274 l 0.9035,-0.4308 z m -2.91,-0.0989 c 0,-5.156 -0.0874,-7.408 -0.2875,-7.408 -0.4792,0 -3.623,3.17 -4.501,4.539 -0.8339,1.299 -1.826,4.046 -1.826,5.055 0,0.7813 2.013,2.613 4.421,4.022 1.128,0.6601 2.083,1.2 2.122,1.2 0.0394,0 0.0717,-3.334 0.0717,-7.408 z m 6.039,5.723 c 0.9714,-0.6359 2.17,-1.582 2.665,-2.103 0.8443,-0.8898 0.8888,-1.028 0.7392,-2.291 -0.2753,-2.325 -2.299,-5.528 -4.685,-7.419 l -1.053,-0.8343 v 6.901 c 0,4.745 0.0889,6.901 0.2844,6.901 0.1564,0 1.079,-0.5202 2.051,-1.156 z m -9.813,-15.49 1.642,-1.171 -1.382,-0.9182 c -2.272,-1.51 -4.047,-3.13 -4.897,-4.471 -1.165,-1.839 -2.224,-5.391 -2.269,-7.614 l -0.0371,-1.852 -5.424,-0.0127 c -4.673,-0.0109 -7.399,-0.2072 -10.98,-0.7906 -0.4366,-0.0711 0.2183,0.2197 1.455,0.6463 1.237,0.4266 4.273,1.813 6.747,3.082 2.474,1.268 4.305,2.24 4.069,2.159 -0.2361,-0.0806 -1.297,-0.4049 -2.357,-0.7207 -1.06,-0.3158 -2.98,-1.037 -4.265,-1.603 -2.452,-1.079 -5.189,-1.853 -8.295,-2.347 -2.743,-0.4357 -7.032,-0.7347 -7.933,-0.5531 -0.7509,0.1512 -0.7054,0.1931 0.926,0.852 1.303,0.5262 2.704,0.7934 5.825,1.11 4.678,0.4752 7.321,1.082 10.41,2.39 1.184,0.5014 2.926,1.153 3.872,1.448 l 1.72,0.5362 -1.852,-0.1577 c -1.019,-0.0867 -2.883,-0.4962 -4.142,-0.91 -3.309,-1.087 -6.413,-1.563 -11.07,-1.697 l -4.101,-0.1181 1.984,0.6734 c 1.299,0.4407 3.036,0.7608 5.027,0.9264 4.333,0.3603 7.202,0.9388 9.814,1.979 1.25,0.498 2.977,1.081 3.836,1.296 l 1.563,0.39 -1.984,-0.077 c -1.091,-0.0424 -3.151,-0.3925 -4.576,-0.7781 -2.423,-0.6554 -10.14,-1.471 -11.38,-1.203 -1.132,0.2439 12.51,7.509 16.49,8.782 1.89,0.6045 9.358,2.083 9.794,1.94 0.075,-0.0247 0.8754,-0.5721 1.779,-1.216 z m 17.04,0.6236 c 2.233,-0.3741 5.093,-1.024 6.356,-1.444 2.665,-0.8861 8.444,-3.727 12.72,-6.252 4.611,-2.724 4.564,-2.539 0.5974,-2.343 -4.048,0.1992 -7.329,0.6996 -9.5,1.449 -0.9736,0.3359 -2.171,0.5282 -3.175,0.5099 l -1.612,-0.0293 1.366,-0.3341 c 0.7515,-0.1838 2.359,-0.7579 3.572,-1.276 2.533,-1.081 5.486,-1.698 9.317,-1.946 1.857,-0.1202 3.367,-0.4025 4.927,-0.921 l 2.249,-0.7476 -4.101,0.1294 c -4.708,0.1486 -7.25,0.5512 -10.52,1.666 -1.272,0.4337 -3.146,0.8575 -4.165,0.9419 l -1.852,0.1534 1.705,-0.517 c 0.9376,-0.2843 2.824,-1.008 4.192,-1.608 2.841,-1.246 5.79,-1.91 10.9,-2.453 2.455,-0.261 3.972,-0.5612 4.851,-0.9598 0.7033,-0.319 1.211,-0.6478 1.128,-0.7305 -0.2678,-0.2678 -4.293,-0.0811 -7.303,0.3387 -3.405,0.4749 -6.856,1.419 -8.811,2.412 -1.356,0.6881 -6.375,2.477 -6.916,2.465 -0.1533,-0.003 0.7786,-0.4871 2.071,-1.075 1.292,-0.5878 3.284,-1.611 4.425,-2.275 1.142,-0.6633 3.061,-1.543 4.265,-1.955 2.559,-0.8753 2.51,-0.8922 -0.9856,-0.3399 -1.693,0.2675 -4.885,0.4477 -8.864,0.5003 l -6.218,0.0822 -0.1644,1.939 c -0.1935,2.282 -1.086,5.473 -1.95,6.97 -0.7851,1.361 -3.063,3.514 -5.131,4.851 l -1.619,1.046 1.638,1.217 c 0.9007,0.6693 1.842,1.217 2.092,1.217 0.25,0 2.281,-0.3061 4.514,-0.6802 z m 166.6,-4.484 v -3.577 l -12.3,0.142 -0.1476,7.011 h 12.45 z m -180.5,1.577 c 0.9144,-0.6404 0.7112,-1.29 -0.7525,-2.404 -2.348,-1.788 -4.084,-4.441 -4.857,-7.425 -0.8159,-3.149 -0.4774,-4.394 1.463,-5.384 1.342,-0.6846 3.147,-2.481 3.147,-3.132 0,-1.18 -1.991,-0.9078 -3.704,0.5057 -0.6548,0.5403 -1.684,1.233 -2.287,1.538 -2.157,1.093 -2.739,3.809 -1.651,7.7 0.714,2.553 1.328,3.75 2.676,5.211 0.9668,1.049 4.728,3.801 5.194,3.801 0.101,0 0.4482,-0.1853 0.7716,-0.4119 z m 3.436,-10.23 0.0699,-8.022 -2.124,0.2026 v 8.026 c 0,5.151 0.0963,8.086 0.2689,8.193 0.1479,0.0914 0.184,0.3036 0.0803,0.4714 -0.1038,0.1679 0.2217,0.0455 0.7233,-0.272 l 0.9119,-0.5773 z m -2.91,-0.5546 c 0.0451,-4.875 -0.0234,-7.585 -0.1916,-7.585 -0.144,0 -0.4324,0.3299 -0.641,0.7331 -0.5316,1.028 -1.65,2.106 -3.269,3.148 -0.8304,0.5351 -1.449,1.148 -1.545,1.529 -0.2245,0.8944 0.8013,4.747 1.649,6.194 0.87,1.484 3.162,3.821 3.604,3.673 0.2429,-0.0809 0.3412,-2 0.3938,-7.693 z m 5.452,5.509 c 0.5445,-0.2275 1.233,-0.8257 1.598,-1.389 0.8249,-1.271 1.743,-4.296 1.743,-5.742 0,-1.089 -0.0508,-1.157 -1.573,-2.096 -0.8653,-0.5341 -1.996,-1.465 -2.514,-2.07 l -0.9403,-1.099 v 6.398 c 0,7.048 -0.0868,6.739 1.686,5.998 z m 169.8,-6.876 v -5.689 h -4.498 v 11.38 h 4.498 z m -209.9,-3.955 c -1.31,-0.3334 -2.917,-0.6793 -3.572,-0.7687 l -1.191,-0.1625 1.097,0.5232 c 0.6036,0.2878 1.913,0.628 2.91,0.7561 3.031,0.3894 3.252,0.2876 0.7546,-0.3482 z m 74.08,0.3547 c 1.31,-0.1605 2.798,-0.5121 3.307,-0.7813 1.292,-0.6828 0.626,-0.6249 -3.043,0.2649 -3.589,0.8705 -3.618,0.9273 -0.2646,0.5164 z m -35.04,-4.449 c 2.016,-2.016 -0.3325,-5.23 -3.402,-4.654 -2.739,0.5138 -3.746,3.131 -1.876,4.873 0.493,0.4593 0.9311,0.5546 2.55,0.5546 1.808,0 2.013,-0.0582 2.728,-0.7734 z m -128.600001,103.38 c -4.934,-0.5235 -8.901,-4.495 -9.797,-9.808 -0.6501,-3.854 0.01138,-8.296 1.652,-11.09 3.521,-6 12.55,-7.45 17.78,-2.852 1.067,0.9392 2.804,3.785 2.804,4.595 0,0.1714 -0.9148,0.5081 -2.051,0.7545 -1.128,0.2447 -2.303,0.513 -2.612,0.5961 -0.4512,0.1216 -0.5978,0.004 -0.7482,-0.5984 -0.672,-2.692 -4.038,-4.17 -7.383,-3.242 -1.529,0.4246 -3.131,2.173 -3.74,4.083 -0.6639,2.081 -0.6805,6.477 -0.0328,8.682 0.614,2.091 2.137,3.741 3.947,4.279 1.594,0.4734 2.095,0.4879 3.49,0.1007 1.398,-0.3881 3.096,-2.129 3.711,-3.805 0.2669,-0.7276 0.5024,-1.351 0.5235,-1.386 0.0211,-0.0348 1.14,0.3065 2.488,0.7583 2.79,0.9356 2.759,0.8586 1.433,3.565 -1.973,4.029 -6.058,5.943 -11.46,5.37 z m 381.237001,-23.32 1.209,-3.109 5.613,0.01 5.093,12.63 c 2.801,6.946 5.093,12.72 5.093,12.84 0,0.12 -1.266,0.1721 -2.814,0.1308 l -2.814,-0.0751 -2.167,-5.689 h -10.39 l -1.031,2.844 -1.031,2.844 -5.625,0.1496 c 3.01936,-7.69476 5.7849,-14.66588 8.864,-22.5753 z m 7.423,12.1699 c -3.03,-8.209 -3.476,-9.246 -3.708,-8.634 -1.096,2.893 -3.106,8.545 -3.106,8.732 0,0.128 1.561,0.2328 3.468,0.2328 2.663,0 3.44,-0.0768 3.346,-0.3307 z m -81.85,-69.62 c -0.0761,-0.1982 -0.1021,-1.061 -0.0578,-1.918 l 0.0804,-1.558 1.984,-0.1639 c 1.091,-0.0901 4.334,-0.1794 7.205,-0.1984 l 5.22,-0.0346 0.1449,0.7276 c 0.0797,0.4002 0.2417,1.033 0.3601,1.405 0.3231,1.017 -0.0622,1.736 -1.035,1.931 -0.4671,0.0934 -3.755,0.1698 -7.307,0.1698 -5.205,0 -6.484,-0.0699 -6.596,-0.3604 z m 14.17,-1.161 c -0.003,-0.4002 -0.0754,-0.9955 -0.1632,-1.323 l -0.1595,-0.5953 h -13.1 l -0.164,0.9922 c -0.0902,0.5457 -0.1653,1.141 -0.1669,1.323 -0.003,0.2562 1.548,0.3307 6.876,0.3307 h 6.879 l -0.004,-0.7276 z m -239.4,-88.96 h 5.292 v 25.66 h -5.292 z m 199.5,14.947 v -10.72 h -7.673 v -4.233 h 20.64 v 4.233 h -7.673 v 21.43 h -5.292 z"
     style="stroke-width:0.2646" />
  <text
     xml:space="preserve"
     style="font-style:normal;font-weight:normal;font-size:13.4056px;line-height:1.13;font-family:sans-serif;letter-spacing:0.619125px;word-spacing:0px;fill:#3b3636;fill-opacity:1;stroke:none;stroke-width:0.264583"
     x="176.61169"
     y="332.64368"><tspan
       style="font-style:normal;font-variant:normal;font-weight:normal;font-stretch:normal;font-size:13.4056px;font-family:Arial;-inkscape-font-specification:Arial;stroke-width:0.264583;fill:#3b3636;fill-opacity:1"
       x="176.61169"
       y="332.64368"
       dx="0.07">ESTUDIAR PARA PREVER</tspan><tspan
       style="font-style:normal;font-variant:normal;font-weight:normal;font-stretch:normal;font-size:13.4056px;font-family:Arial;-inkscape-font-specification:Arial;stroke-width:0.264583;fill:#3b3636;fill-opacity:1"
       x="176.61169"
       y="347.94717">Y PREVER PARA ACTUAR</tspan></text>
</svg>
