<?xml version="1.0" encoding="utf-8"?>
<!-- Generator: Adobe Illustrator 21.1.0, SVG Export Plug-In . SVG Version: 6.00 Build 0)  -->
<svg version="1.1" id="Capa_1" xmlns="http://www.w3.org/2000/svg" xmlns:xlink="http://www.w3.org/1999/xlink" x="0px" y="0px"
	 viewBox="0 0 612 167.1" style="enable-background:new 0 0 612 167.1;" xml:space="preserve">
<style type="text/css">
	.st0{fill:#FED307;}
	.st1{fill:#374B61;}
	.st2{fill:#507CBE;}
	.st3{fill:#F15B2A;}
	.st4{fill:#BE202E;}
	.st5{fill:#099748;}
	.st6{fill:#EB156F;}
</style>
<g>
	<ellipse class="st0" cx="593.6" cy="16.5" rx="6.4" ry="6.5"/>
	<path class="st1" d="M593.6,12c-2.6,0-4.5,1.9-4.5,4.6c0,2.6,1.9,4.5,4.5,4.5c2.6,0,4.5-1.8,4.5-4.5C598.1,13.9,596.2,12,593.6,12
		 M595,19.7l-1.4-2.3h-0.8v2.3h-1.2v-6.4h2.3c1.2,0,2.1,0.8,2.1,2c0,0.8-0.3,1.5-1,1.8l1.5,2.5H595z"/>
	<path class="st1" d="M593.8,14.4h-1v2h1c0.5,0,0.9-0.5,0.9-1C594.7,14.8,594.3,14.4,593.8,14.4"/>
	<rect x="172.4" y="7.9" class="st2" width="33.5" height="99.1"/>
	<rect x="106.8" y="7.9" class="st2" width="33.5" height="99.1"/>
	<polygon class="st3" points="74.6,107 39.9,57.5 39.9,107 	"/>
	<polygon class="st3" points="72.1,57.5 106.8,107 106.8,7.9 	"/>
	<polygon class="st3" points="39.9,7.9 39.9,57.5 74.6,7.9 	"/>
	<path class="st1" d="M602.5,56.4V7.9H553C580,7.9,602,29.5,602.5,56.4 M589.6,12.6c1.1-1,2.4-1.6,4-1.6c1.6,0,2.9,0.5,4,1.6
		c1.1,1,1.7,2.4,1.7,4c0,1.6-0.6,2.9-1.7,4c-1.1,1-2.4,1.6-4,1.6c-1.6,0-2.9-0.5-4-1.6c-1.1-1-1.6-2.4-1.6-4
		C588,15,588.5,13.7,589.6,12.6"/>
	<path class="st1" d="M553,107h49.5V58.5C602,85.4,580,107,553,107"/>
	<path class="st1" d="M503.4,57.5c0-27.4,22.2-49.6,49.6-49.6h-49.6V107H553C525.6,107,503.4,84.8,503.4,57.5"/>
	<path class="st1" d="M527.7,57.5c0,13.9,11.3,25.3,25.3,25.3c13.9,0,25.3-11.3,25.3-25.3c0-13.9-11.3-25.3-25.3-25.3
		C539,32.2,527.7,43.5,527.7,57.5"/>
	<path class="st4" d="M255.5,107h49.6V57.5C305.1,84.8,282.9,107,255.5,107"/>
	<path class="st4" d="M205.9,57.5V107h49.6C228.1,107,205.9,84.8,205.9,57.5"/>
	<path class="st4" d="M255.5,7.9c27.4,0,49.6,22.2,49.6,49.6V7.9H255.5z"/>
	<path class="st4" d="M255.5,7.9h-49.6v49.6C205.9,30.1,228.1,7.9,255.5,7.9"/>
	<path class="st4" d="M255.5,32.2c-13.9,0-25.3,11.3-25.3,25.3c0,13.9,11.3,25.3,25.3,25.3c13.9,0,25.3-11.3,25.3-25.3
		C280.8,43.5,269.5,32.2,255.5,32.2"/>
	<path class="st5" d="M326.8,72.5c6.8,6.9,17.3,12.7,30.4,12.7c8.2,0,13.3-2.9,13.3-7.6c0-12.7-53.5-2.2-53.5-39.1
		c0-16.1,13.3-30.5,37.6-30.5h-49.6V107h50.9c-19.2,0-32.5-6.2-42-15.3L326.8,72.5z"/>
	<path class="st5" d="M354.7,7.9c15.2,0,28.4,4.6,38.5,13.4l-13.3,18.6c-8-6.8-18.3-10.1-27.7-10.1c-7.1,0-10.2,2.4-10.2,6.6
		c0,11.8,53.5,2.9,53.5,38.6c0,19.3-14.1,32.1-39.5,32.1h48.3V7.9H354.7z"/>
	<polygon class="st6" points="436.4,7.9 436.4,57.5 471.2,7.9 	"/>
	<path class="st6" d="M404.2,7.9V107V7.9z"/>
	<polygon class="st6" points="471.2,107 436.4,57.5 436.4,107 	"/>
	<polygon class="st6" points="468.6,57.5 503.4,107 503.4,7.9 	"/>
	<path class="st0" d="M313.9,91.8l12.9-19.3c6.8,6.9,17.3,12.7,30.4,12.7c8.2,0,13.3-2.9,13.3-7.6c0-12.7-53.5-2.2-53.5-39.1
		c0-16.1,13.3-30.5,37.6-30.5c15.2,0,28.4,4.6,38.5,13.4l-13.3,18.6c-8-6.8-18.3-10.1-27.7-10.1c-7.1,0-10.2,2.4-10.2,6.6
		c0,11.8,53.5,2.9,53.5,38.6c0,19.3-14.1,32.1-39.5,32.1C336.8,107,323.4,100.9,313.9,91.8"/>
	<polygon class="st0" points="503.4,7.9 471.2,7.9 436.4,57.5 436.4,7.9 404.2,7.9 404.2,107 436.4,107 436.4,57.5 471.2,107 
		503.4,107 468.6,57.5 	"/>
	<path class="st0" d="M553,32.2c13.9,0,25.3,11.3,25.3,25.3c0,13.9-11.3,25.3-25.3,25.3c-13.9,0-25.3-11.3-25.3-25.3
		C527.7,43.5,539,32.2,553,32.2 M553,7.9c-27.4,0-49.6,22.2-49.6,49.6c0,27.4,22.2,49.6,49.6,49.6c27.4,0,49.6-22.2,49.6-49.6
		C602.5,30.1,580.4,7.9,553,7.9"/>
	<rect x="205.9" y="7.9" class="st4" width="99.1" height="99.1"/>
	<path class="st0" d="M255.5,32.2c13.9,0,25.3,11.3,25.3,25.3c0,13.9-11.3,25.3-25.3,25.3c-13.9,0-25.3-11.3-25.3-25.3
		C230.2,43.5,241.6,32.2,255.5,32.2 M255.5,7.9c-27.4,0-49.6,22.2-49.6,49.6c0,27.4,22.2,49.6,49.6,49.6c27.4,0,49.6-22.2,49.6-49.6
		C305.1,30.1,282.9,7.9,255.5,7.9"/>
	<rect x="140.3" y="7.9" class="st0" width="32.1" height="99.1"/>
	<polygon class="st0" points="106.8,7.9 74.6,7.9 39.9,57.5 39.9,7.9 7.7,7.9 7.7,107 39.9,107 39.9,57.5 74.6,107 106.8,107 
		72.1,57.5 	"/>
</g>
<g>
	<path class="st2" d="M181.9,147.4l1.7-11.4h2.9l1.7,11.4v2.5h-6.3V147.4z M182.2,129.4h5.8v5l-5.8,0V129.4z"/>
	<polygon class="st2" points="191.6,129.4 208.2,129.4 208.2,134.2 197.3,134.2 197.3,137.3 207.1,137.3 207.1,141.8 197.3,141.8 
		197.3,145.1 208.3,145.1 208.3,149.9 191.6,149.9 	"/>
	<path class="st2" d="M209.7,147.9l2.1-3.3c1.8,1.2,3.8,1.8,5.4,1.8c1,0,1.4-0.3,1.4-0.9v-0.1c0-0.6-0.9-0.9-2.6-1.4
		c-3.1-0.8-5.6-1.9-5.6-5.1V139c0-3.4,2.7-5.3,6.4-5.3c2.3,0,4.7,0.7,6.5,1.9l-1.9,3.5c-1.6-0.9-3.4-1.5-4.7-1.5
		c-0.9,0-1.3,0.3-1.3,0.8v0.1c0,0.6,0.9,0.9,2.6,1.4c3.1,0.9,5.6,2,5.6,5v0.1c0,3.5-2.6,5.3-6.5,5.3
		C214.6,150.3,211.9,149.5,209.7,147.9"/>
	<path class="st2" d="M234.2,134.1h5.6v2.2c1-1.3,2.5-2.5,4.7-2.5c2.1,0,3.7,0.9,4.6,2.6c1.4-1.6,3-2.6,5.3-2.6
		c3.4,0,5.4,2.1,5.4,5.8v10.4h-5.6v-8.6c0-1.7-0.9-2.7-2.2-2.7c-1.3,0-2.3,0.9-2.3,2.7v8.6h-5.5v-8.6c0-1.7-0.9-2.7-2.2-2.7
		c-1.3,0-2.3,0.9-2.3,2.7v8.6h-5.6V134.1z"/>
	<path class="st2" d="M262.6,144.4v-10.4h5.6v8.6c0,1.7,0.9,2.7,2.3,2.7c1.4,0,2.3-0.9,2.3-2.7v-8.6h5.5v15.9h-5.5v-2.2
		c-1,1.3-2.5,2.6-4.8,2.6C264.6,150.3,262.6,148,262.6,144.4"/>
	<path class="st2" d="M292.1,134.1h5.7l-5.8,15.5c-1.4,3.7-2.9,5.2-6,5.2c-2,0-3.6-0.5-5.1-1.4l1.7-3.9c0.9,0.5,1.8,0.9,2.4,0.9
		c0.6,0,0.9-0.1,1.3-0.6l-6.2-15.6h5.8l3.2,9.6L292.1,134.1z"/>
	<path class="st2" d="M307.8,134.1h5.6v2.2c1-1.3,2.5-2.6,4.8-2.6c3.4,0,5.4,2.2,5.4,5.8v10.4H318v-8.6c0-1.8-0.9-2.7-2.3-2.7
		c-1.3,0-2.3,0.9-2.3,2.7v8.6h-5.6V134.1z"/>
	<path class="st2" d="M326.3,144.4v-10.4h5.6v8.6c0,1.7,0.9,2.7,2.3,2.7c1.3,0,2.3-0.9,2.3-2.7v-8.6h5.5v15.9h-5.5v-2.2
		c-1,1.3-2.5,2.6-4.8,2.6C328.4,150.3,326.3,148,326.3,144.4"/>
	<path class="st2" d="M344.4,142.1L344.4,142.1c0-4.7,3.3-8.4,8-8.4c5.5,0,8,4,8,8.7c0,0.3,0,0.8,0,1.1h-10.6
		c0.4,1.7,1.7,2.6,3.4,2.6c1.3,0,2.4-0.5,3.5-1.6l3.1,2.6c-1.5,1.9-3.7,3.2-6.9,3.2C348,150.3,344.4,147,344.4,142.1 M355.3,140.7
		c-0.2-1.8-1.3-2.9-2.8-2.9c-1.5,0-2.5,1.1-2.8,2.9H355.3z"/>
	<path class="st2" d="M361.7,147.9l2.1-3.3c1.8,1.2,3.8,1.8,5.4,1.8c1,0,1.4-0.3,1.4-0.9v-0.1c0-0.6-0.9-0.9-2.6-1.4
		c-3.1-0.8-5.6-1.9-5.6-5V139c0-3.4,2.7-5.3,6.4-5.3c2.3,0,4.7,0.7,6.5,1.8l-1.9,3.5c-1.6-0.9-3.4-1.5-4.7-1.5
		c-0.9,0-1.3,0.3-1.3,0.8v0.1c0,0.6,0.9,0.9,2.6,1.4c3.1,0.9,5.6,2,5.6,5.1v0.1c0,3.5-2.6,5.3-6.5,5.3
		C366.5,150.3,363.9,149.5,361.7,147.9"/>
	<path class="st2" d="M378.7,145v-6.5h-1.9v-4.5h1.9v-4h5.5v4h3.7v4.5h-3.7v5.4c0,1.1,0.5,1.6,1.5,1.6c0.7,0,1.4-0.2,2.1-0.5v4.3
		c-1,0.6-2.3,0.9-3.9,0.9C380.6,150.3,378.7,148.8,378.7,145"/>
	<path class="st2" d="M390.3,134.1h5.6v3.2c0.9-2.2,2.4-3.6,5-3.5v5.9h-0.5c-2.9,0-4.6,1.7-4.6,5.3v5h-5.6V134.1z"/>
	<path class="st2" d="M402,142.1L402,142.1c0-4.6,3.7-8.4,8.8-8.4c5.1,0,8.7,3.7,8.7,8.2v0.1c0,4.5-3.7,8.3-8.8,8.3
		C405.7,150.3,402,146.6,402,142.1 M414.1,142.1L414.1,142.1c0-2-1.4-3.7-3.4-3.7c-2,0-3.3,1.6-3.3,3.6v0.1c0,1.9,1.4,3.6,3.4,3.6
		C412.8,145.6,414.1,144,414.1,142.1"/>
	<path class="st2" d="M422,131.9v-2.5h6.3v2.5l-1.7,11.4h-2.9L422,131.9z M422.3,145h5.8v5h-5.8V145z"/>
</g>
</svg>
