<?xml version="1.0" encoding="UTF-8" standalone="no"?>
<svg
   width="1230"
   height="315.18"
   version="1.1"
   xmlns="http://www.w3.org/2000/svg">
  <title>Moodle-Logo-RGB</title>
      <path
         style="fill:#f98012"
         d="M 894.80078 0 L 894.80078 149.16992 C 884.44078 136.53992 867.38016 125.53906 838.16016 125.53906 C 812.22016 125.53906 789.71914 136.48086 775.86914 152.13086 C 760.22914 169.83086 752.4707 191.88086 752.4707 218.13086 C 752.47737 244.73753 760.43938 267.07086 776.35938 285.13086 C 792.27938 303.19086 813.37396 312.2207 839.64062 312.2207 A 92.81 92.81 0 0 0 869.68945 306.81055 C 881.50279 302.86388 889.87411 297.61078 894.80078 291.05078 L 894.80078 309.26953 L 948.48047 309.26953 L 948.48047 0 L 894.80078 0 z M 965.09961 0 L 965.09961 309.26953 L 1020.2598 309.26953 L 1020.2598 0 L 965.09961 0 z M 449.13086 124.09961 C 421.21753 124.07961 398.14969 132.94279 379.92969 150.68945 C 361.70969 168.43612 352.59961 191.25396 352.59961 219.14062 C 352.59294 247.05396 361.70302 269.87294 379.92969 287.59961 C 398.15635 305.32628 421.22419 314.18945 449.13086 314.18945 C 477.04419 314.18279 500.19031 305.31961 518.57031 287.59961 C 536.95031 269.87961 546.14062 247.06062 546.14062 219.14062 C 546.16729 191.23396 536.97698 168.41612 518.57031 150.68945 C 500.16365 132.96279 477.01753 124.09961 449.13086 124.09961 z M 648.5293 124.09961 C 620.6293 124.07961 597.56651 132.94279 579.33984 150.68945 C 561.11318 168.43612 552 191.25396 552 219.14062 C 552.04 247.05396 561.16753 269.87294 579.38086 287.59961 C 597.59419 305.32628 620.65698 314.18945 648.57031 314.18945 C 676.45031 314.18279 699.58404 305.31961 717.9707 287.59961 C 736.35737 269.87961 745.55078 247.06062 745.55078 219.14062 C 745.55745 191.23396 736.36404 168.41612 717.9707 150.68945 C 699.57737 132.96279 676.4293 124.09961 648.5293 124.09961 z M 1130.3906 124.59961 C 1100.8306 124.59961 1076.7771 133.21589 1058.2305 150.44922 C 1039.6838 167.68255 1030.4102 190.91086 1030.4102 220.13086 C 1030.4102 248.38086 1039.6705 271.27008 1058.2305 288.83008 C 1076.7905 306.39008 1102.6291 315.17969 1130.8691 315.17969 C 1198.7691 315.17969 1224.5291 273.98961 1230.8691 254.59961 L 1172.7598 255.09961 C 1172.1198 261.48961 1159.2006 277.25977 1131.8906 277.25977 C 1103.8306 277.25977 1086.7601 249.02062 1085.5801 235.89062 L 1230.8496 235.88086 C 1230.8563 202.71419 1222.4838 176.28628 1205.7305 156.59961 C 1187.6705 135.26628 1162.5573 124.59961 1130.3906 124.59961 z M 150.83008 125.24023 C 126.23008 125.24023 106.70953 130.6569 92.269531 141.49023 C 75.869531 153.62357 67.669922 171.49914 67.669922 195.11914 L 67.669922 309.76953 L 122.83008 309.76953 L 122.83008 201.50977 C 122.79674 178.87643 132.13008 167.56055 150.83008 167.56055 C 169.21008 167.56721 178.40039 178.8831 178.40039 201.50977 L 178.40039 309.76953 L 233.55078 309.76953 L 233.55078 201.50977 C 233.59078 178.86977 242.94271 167.55388 261.60938 167.56055 C 280.27604 167.56721 289.60938 178.8831 289.60938 201.50977 L 289.60938 309.76953 L 344.7207 309.76953 L 344.7207 195.11914 C 344.71404 171.49247 336.50938 153.6169 320.10938 141.49023 C 305.68271 130.6569 286.17031 125.24023 261.57031 125.24023 C 234.66365 125.24023 216.12255 131.63635 205.94922 144.42969 C 194.14255 131.63635 175.77008 125.24023 150.83008 125.24023 z M 1131.3906 160.51953 C 1142.544 160.5262 1152.3928 164.63008 1160.9395 172.83008 C 1168.4795 180.40008 1173.4109 190.06062 1175.7109 201.89062 L 1087.0703 201.89062 C 1089.6903 190.07062 1094.857 180.21984 1102.5703 172.33984 C 1110.2836 164.45984 1119.8906 160.51953 1131.3906 160.51953 z M 852 164.4707 C 861.86667 164.4707 871.46745 168.9862 880.80078 178.01953 C 890.13411 187.05286 894.80078 196.49628 894.80078 206.34961 L 894.83008 236.88086 C 894.84341 245.40753 889.84341 253.69357 879.83008 261.74023 C 869.81674 269.7869 860.54 273.81055 852 273.81055 C 837.88 273.82388 826.71953 267.91341 818.51953 256.08008 C 811.29286 245.90674 807.67969 233.59396 807.67969 219.14062 C 807.67302 204.38729 811.2862 191.91094 818.51953 181.71094 C 826.73286 170.2176 837.89333 164.4707 852 164.4707 z M 449.13086 168.41992 C 462.75086 168.41326 473.37333 173.6962 481 184.26953 C 487.66667 193.82953 491 205.54039 491 219.40039 C 491 233.26039 487.52055 244.9693 480.56055 254.5293 C 472.93388 265.39596 462.46992 270.83628 449.16992 270.84961 C 435.86992 270.86294 425.39977 265.42263 417.75977 254.5293 C 411.0931 244.96263 407.75977 233.25372 407.75977 219.40039 C 407.7531 205.54706 411.32404 193.5862 418.4707 183.51953 C 425.61737 173.45286 435.83753 168.41992 449.13086 168.41992 z M 648.57031 168.41992 C 662.19031 168.41326 672.82094 173.6962 680.46094 184.26953 C 687.1276 193.82953 690.46094 205.54039 690.46094 219.40039 C 690.46094 233.26039 686.97333 244.9693 680 254.5293 C 672.36667 265.39596 661.90271 270.83628 648.60938 270.84961 C 635.31604 270.86294 624.85094 265.42263 617.21094 254.5293 C 610.54427 244.96263 607.21094 233.25372 607.21094 219.40039 C 607.21094 205.54706 610.77992 193.5862 617.91992 183.51953 C 625.05992 173.45286 635.27698 168.41992 648.57031 168.41992 z " />
      <path
         d="M174.74,116.9l54.74-40-.7-2.44C130,86.57,85.08,95.15,0,144.47l.79,2.24,6.76.07c-.62,6.81-1.7,23.64-.32,48.95-9.44,27.32-.24,45.88,8.4,66.07,1.37-21,1.23-44-5.22-66.89-1.35-25.14-.24-41.67.37-48.1l56.4.54a258,258,0,0,0,1.67,33.06c50.4,17.71,101.09-.06,128-43.72C189.38,128.32,174.74,116.9,174.74,116.9Z"
         style="fill:#333" />
</svg>
