<?xml version="1.0" encoding="UTF-8" standalone="no"?>
<svg
   version="1.1"
   width="300"
   height="88.276703"
   xmlns="http://www.w3.org/2000/svg">
  <title>Logotipo del Gobierno de México</title>
  <use href="#logo-mx-escudo-2020" x="0" y="0" width="87.155045" height="88.290787" />
  <path
     id="path564"
     style="fill:#a22545;stroke-width:1"
     d="m 245.4707,14.34375 a 8.0590839,8.0590839 0 0 0 -0.61328,0.0293 9.3941731,9.3941731 0 0 0 -9.56445,9.515625 8.1804556,8.1804556 0 0 0 8.88476,8.447266 9.2242526,9.2242526 0 0 0 9.41797,-9.466797 8.0590839,8.0590839 0 0 0 -8.125,-8.525391 z m -132.20703,0.002 a 9.7097396,9.7097396 0 0 0 -9.29492,9.275391 c 0,5.41318 3.64123,8.763672 9.51563,8.763672 a 13.205246,13.205246 0 0 0 7.11328,-2.039063 v -0.4375 a 30.270113,30.270113 0 0 1 0.31445,-4.173828 L 122.83008,24.980469 122.51562,23.5 h -8.2539 l -0.31641,1.480469 A 6.7725434,6.7725434 0 0 1 116.00977,26 a 11.991528,11.991528 0 0 1 0.38867,3.447266 6.5783486,6.5783486 0 0 1 -2.30664,0.365234 c -3.32559,0 -5.41407,-2.453159 -5.41407,-6.53125 a 9.2970757,9.2970757 0 0 1 1.94336,-5.921875 5.8258438,5.8258438 0 0 1 5.80079,0.193359 12.792582,12.792582 0 0 1 0.94726,3.34961 24.080154,24.080154 0 0 0 2.69336,0.146484 c 0.19419,-0.825328 0.72796,-3.154866 0.9707,-4.441406 l -0.43554,-0.753906 a 13.909202,13.909202 0 0 0 -6.4336,-1.503907 9.7097396,9.7097396 0 0 0 -0.90039,-0.0039 z m 22,0.002 a 8.0590839,8.0590839 0 0 0 -0.61133,0.02539 9.3698987,9.3698987 0 0 0 -9.54101,9.515625 8.1561813,8.1561813 0 0 0 8.88476,8.447266 9.2242526,9.2242526 0 0 0 9.34571,-9.466797 8.0590839,8.0590839 0 0 0 -8.07813,-8.521485 z m 55.75391,0.244141 c -2.03905,0.194195 -4.51593,0.193359 -7.62305,0.193359 h -6.86914 l -0.33984,1.50586 a 5.0733389,5.0733389 0 0 1 2.01367,1.068359 13.0596,13.0596 0 0 1 0.36523,3.882813 v 4.296874 a 35.003611,35.003611 0 0 1 -0.21875,4.175782 l -2.13672,0.679687 0.33985,1.503907 h 15.14844 v -5.072266 a 17.52608,17.52608 0 0 0 -2.79297,-0.121094 l -0.84961,2.984375 a 13.763556,13.763556 0 0 1 -2.42578,0.21875 4.8548698,4.8548698 0 0 1 -2.25782,-0.314453 l -0.16992,-0.169922 a 12.331369,12.331369 0 0 1 -0.36523,-3.884766 v -0.849609 l 5.34179,0.195313 c 0.12138,-0.655408 0.36329,-1.383655 0.36329,-2.039063 l -0.48633,-0.65625 -5.21875,0.4375 V 21.21875 c 0,-1.990497 0.19531,-3.64119 0.19531,-4.417969 h 2.08789 a 16.676478,16.676478 0 0 1 2.5957,0.19336 l 0.65625,2.865234 a 15.46276,15.46276 0 0 0 2.57227,0.121094 c 0.19419,-0.849602 0.65541,-3.008939 0.84961,-4.222657 a 9.7097396,9.7097396 0 0 0 -0.77539,-1.166015 z m 107.04883,0 c -2.03905,0.194195 -4.51398,0.193359 -7.6211,0.193359 h -6.87109 l -0.33984,1.50586 a 5.0733389,5.0733389 0 0 1 2.01562,1.068359 13.0596,13.0596 0 0 1 0.36328,3.882813 v 4.296874 a 35.003611,35.003611 0 0 1 -0.2168,4.175782 l -2.20898,0.873047 0.33984,1.505859 h 15.16993 v -5.074219 a 17.52608,17.52608 0 0 0 -2.79102,-0.121093 l -0.84961,2.986328 a 13.763556,13.763556 0 0 1 -2.42773,0.21875 4.8548698,4.8548698 0 0 1 -2.25782,-0.388672 l -0.16992,-0.169922 a 12.331369,12.331369 0 0 1 -0.38672,-3.884766 v -0.849609 l 5.33985,0.195312 c 0.12137,-0.655407 0.36328,-1.383655 0.36328,-2.039062 l -0.48438,-0.65625 -5.21875,0.316406 V 21.21875 c 0,-1.990497 0.19336,-3.64119 0.19336,-4.417969 h 2.25781 a 16.676478,16.676478 0 0 1 2.59766,0.19336 l 0.5586,2.865234 a 15.46276,15.46276 0 0 0 2.57226,0.121094 c 0.1942,-0.849602 0.65542,-3.008939 0.84961,-4.222657 a 9.7097396,9.7097396 0 0 0 -0.77734,-1.166015 z m -143.99414,0.04883 c -1.26227,0 -3.95732,0.144531 -4.85547,0.144531 h -3.9336 l -0.33984,1.50586 a 5.0005159,5.0005159 0 0 1 2.01562,1.068359 13.0596,13.0596 0 0 1 0.36329,3.882813 v 4.296874 a 35.003611,35.003611 0 0 1 -0.2168,4.175782 l -2.16211,0.751953 0.33984,1.505859 h 4.15235 c 1.6021,0 3.93193,0.21875 5.50976,0.21875 3.59261,0 6.82031,-1.676646 6.82031,-5.050781 a 4.2722854,4.2722854 0 0 0 -3.71289,-4.150391 4.5393033,4.5393033 0 0 0 2.88868,-3.957031 c 0,-2.912922 -2.59686,-4.392578 -6.86914,-4.392578 z m 50.19921,0 c -1.23799,0 -3.95731,0.144531 -4.85546,0.144531 h -4.1504 l -0.3164,1.50586 a 4.8548698,4.8548698 0 0 1 1.99023,1.068359 13.0596,13.0596 0 0 1 0.36524,3.882813 v 4.296874 a 35.003611,35.003611 0 0 1 -0.21875,4.175782 l -2.06446,0.654297 0.31641,1.505859 h 8.25391 l 0.31445,-1.505859 a 4.7092237,4.7092237 0 0 1 -1.99023,-1.042969 12.477015,12.477015 0 0 1 -0.36329,-3.884766 v -0.435547 h 2.42579 c 1.35936,2.645904 2.4774,5.024849 3.30273,6.966797 h 5.07227 l 0.3164,-1.505859 -1.62695,-0.849609 a 58.622553,58.622553 0 0 1 -3.44727,-5.898438 5.2918081,5.2918081 0 0 0 3.34961,-4.5625 c 0,-3.058568 -2.52291,-4.515625 -6.67383,-4.515625 z m 67.60352,0 c -1.21372,0 -3.95732,0.144531 -4.85547,0.144531 h -3.85937 l -0.31446,1.50586 a 4.7092237,4.7092237 0 0 1 1.99024,1.068359 12.282821,12.282821 0 0 1 0.36328,3.882813 v 4.296874 a 36.55717,36.55717 0 0 1 -0.19336,4.175782 l -2.20898,0.751953 0.31445,1.505859 h 4.02929 c 1.57784,0 3.93277,0.21875 5.48633,0.21875 a 8.3503761,8.3503761 0 0 0 8.76367,-8.958984 c 0,-4.636401 -2.40324,-8.591797 -9.51562,-8.591797 z m -107.51172,0.144531 -0.31445,1.50586 a 4.7092237,4.7092237 0 0 1 1.99023,1.068359 12.282821,12.282821 0 0 1 0.36328,3.882813 v 4.296874 a 36.55717,36.55717 0 0 1 -0.19336,4.175782 l -2.23437,0.751953 0.31641,1.505859 h 8.44726 l 0.33984,-1.505859 a 5.0005159,5.0005159 0 0 1 -2.01562,-1.042969 13.253795,13.253795 0 0 1 -0.36328,-3.884766 v -4.296874 a 35.149257,35.149257 0 0 1 0.21875,-4.199219 l 2.16015,-0.751953 -0.33984,-1.50586 z m 50.58789,0 -0.31445,1.50586 a 7.9619865,7.9619865 0 0 1 1.99023,1.068359 21.288604,21.288604 0 0 1 0.48438,5.898437 62.28798,62.28798 0 0 1 -0.21875,6.457032 l -2.13477,0.751953 0.19336,1.601562 h 7.96289 l 0.31446,-1.503906 A 8.5931195,8.5931195 0 0 1 220.36523,29.519531 50.587743,50.587743 0 0 1 219.9043,21.4375 c 1.86912,2.330338 4.0773,5.097956 5.80078,7.525391 l 2.20898,3.203125 3.32617,-0.314454 a 134.84401,134.84401 0 0 1 0.43555,-14.6875 l 2.13672,-0.77539 -0.31641,-1.50586 h -7.59765 l -0.31446,1.50586 a 7.8648891,7.8648891 0 0 1 2.42774,1.068359 41.703332,41.703332 0 0 1 0.5332,8.179688 90.349127,90.349127 0 0 1 -8.00976,-10.851563 z m -11.16601,1.992188 a 3.689701,3.689701 0 0 1 2.11132,0.55664 3.689701,3.689701 0 0 1 0.5586,2.234375 4.0780906,4.0780906 0 0 1 -1.38281,3.203125 l -3.47266,-0.144531 V 21.21875 a 30.828423,30.828423 0 0 1 0.21875,-4.199219 7.2823047,7.2823047 0 0 1 1.9668,-0.242187 z m -50.07813,0.02344 a 3.6654267,3.6654267 0 0 1 2.13672,0.558594 3.8838958,3.8838958 0 0 1 -0.80078,5.023437 l -3.39844,-0.169921 v -0.970703 a 35.149257,35.149257 0 0 1 0.21875,-4.248047 h 0.19336 a 6.3841538,6.3841538 0 0 1 1.65039,-0.19336 z m 117.99805,0.146485 a 6.3841538,6.3841538 0 0 1 3.25195,0.751953 7.2823047,7.2823047 0 0 1 1.94336,5.533203 6.8696408,6.8696408 0 0 1 -2.88867,6.482422 5.3889055,5.3889055 0 0 1 -3.98242,-0.121094 1.0923457,1.0923457 0 0 0 -0.16992,-0.169922 13.253795,13.253795 0 0 1 -0.36329,-3.884766 v -4.296874 a 35.003611,35.003611 0 0 1 0.21875,-4.173829 15.632681,15.632681 0 0 1 1.99024,-0.121093 z m -137.63672,0.04687 c 3.25276,0 4.54102,2.598808 4.54102,6.871093 a 10.99628,10.99628 0 0 1 -1.04493,5 4.5393033,4.5393033 0 0 1 -2.91211,1.042969 c -3.05856,0 -4.85546,-2.426932 -4.85546,-6.529297 a 10.001032,10.001032 0 0 1 1.52929,-5.607422 4.8548698,4.8548698 0 0 1 2.74219,-0.777343 z m 110.20703,0 c 3.25276,0 4.53906,2.598808 4.53906,6.871093 a 10.947731,10.947731 0 0 1 -1.06836,5 4.4664802,4.4664802 0 0 1 -3.08203,0.947266 c -2.96147,0 -4.71094,-2.452601 -4.71094,-6.433594 a 10.001032,10.001032 0 0 1 1.50586,-5.607422 4.8548698,4.8548698 0 0 1 2.81641,-0.777343 z m -92.63086,7.695312 h 2.91211 c 1.84485,0 2.76758,0.922725 2.76758,2.427735 a 3.4469576,3.4469576 0 0 1 -1.04297,2.597656 4.8548698,4.8548698 0 0 1 -1.74805,0.291015 4.2722854,4.2722854 0 0 1 -2.42773,-0.509765 l -0.0977,-0.04883 a 13.253795,13.253795 0 0 1 -0.36328,-3.882813 z M 169.5332,33.9375 c -3.5926,2.014771 -7.66967,4.540755 -10.84961,6.701172 l 0.70313,2.134766 0.70508,0.339843 11.43359,-2.888672 0.70313,-1.43164 A 17.696,17.696 0 0 0 169.5332,33.9375 Z m 116.1543,10.998047 a 15.317114,15.317114 0 0 0 -15.58398,15.535156 c 0,8.617394 5.9225,13.859375 14.51562,13.859375 a 15.025822,15.025822 0 0 0 15.21875,-15.535156 c 0,-8.617394 -5.77574,-13.859375 -14.15039,-13.859375 z m -31.84766,0.07227 A 15.365663,15.365663 0 0 0 237.89062,60.20313 c 0,8.811589 5.75371,14.201172 15.05079,14.201172 a 20.487551,20.487551 0 0 0 10.65625,-2.792969 l 0.63086,-1.261719 c 0,-1.553558 -0.16993,-4.272615 -0.16993,-5.996093 a 44.616253,44.616253 0 0 0 -4.85547,-0.19336 46.800945,46.800945 0 0 1 -1.57812,4.855469 8.1076326,8.1076326 0 0 1 -3.76172,0.849609 c -5.17044,0 -8.2539,-4.079013 -8.2539,-10.171875 a 15.317114,15.317114 0 0 1 2.96289,-9.443359 9.7097396,9.7097396 0 0 1 8.95703,0.292969 21.628445,21.628445 0 0 1 1.38281,5.169922 38.838958,38.838958 0 0 0 4.36914,0.21875 c 0.48549,-2.06332 1.18974,-5.147061 1.57813,-7.283203 l -0.70313,-1.212891 a 22.478047,22.478047 0 0 0 -10.31641,-2.427735 z m -78.31054,0.291016 c -3.32559,0.339841 -7.40323,0.339844 -12.47657,0.339844 h -11.18945 l -0.53516,2.427734 a 7.8648891,7.8648891 0 0 1 3.25391,1.722656 21.142958,21.142958 0 0 1 0.60547,6.335938 v 7.015625 a 49.446849,49.446849 0 0 1 -0.36328,6.820313 l -3.4961,1.287109 0.53516,2.427734 h 24.75977 V 65.42188 a 28.061147,28.061147 0 0 0 -4.56446,-0.21875 l -1.4082,4.855469 a 20.463276,20.463276 0 0 1 -3.88281,0.339844 7.6949686,7.6949686 0 0 1 -3.71485,-0.63086 A 2.7672758,2.7672758 0 0 1 162.78516,69.5 21.142958,21.142958 0 0 1 162.17969,63.164062 V 61.78125 l 8.68945,0.314453 c 0.21847,-1.043797 0.41211,-2.256147 0.58203,-3.324219 l -0.80078,-1.044922 -8.4707,0.486329 v -2.064453 c 0,-3.107117 0.29101,-5.922165 0.29101,-7.160157 h 3.42188 a 24.905482,24.905482 0 0 1 4.24804,0.339844 l 1.04493,4.587891 a 27.842678,27.842678 0 0 0 4.19922,0.21875 c 0.31556,-1.407913 1.09263,-4.951747 1.4082,-6.917969 -0.29129,-0.509761 -0.85101,-1.359659 -1.26367,-1.917969 z m 16.75,0.146484 c -2.67018,0.169921 -6.5776,0.169922 -9.70899,0.169922 l -0.53515,2.425782 a 23.643216,23.643216 0 0 1 3.34961,1.505859 121.37175,121.37175 0 0 1 7.64648,9.708984 68.672133,68.672133 0 0 1 -8.13086,10.560547 c -0.89815,0.461213 -2.20983,1.018418 -3.03516,1.333985 l 0.50977,2.427734 h 13.32617 l 0.50977,-2.427734 c -1.57784,-0.485487 -3.32535,-1.067248 -4.53906,-1.552735 1.04379,-2.087594 2.45313,-4.515924 3.8125,-6.943359 a 102.21928,102.21928 0 0 1 7.0625,11.142578 c 2.52453,-0.194195 6.40934,-0.193359 9.49218,-0.193359 l 0.53321,-2.427735 a 33.522876,33.522876 0 0 1 -3.25196,-1.505859 c -1.62638,-1.772028 -4.70957,-5.70372 -7.86523,-10.048828 a 58.476907,58.476907 0 0 1 7.98633,-10.097656 c 0.82532,-0.436939 2.08789,-1.068642 2.9375,-1.457032 l -0.53516,-2.427734 h -12.59766 l -0.53515,2.427734 a 27.648484,27.648484 0 0 1 3.93359,1.626953 c -1.0438,1.966223 -2.30637,4.1253 -3.61719,6.552735 A 103.433,103.433 0 0 1 192.2793,45.445312 Z m -86.44141,0.19336 -0.5332,2.427734 a 9.4184474,9.4184474 0 0 1 3.22851,1.771485 34.323929,34.323929 0 0 1 0,8.666015 c -0.21847,4.320834 -0.5837,9.249182 -0.875,11.482422 l -3.66406,1.189453 0.50977,2.427735 h 12.13671 l 0.4375,-2.476563 c -1.6992,-0.509761 -3.76283,-0.899003 -4.12695,-1.845703 a 45.49013,45.49013 0 0 1 0,-9.417969 l 0.24219,-8.544922 c 2.6459,5.704472 6.16519,15.123639 7.88867,19.128907 a 31.168264,31.168264 0 0 0 5.63281,0 l 7.5,-19.152344 c 0.0971,6.821092 0.65625,16.189752 0.65625,18.617187 l -3.83593,1.214844 0.50976,2.427735 h 13.71485 l 0.50976,-2.427735 a 7.7677917,7.7677917 0 0 1 -3.25195,-1.699219 18.327133,18.327133 0 0 1 -0.94727,-6.626953 l -0.72851,-13.132812 3.64062,-1.601563 -0.48437,-2.427734 h -12.59961 c -0.99525,3.713975 -4.00421,11.142068 -6.0918,16.822266 -2.13614,-5.049065 -4.95285,-12.889822 -6.09375,-16.822266 z m 112.51172,0 -0.5332,2.427734 a 7.8891634,7.8891634 0 0 1 3.25195,1.722656 21.142958,21.142958 0 0 1 0.60742,6.335938 v 7.015625 a 49.446849,49.446849 0 0 1 -0.36523,6.820313 l -3.49414,1.214843 0.5332,2.427735 h 13.69141 l 0.5332,-2.427735 a 7.6221456,7.6221456 0 0 1 -3.25195,-1.699219 21.142958,21.142958 0 0 1 -0.65625,-6.3125 v -7.015624 a 49.446849,49.446849 0 0 1 0.36523,-6.820313 l 3.49414,-1.261719 -0.5332,-2.427734 z m 66.39062,3.591797 c 5.29181,0 7.4043,4.199277 7.4043,11.166015 a 17.841647,17.841647 0 0 1 -1.72461,8.15625 7.1123843,7.1123843 0 0 1 -4.8789,1.578125 c -4.8306,0 -7.69532,-4.028514 -7.69532,-10.509765 a 16.118168,16.118168 0 0 1 2.42774,-9.126953 7.7677917,7.7677917 0 0 1 4.46679,-1.263672 z" />
</svg>
