<?xml version="1.0" encoding="UTF-8" standalone="no"?>
<svg
   width="424.47739"
   height="88.290779"
   version="1.1"
   xmlns:xlink="http://www.w3.org/1999/xlink"
   xmlns="http://www.w3.org/2000/svg">
  <title>Logotipo Secretaría de Educación Pública</title>
  <use
     width="87.115662"
     height="88.250969"
     xlink:href="#logo-mx-escudo-2020"
     x="0"
     y="0" />
  <path
     d="m 371.70201,0.75765976 c -0.75371,0.0421697 -12.65815,6.10184644 -15.52896,7.91411134 -0.54478,0.3438892 -0.55044,0.4004715 -0.17211,1.7008699 0.22213,0.763145 0.69164,1.171044 1.20706,1.048009 0.15792,-0.03766 3.41395,-0.945481 7.23243,-2.016768 9.71531,-2.7239396 8.71219,-2.3819925 9.1611,-3.1296215 0.20527,-0.3440545 0.37265,-0.7465195 0.37208,-0.8944938 -0.006,-0.68334 -1.83942,-4.46415724 -2.24401,-4.61933586 -0.007,-0.002382 -0.0159,-0.003569 -0.0272,-0.002382 z M 365.55027,14.352418 c -6.43991,-0.03955 -12.42537,3.243235 -15.48459,8.795305 -3.54251,6.423287 -3.40839,15.650876 0.3073,21.159719 3.38509,5.017813 9.52687,7.659175 16.07761,6.905449 8.80638,-1.00922 14.74752,-7.753393 15.46249,-17.562899 0.70327,-9.637701 -4.10728,-16.997603 -12.31458,-18.837579 -1.35448,-0.303816 -2.71064,-0.455229 -4.04794,-0.46343 z m -55.47636,0.0094 c -10.33601,0.107021 -18.51059,7.559418 -18.45518,18.942878 0.054,11.954299 7.82547,18.992761 19.79083,17.912053 3.49097,-0.315914 6.89991,-1.331766 9.41603,-2.807075 0.83907,-0.491914 0.96487,-0.612951 1.27025,-1.217595 l 0.33915,-0.671705 v -2.271705 c 0,-1.249186 -0.0342,-2.85695 -0.0755,-3.572987 -0.0919,-1.59723 0.0705,-1.500243 -2.59425,-1.540146 l -1.96967,-0.02897 -0.0916,0.34454 c -0.0502,0.189519 -0.37981,1.558989 -0.73212,3.043164 -0.73101,3.077527 -0.73543,3.085283 -2.0284,3.53918 -1.85162,0.650089 -5.0616,0.901704 -7.06065,0.552217 -6.12954,-1.072395 -9.4271,-6.284736 -9.18877,-14.536914 0.12453,-4.342231 1.27968,-7.947363 3.44828,-10.757206 1.39882,-1.812264 5.9245,-2.94507 9.61,-2.405269 1.82613,0.26757 3.60568,0.823002 3.83734,1.197648 0.0883,0.142861 1.04136,5.263327 1.15941,6.229314 0.10865,0.888951 0.15968,0.939384 1.05298,1.038587 1.05024,0.116712 3.22496,0.121597 3.29534,0.0075 0.0854,-0.138105 1.45426,-7.980617 1.47032,-8.423984 0.0325,-0.88964 -0.50036,-1.564114 -1.66426,-2.10613 -3.69935,-1.723093 -7.38207,-2.503973 -10.82925,-2.46795 z m -75.20622,0.007 c -11.00659,-4.34e-4 -19.60794,8.318686 -18.68793,20.566714 0.73321,9.809504 6.19605,15.390396 15.97785,16.327009 0.90724,0.0869 2.54769,0.06743 3.78968,-0.04507 3.5087,-0.317905 6.89437,-1.329552 9.4382,-2.819266 0.81689,-0.478943 0.94546,-0.603534 1.24973,-1.205955 l 0.33917,-0.6717 v -2.271707 c 0,-1.249183 -0.0342,-2.856945 -0.0755,-3.572987 -0.092,-1.597228 0.0705,-1.500243 -2.59425,-1.540143 l -1.96967,-0.02896 -0.0915,0.34454 c -0.0502,0.189518 -0.37981,1.558992 -0.73212,3.043163 -0.73102,3.077527 -0.73545,3.085284 -2.02841,3.539182 -1.85161,0.650086 -5.0616,0.901699 -7.06064,0.552216 -4.42204,-0.773674 -7.43194,-3.772499 -8.6512,-8.629038 -1.4365,-5.702819 -0.22656,-12.641522 2.90739,-16.665084 1.8516,-2.377556 8.36856,-3.301424 12.38103,-1.754072 0.48666,0.187712 0.9394,0.406845 1.00589,0.487206 0.13479,0.162598 0.54834,2.199657 1.04692,5.159689 0.1856,1.101768 0.39159,1.992939 0.47211,2.042262 0.194,0.11987 2.2706,0.249007 3.26152,0.202786 l 0.80417,-0.03747 0.14064,-0.71105 c 0.13245,-0.668989 1.03252,-5.85251 1.2686,-7.304542 0.0996,-0.612954 0.082,-0.721025 -0.21846,-1.356702 -0.32298,-0.682931 -0.3382,-0.696232 -1.38999,-1.186153 -3.61787,-1.685351 -7.2158,-2.465124 -10.58539,-2.465677 z m 40.11923,0.218913 -1.17549,0.0036 c -1.80504,0.0053 -7.06616,0.413219 -7.31555,0.567511 -0.0711,0.04395 -0.48495,1.264152 -0.91944,2.711748 -1.34008,4.461941 -10.29168,28.170464 -10.85141,28.741305 -0.0826,0.0843 -0.99703,0.425682 -2.03175,0.758708 -1.59834,0.514583 -1.88652,0.642328 -1.91755,0.850157 -0.0347,0.232818 0.29101,2.046698 0.40012,2.227922 0.0283,0.04736 3.14792,0.08614 6.93318,0.08614 6.43436,0 6.8888,-0.01273 6.98302,-0.200952 h 2.2e-4 c 0.14869,-0.291953 0.52772,-2.201321 0.45195,-2.276697 -0.0349,-0.03536 -1.13501,-0.342283 -2.44294,-0.68223 -1.3085,-0.339875 -2.41027,-0.649535 -2.44906,-0.68833 -0.0386,-0.03867 0.497,-1.759615 1.19044,-3.824045 l 1.26082,-3.754212 1.49304,-0.07308 c 0.82135,-0.04024 3.88836,-0.09195 6.81678,-0.114846 l 5.3232,-0.04171 0.62069,1.780115 c 0.34134,0.979288 0.96377,2.724498 1.38334,3.878359 0.41924,1.153868 0.7332,2.127055 0.69773,2.162528 -0.035,0.03536 -1.01586,0.312341 -2.17915,0.615723 -1.16329,0.303083 -2.23403,0.588576 -2.37922,0.634572 -0.29467,0.09353 -0.28736,0.726016 0.0228,1.95359 l 0.14517,0.574165 7.63149,0.02934 c 4.19647,0.01614 7.67025,-0.0094 7.71458,-0.05746 0.18538,-0.186657 0.57028,-2.24566 0.44344,-2.373684 -0.0681,-0.06872 -0.98706,-0.40917 -2.04283,-0.756498 -1.85205,-0.609494 -1.92577,-0.645519 -2.10642,-1.03346 -1.04914,-2.249532 -11.12299,-29.378643 -11.56638,-31.152112 z m -145.36914,0.190401 c -0.28586,0.0042 -0.66062,0.02129 -1.05522,0.04936 -2.64525,0.188318 -10.66854,0.331251 -18.67687,0.33286 -6.24593,0.0012 -7.9529,0.03219 -7.99169,0.1451 -0.13058,0.351036 -0.47158,2.265608 -0.41383,2.323246 0.035,0.03528 0.67003,0.238807 1.41045,0.452179 2.11931,0.610739 2.83978,1.0203 3.04483,1.731905 0.357,1.237551 0.27792,26.474587 -0.0841,26.834826 -0.0605,0.06062 -1.0469,0.381957 -2.1919,0.714374 -1.14499,0.332427 -2.11819,0.640666 -2.16253,0.685 -0.0698,0.06979 0.24708,1.935857 0.39726,2.339878 0.0762,0.204902 29.25672,0.211334 29.38419,0.0064 0.18368,-0.29718 0.10164,-9.388309 -0.0863,-9.576739 -0.13578,-0.135763 -0.60686,-0.189591 -2.14091,-0.244702 l -1.96689,-0.07065 -0.12094,0.276114 c -0.0666,0.151863 -0.40002,1.513544 -0.74097,3.025984 -0.41156,1.825011 -0.68168,2.794881 -0.8036,2.883551 -0.43695,0.319485 -5.76932,0.574165 -8.4517,0.403297 -3.19613,-0.203398 -3.67829,-0.381244 -3.91272,-1.44482 -0.1542,-0.698862 -0.2906,-10.485647 -0.14803,-10.6242 0.0543,-0.05272 2.62031,-0.01597 5.70282,0.08186 3.08195,0.09776 5.63631,0.145816 5.6751,0.106796 0.0933,-0.09328 0.60188,-2.681265 0.6052,-3.081958 10e-4,-0.206665 -0.14646,-0.46792 -0.44232,-0.779219 l -0.44526,-0.468084 -0.90391,0.06324 c -2.15088,0.150141 -10.04781,0.410502 -10.16419,0.335353 -0.13693,-0.08456 -0.0493,-8.601331 0.11616,-11.300331 l 0.074,-1.204851 0.6318,-0.09599 c 1.15608,-0.175745 10.76828,-0.0369 10.96779,0.158338 0.10473,0.104754 0.3559,1.25085 0.66561,3.037622 0.59467,3.430001 0.33597,3.133498 2.82758,3.23603 l 1.71972,0.07065 L 130,24.904447 c 0.1577,-0.683894 1.32789,-7.93628 1.32789,-8.230011 0,-0.320663 -0.87123,-1.709737 -1.17937,-1.879878 -0.0389,-0.02145 -0.23589,-0.02967 -0.52173,-0.02536 z m 23.1992,0.07875 c -1.25474,0.0075 -2.74167,0.04818 -4.55448,0.12088 -2.52277,0.10125 -6.10185,0.184164 -7.94737,0.184164 -3.08585,0 -3.37016,0.01649 -3.46382,0.200958 -0.14474,0.284088 -0.52893,2.20021 -0.45578,2.273366 0.0331,0.03334 0.74319,0.266629 1.57728,0.518353 1.54237,0.465479 2.49173,0.872881 2.74555,1.178803 0.36222,0.436494 0.4191,2.234017 0.40868,12.940792 -0.01,10.247327 -0.1077,14.115714 -0.36267,14.370649 -0.0663,0.06642 -1.06075,0.395924 -2.20964,0.732109 -1.14887,0.336416 -2.12095,0.642887 -2.1592,0.681679 -0.0789,0.07893 0.29289,1.973541 0.44276,2.256188 0.0867,0.163485 0.70108,0.193204 5.41407,0.262006 2.92402,0.04266 6.47871,0.14608 7.90304,0.229655 3.35517,0.197456 5.06768,0.213518 6.61171,0.06256 10.24179,-1.001461 16.28268,-8.64013 15.54557,-19.668896 -0.61904,-9.321823 -5.61968,-14.78633 -14.71425,-16.094263 -1.23755,-0.178123 -2.6846,-0.25804 -4.77618,-0.245625 z m 242.35581,0.139275 c -1.9863,-0.01744 -9.17771,0.190315 -9.23314,0.287304 -0.0379,0.06169 -0.16287,0.607968 -0.27684,1.214273 -0.24376,1.29408 -0.36451,1.136685 1.31454,1.712507 1.55571,0.533538 2.77276,1.172153 2.95118,1.549017 0.34683,0.732109 0.42945,3.330798 0.4282,13.489456 0,10.241791 -0.0907,13.140307 -0.41429,13.434036 -0.0832,0.07512 -1.02965,0.384567 -2.10376,0.687776 -1.07354,0.30316 -2.01789,0.611846 -2.09766,0.685557 -0.1494,0.137388 0.0615,1.592247 0.32048,2.21739 l 0.10711,0.258358 h 14.36512 l 0.1071,-0.258358 c 0.2088,-0.50344 0.46768,-2.078836 0.35925,-2.186908 -0.0586,-0.05854 -0.76976,-0.254446 -1.5806,-0.435385 -2.08659,-0.465482 -3.62059,-0.967098 -3.91485,-1.280226 -0.30474,-0.324189 -0.4391,-1.358367 -0.59859,-4.602705 -0.19487,-3.964263 -0.39519,-15.811599 -0.26934,-15.939067 0.19374,-0.193863 9.75411,11.865626 16.33255,20.599963 1.79453,2.38255 3.29479,4.332255 3.33413,4.332255 0.0395,0 1.10339,-0.106119 2.36484,-0.235785 1.26139,-0.129632 2.33763,-0.280178 2.39247,-0.334647 0.0548,-0.05452 0.14298,-4.664225 0.19561,-10.241797 0.12936,-13.572584 0.37092,-20.683091 0.71108,-20.904775 0.0782,-0.05064 0.32314,-0.143695 0.54412,-0.206828 2.61864,-0.747076 3.73595,-1.136131 3.77086,-1.312923 0.0338,-0.166379 -0.21781,-1.525186 -0.39881,-2.160863 -0.0537,-0.188654 -0.49664,-0.200958 -7.22136,-0.200958 -6.71148,0 -7.1715,0.01272 -7.2657,0.200958 -0.144,0.287635 -0.5245,2.206306 -0.45198,2.27891 0.034,0.03337 0.82854,0.258759 1.76688,0.500837 3.64337,0.939942 3.58792,0.885626 3.82676,3.73759 0.30735,3.671638 0.61854,18.316623 0.38875,18.316623 -0.12,0 -0.71323,-0.729341 -5.09376,-6.257025 -6.98858,-8.823015 -11.30585,-14.586792 -13.42849,-17.934217 -0.32691,-0.515361 -0.65674,-0.959338 -0.73319,-0.986494 -0.0339,-0.01258 -0.21291,-0.01967 -0.49662,-0.02221 z m -204.55873,0.164159 -15.42919,0.05924 -0.26513,1.140563 c -0.32125,1.382753 -0.38328,1.297405 1.29241,1.783448 1.47255,0.427018 2.41914,0.869554 2.71674,1.270247 0.38131,0.51281 0.45644,1.855494 0.552,9.876016 0.10805,9.07795 0.18371,9.964684 1.09844,12.885365 1.70254,5.440122 5.06715,8.157967 11.25045,9.089037 0.9599,0.144646 5.30988,-0.03009 6.35123,-0.255046 5.48724,-1.188225 8.97821,-4.517918 10.30276,-9.820592 0.51034,-2.047805 0.6296,-3.321381 0.63291,-6.733645 0.006,-5.301567 0.23244,-15.196423 0.35327,-15.340518 0.0613,-0.07403 1.09899,-0.412277 2.30497,-0.752062 1.30737,-0.36805 2.2185,-0.682787 2.25618,-0.77922 0.0609,-0.154788 -0.0926,-1.078492 -0.33089,-1.991829 l -0.11209,-0.430681 h -6.88327 c -6.43992,0 -6.88884,0.01289 -6.98306,0.200956 -0.14107,0.276995 -0.52975,2.199105 -0.45893,2.270043 0.0316,0.0316 0.86954,0.288578 1.86215,0.570836 2.26449,0.643991 2.791,0.871772 2.94396,1.274683 0.46914,1.23367 0.42949,16.454477 -0.0527,20.261891 -0.38973,3.075866 -0.67671,3.940432 -1.58005,4.757893 -2.74059,2.48009 -8.14133,3.055358 -11.62177,1.238102 -2.2634,-1.182129 -3.61844,-3.458269 -4.28737,-7.19918 -0.18279,-1.022514 -0.20521,-1.940284 -0.20521,-8.385187 0,-8.157962 0.0912,-10.77383 0.38645,-11.067563 0.10379,-0.103541 1.09291,-0.441372 2.19801,-0.750953 1.10508,-0.30936 2.05723,-0.605753 2.11597,-0.657849 0.10413,-0.09304 -0.0418,-1.143888 -0.28914,-2.082163 z m 145.20289,0.0018 c -4.13108,0 -7.53726,0.04354 -7.57051,0.09688 -0.0328,0.05334 -0.1673,0.579148 -0.29857,1.168273 -0.28701,1.288538 -0.33241,1.223695 1.14887,1.648774 2.74667,0.788641 3.04761,0.998685 3.25213,2.269488 0.28159,1.751857 0.15098,25.792909 -0.1427,26.269533 -0.0457,0.07382 -1.0092,0.396588 -2.14147,0.717144 -1.13223,0.320691 -2.12537,0.64621 -2.20686,0.723797 -0.13711,0.130071 0.17371,2.031736 0.38895,2.380334 0.0959,0.155288 15.06342,0.123588 15.15764,-0.03198 0.0959,-0.155429 0.5007,-1.913133 0.50489,-2.193007 0.001,-0.143841 -0.17708,-0.247449 -0.65731,-0.380187 -3.38955,-0.936614 -3.77638,-1.199311 -3.9659,-2.695123 -0.32326,-2.546038 -0.11956,-25.731947 0.22898,-26.081099 0.0641,-0.06401 1.05633,-0.391438 2.20576,-0.727678 1.14889,-0.336404 2.12043,-0.642883 2.15866,-0.681123 0.0794,-0.07954 -0.29213,-1.979083 -0.44658,-2.282234 -0.0959,-0.188318 -0.57583,-0.200958 -7.61482,-0.200958 z m -183.33249,3.539719 c 3.99306,-0.01068 7.33218,0.863458 8.96711,2.421896 2.43574,2.318813 3.99861,6.855571 3.99972,11.610688 0.001,6.528587 -2.41191,11.677199 -6.42883,13.711142 -1.22979,0.622935 -4.32338,0.961004 -6.91654,0.755393 -2.48451,-0.197078 -3.93321,-0.631247 -4.05737,-1.217043 -0.31271,-1.471437 -0.39271,-21.91899 -0.10068,-25.743035 0.0975,-1.278008 0.0266,-1.219262 1.67704,-1.386634 0.97872,-0.0992 1.93474,-0.148686 2.85639,-0.151188 z m 212.20682,0.159281 c 0.20731,-0.0013 0.41392,0.0021 0.61902,0.0114 6.45101,0.28664 9.73193,4.989549 9.73193,13.949452 0,4.670877 -1.08681,9.005903 -2.86416,11.422258 -0.64011,0.870663 -2.31493,1.806722 -4.08396,2.282231 -1.22814,0.330472 -4.31066,0.414886 -5.49832,0.150516 -5.17853,-1.152752 -7.88085,-5.415181 -8.07483,-12.735733 -0.13244,-4.971813 0.85238,-9.244213 2.84753,-12.358872 0.97097,-1.516316 4.21643,-2.69512 7.32666,-2.716734 z m -95.04695,0.837411 c 0.20615,0 5.74715,15.12992 5.63633,15.407023 -0.0417,0.108731 -0.25671,0.148244 -0.72327,0.133025 -0.36515,-0.01187 -2.76549,-0.05069 -5.33424,-0.08612 -2.56878,-0.03548 -4.71246,-0.106807 -4.76455,-0.15857 -0.16767,-0.167637 4.95851,-15.296179 5.18297,-15.296179 z"
     fill="#9b233e"
     style="stroke:none" />
  <path
     d="m 349.4228,72.467928 c -0.10711,-0.04627 -0.13727,0.03423 0.71327,-1.910353 0.30818,-0.704959 0.97984,-2.227371 1.49247,-3.382897 l 0.93217,-2.101563 1.73857,-0.01175 1.2032,2.709529 c 0.66171,1.490272 1.3988,3.145692 1.63768,3.678843 0.33656,0.750953 0.42734,0.975964 0.40362,0.999796 -0.0225,0.02256 -0.2415,0.02897 -0.84295,0.02445 -0.4468,-0.0027 -0.84294,-0.01244 -0.88009,-0.0207 -0.0618,-0.01346 -0.0958,-0.08167 -0.38185,-0.76869 -0.19918,-0.478443 -0.32891,-0.758153 -0.35495,-0.765357 -0.0226,-0.0061 -0.69277,-0.01806 -1.48918,-0.02671 -0.79639,-0.0083 -1.54014,-0.02183 -1.65317,-0.03009 l -0.20506,-0.01472 -0.32032,0.79529 c -0.31114,0.772011 -0.32257,0.795293 -0.39727,0.808593 -0.1572,0.02707 -1.53792,0.04191 -1.59556,0.01687 z m 5.11922,-2.921786 c 0,-0.03649 -0.63236,-1.566197 -0.83186,-2.012341 -0.185,-0.413378 -0.25967,-0.551046 -0.29923,-0.551046 -0.0392,0 -0.30312,0.568618 -0.58247,1.25584 -0.14047,0.345367 -0.31882,0.779775 -0.3963,0.96543 -0.0775,0.185642 -0.1342,0.34424 -0.12601,0.352362 0.0268,0.02671 2.23624,0.01651 2.23624,-0.01009 z m -10.85144,2.985527 c -1.2342,-0.176313 -2.27945,-0.964328 -2.8597,-2.155874 -0.19336,-0.396874 -0.27665,-0.671704 -0.30682,-1.01199 -0.0541,-0.611847 -0.0184,-1.353934 0.0787,-1.647664 0.0894,-0.26934 0.32549,-0.733777 0.52892,-1.041362 0.24753,-0.373542 0.6839,-0.818008 1.02752,-1.046348 0.62571,-0.415432 1.32842,-0.629027 2.18303,-0.662832 1.23809,-0.04903 2.32546,0.365792 3.0304,1.156083 l 0.14727,0.165064 -0.30072,0.290181 c -0.16536,0.159617 -0.40113,0.386782 -0.52383,0.50483 l -0.22312,0.214646 -0.25134,-0.210057 c -0.54585,-0.456228 -0.97098,-0.616278 -1.63548,-0.616278 -0.67448,0 -1.2564,0.218519 -1.66541,0.625144 -0.30441,0.302709 -0.49541,0.65563 -0.59799,1.104541 -0.0566,0.247786 -0.0546,0.90558 0.002,1.159962 0.17032,0.74707 0.61904,1.289092 1.28741,1.556772 0.32922,0.131709 0.61297,0.173721 1.07518,0.159279 0.67835,-0.02107 0.98705,-0.144866 1.5562,-0.624039 0.12293,-0.103543 0.23267,-0.1882 0.24379,-0.1882 0.0107,0 0.24861,0.228676 0.52781,0.508153 l 0.50767,0.508158 -0.23881,0.243273 c -0.47296,0.481773 -1.19212,0.867335 -1.84053,0.986495 -0.31096,0.0571 -1.41212,0.07133 -1.75352,0.02256 z m -7.65361,-3.754771 V 65.06092 h 1.71693 v 7.431954 h -1.71693 z m -7.76448,0 V 65.06092 h 1.71695 v 6.024257 h 3.69047 v 1.409355 h -5.40798 z m -9.61,1.11e-4 v -3.741473 l 0.60852,0.01346 c 0.3348,0.0075 1.48308,0.0057 2.40196,-0.0027 0,0 1.23422,-0.02897 1.65542,0.111736 0.1913,0.06395 0.49407,0.174129 0.49407,0.174129 0.49697,0.251361 0.67671,0.358684 0.8618,0.544733 0.17158,0.172179 0.28902,0.394927 0.34793,0.660067 0.0611,0.27506 0.0427,0.859577 -0.0339,1.069068 -0.0767,0.209942 -0.31167,0.551765 -0.54757,0.7964 -0.11078,0.114657 -0.20128,0.216302 -0.20141,0.225969 0,0.0099 0.14166,0.115263 0.31513,0.234849 0.50543,0.348414 0.73657,0.643988 0.85626,1.093456 0.0598,0.22548 0.0593,0.74375 -0.001,0.973746 -0.14385,0.551327 -0.52905,0.964878 -1.18324,1.270248 -0.35045,0.163787 -0.57691,0.210621 -1.16605,0.241092 -0.41576,0.02145 -3.44219,0.0775 -4.1904,0.0775 h -0.21786 z m 2.92181,2.408592 c 1.23644,-0.03818 1.54014,-0.07485 1.77902,-0.214872 0.23921,-0.140168 0.35622,-0.358798 0.35836,-0.668932 0.001,-0.226081 -0.0621,-0.406624 -0.20083,-0.570837 -0.2283,-0.269905 -0.68224,-0.338783 -2.23458,-0.338935 l -0.84904,-9.6e-5 -0.0146,0.134561 c -0.008,0.07395 -0.0215,0.440159 -0.0298,0.813585 -0.008,0.37343 -0.021,0.722683 -0.0285,0.775337 l -0.0146,0.09612 0.21372,-3.82e-4 c 0.11756,-2.09e-4 0.57694,-0.01175 1.02086,-0.0252 z m -0.43573,-3.063113 c 1.45924,-0.04389 1.89761,-0.139714 2.07772,-0.454455 0.0565,-0.09836 0.0621,-0.137489 0.0621,-0.4161 0,-0.27886 -0.006,-0.316703 -0.0608,-0.405066 -0.0838,-0.135046 -0.30571,-0.295489 -0.48583,-0.351539 -0.20254,-0.063 -0.61021,-0.09732 -1.5169,-0.127596 -0.41582,-0.01391 -0.77644,-0.02521 -0.80083,-0.02521 -0.0418,0 -0.0449,0.06031 -0.0449,0.911674 v 0.911675 l 0.13448,-0.0139 c 0.0741,-0.0075 0.35948,-0.0207 0.63457,-0.02896 z m -9.69313,-3.622868 c -0.0662,-0.0099 -0.12849,-0.02558 -0.13801,-0.03499 -0.0349,-0.03499 0.0894,-0.174467 0.76924,-0.861234 l 0.69389,-0.701082 0.49979,0.01579 c 0.27485,0.0087 0.65229,0.02295 0.83906,0.0316 l 0.3395,0.01614 -0.73655,0.587461 c -0.78364,0.625148 -1.12559,0.870662 -1.28133,0.91999 -0.10935,0.03461 -0.80304,0.05327 -0.98594,0.02596 z m 0.28731,8.080373 c -0.48307,-0.03574 -0.8618,-0.140008 -1.26584,-0.347775 -0.73099,-0.3755 -1.21094,-0.957673 -1.44925,-1.7574 -0.1462,-0.491194 -0.18039,-1.161066 -0.1806,-3.54805 V 65.06241 h 1.68479 l 0.0177,1.26249 c 0.0218,1.589476 0.0586,2.845862 0.0941,3.209983 0.0345,0.35733 0.10769,0.698305 0.18675,0.871213 0.21996,0.4805 0.88342,0.764812 1.58613,0.680017 0.38957,-0.0471 0.62406,-0.137299 0.87513,-0.337053 0.44756,-0.355675 0.48602,-0.571943 0.52892,-2.97001 0.0146,-0.810253 0.0285,-1.750194 0.0319,-2.088817 l 0.006,-0.615173 1.71695,-0.01346 -0.007,0.634571 c -0.0182,1.80506 -0.061,3.978119 -0.0842,4.261316 -0.0297,0.364664 -0.0912,0.617391 -0.21517,0.885626 -0.31207,0.675584 -0.90392,1.237549 -1.59058,1.510776 -0.43871,0.174431 -1.29186,0.274042 -1.93473,0.226118 z m -11.81576,-3.815178 v -3.729829 l 0.59575,0.01472 c 0.32779,0.0081 1.36448,-0.01919 2.20909,-0.0057 0,0 0.75152,-0.0017 1.31902,0.0795 0.16431,0.0237 0.61018,0.15676 0.61018,0.15676 0.68171,0.24064 0.93273,0.621827 1.17603,0.94327 0.48445,0.639005 0.63569,1.720819 0.34534,2.468446 -0.26363,0.678908 -0.84016,1.203746 -1.69586,1.543474 -0.37991,0.150727 -0.57474,0.172445 -1.96303,0.218709 l -0.86678,0.02858 -0.007,1.005892 -0.007,1.005892 h -1.71639 z m 2.5887,0.269757 c 0.80916,-0.04546 1.32955,-0.125227 1.49802,-0.229505 0.13258,-0.08189 0.31962,-0.297669 0.3884,-0.447966 0.27477,-0.60021 0.10877,-1.341738 -0.36146,-1.616072 -0.28082,-0.163751 -0.62958,-0.211827 -2.05666,-0.283487 l -0.33963,-0.01686 v 2.619745 l 0.21144,-3.85e-4 c 0.11625,-2.02e-4 0.41328,-0.01175 0.66008,-0.02558 z m -17.11952,-0.259675 v -3.719853 l 0.50616,0.01687 c 0.2784,0.0094 0.61018,0.02407 0.7371,0.03234 l 0.23068,0.01543 3.58795,4.381579 0.0184,-0.970423 c 0.0107,-0.533642 0.0259,-1.532388 0.0349,-2.21961 l 0.0159,-1.249182 h 1.71086 v 7.431946 l -1.47365,-5.5e-4 -1.71694,-2.103781 c -0.94423,-1.15677 -1.75282,-2.144922 -1.79659,-2.195914 l -0.08,-0.09246 -0.0159,1.511329 c -0.008,0.831314 -0.0237,1.82002 -0.0323,2.196884 l -0.0159,0.685561 h -1.71061 z m -7.49847,-4.272974 c -0.14976,-0.02258 -0.16554,-0.03777 -0.11601,-0.111427 0.066,-0.09803 0.4203,-0.503829 0.87786,-1.005892 l 0.435,-0.476784 0.64066,0.01686 c 0.35243,0.0094 0.74985,0.02407 0.88396,0.03272 l 0.24305,0.01579 -0.61738,0.490639 c -0.90504,0.719365 -1.07848,0.847386 -1.28964,0.952133 l -0.19076,0.0948 -0.37311,0.0044 c -0.20515,0.0021 -0.42734,-0.0037 -0.49368,-0.01391 z m -0.007,8.080376 c -0.80528,-0.212165 -1.16271,-0.356164 -1.61441,-0.6512 -0.85459,-0.557538 -1.41378,-1.376659 -1.63215,-2.390859 -0.0756,-0.350709 -0.082,-1.116176 -0.0119,-1.462007 0.16662,-0.829097 0.59634,-1.58393 1.20264,-2.111537 0.23809,-0.207348 0.6878,-0.499009 0.99756,-0.646763 0.50734,-0.242334 0.95659,-0.320428 1.84111,-0.320428 0.53475,1.3e-5 0.63401,0.0068 0.88285,0.06007 0.81416,0.174235 1.45258,0.517631 2.02895,1.091238 0.50773,0.505385 0.76704,0.960446 0.94382,1.658196 0.0894,0.352852 0.12132,0.625702 0.12103,1.034706 -10e-4,0.997579 -0.31745,1.79675 -0.98594,2.490622 -0.40535,0.420863 -0.85293,0.73377 -1.36557,0.954349 -0.48724,0.20983 -0.91444,0.281117 -1.77845,0.296614 -0.31721,0.0057 -0.59965,0.0044 -0.62792,-0.0027 z m 1.0807,-1.523526 c 0.31513,-0.03499 0.59356,-0.116389 0.80361,-0.234282 0.74542,-0.419207 1.17438,-1.261937 1.1184,-2.198546 -0.0624,-1.048015 -0.66283,-1.810607 -1.62939,-2.069981 -0.21517,-0.05778 -0.29551,-0.06583 -0.65506,-0.06572 -0.47336,0 -0.67226,0.04123 -1.03195,0.212992 -0.26926,0.128694 -0.39636,0.216716 -0.59355,0.410781 -0.43162,0.425019 -0.5919,0.868998 -0.5919,1.641569 0,0.612953 0.0648,0.938275 0.24923,1.253072 0.12512,0.213479 0.53037,0.636782 0.74762,0.781429 0.25645,0.170439 0.38991,0.214572 0.84795,0.280215 0.14092,0.01995 0.50237,0.01472 0.73487,-0.0114 z m -8.80642,-2.27949 v -3.715977 h 1.61442 v 7.43195 h -1.61442 z m -6.37895,3.764742 c -0.79807,-0.10714 -1.55733,-0.486263 -2.14644,-1.072399 -0.28059,-0.279048 -0.47968,-0.549774 -0.66452,-0.903913 -0.56641,-1.084032 -0.57525,-2.43464 -0.0241,-3.533082 0.25389,-0.505939 0.75206,-1.072397 1.21203,-1.377766 1.11121,-0.738764 2.68185,-0.907795 3.93824,-0.424024 0.27046,0.104076 0.64178,0.309179 0.92607,0.511088 0.18474,0.131401 0.57362,0.48754 0.57362,0.525395 0,0.01774 -1.04302,0.9549 -1.07682,0.967088 -0.0119,0.0044 -0.13917,-0.07987 -0.28321,-0.187109 -0.60353,-0.449357 -1.25804,-0.646765 -1.90534,-0.575821 -0.81527,0.08971 -1.47201,0.546669 -1.82171,1.267477 -0.15702,0.32396 -0.17856,0.450737 -0.17797,1.05078 0.001,0.601875 0.0278,0.747071 0.2028,1.085694 0.22966,0.444427 0.54734,0.768137 0.9488,0.966543 0.38396,0.189818 0.5592,0.224727 1.12783,0.22503 0.45627,1.99e-4 0.50116,-0.0037 0.71325,-0.06891 0.34667,-0.105964 0.54164,-0.218371 0.94936,-0.547284 0.1723,-0.138968 0.20793,-0.157986 0.2435,-0.130334 0.0228,0.01774 0.19159,0.160698 0.37489,0.317568 0.39231,0.335811 0.6789,0.617389 0.6789,0.666716 0,0.05639 -0.27856,0.31501 -0.54041,0.501613 -0.52856,0.376689 -1.05081,0.622929 -1.48418,0.699408 -0.29057,0.05143 -1.46811,0.07502 -1.76406,0.03536 z m -12.77453,-0.06621 c -0.0933,-0.0064 -0.15365,-0.02332 -0.16198,-0.04518 -0.0208,-0.05379 0.61903,-1.526846 2.33375,-5.374163 l 0.86403,-1.939185 0.31183,-0.01614 c 0.17157,-0.0087 0.56307,-0.01844 0.87011,-0.02183 l 0.55809,-0.0057 0.80915,1.806723 c 2.01288,4.494637 2.46678,5.523807 2.44682,5.542098 -0.0527,0.0527 -0.27032,0.06767 -0.99257,0.06824 l -0.77256,5.5e-4 -0.0673,-0.160166 c -0.0369,-0.0881 -0.18729,-0.454281 -0.33425,-0.813578 l -0.26702,-0.653412 h -0.12351 c -0.64455,0 -3.2377,0.04846 -3.25765,0.06079 -0.0146,0.0087 -0.14342,0.298685 -0.28719,0.643992 -0.14369,0.345328 -0.28464,0.682232 -0.31315,0.749292 -0.0432,0.100989 -0.0651,0.123192 -0.13216,0.133538 -0.11137,0.01739 -1.30296,0.03499 -1.48472,0.02221 z m 4.41207,-2.920684 c 0.61294,-0.01651 0.6196,-0.01739 0.60297,-0.07049 -0.0345,-0.111949 -1.09955,-2.654662 -1.11174,-2.654662 -0.0146,0 -1.09622,2.598691 -1.1195,2.687915 -0.0146,0.0538 -0.0107,0.05414 0.49723,0.05414 0.28126,0 0.79032,-0.0075 1.13113,-0.01687 z m -9.97577,3.014899 c -1.06963,-0.122475 -1.88433,-0.541463 -2.55547,-1.313478 -0.55094,-0.63401 -0.79473,-1.220917 -0.87123,-2.094357 -0.0987,-1.131697 0.20275,-2.118183 0.87233,-2.852514 0.80694,-0.885629 1.69257,-1.29408 2.91016,-1.342296 1.00865,-0.0401 1.79785,0.188089 2.68348,0.775894 0.33656,0.223223 0.45589,0.341005 0.45589,0.449741 0,0.109658 -0.13595,0.278898 -0.57139,0.711049 l -0.42334,0.420256 -0.20097,-0.190834 c -0.23926,-0.227174 -0.38112,-0.3275 -0.63013,-0.445583 -0.55533,-0.263137 -1.30128,-0.287174 -1.92365,-0.06196 -0.69831,0.252751 -1.15,0.749295 -1.34119,1.473647 -0.0575,0.21852 -0.0675,0.311664 -0.07,0.652305 -0.002,0.514744 0.0645,0.835745 0.25759,1.207619 0.3925,0.75705 1.37056,1.235334 2.30774,1.128921 0.56695,-0.06445 0.96987,-0.25388 1.41599,-0.666154 l 0.1919,-0.177184 0.42318,0.401745 c 0.23276,0.220966 0.48085,0.45517 0.55133,0.520459 l 0.12805,0.118682 -0.10259,0.106131 c -0.0565,0.05837 -0.2006,0.184099 -0.32039,0.279463 -0.62018,0.493353 -1.12781,0.734877 -1.78623,0.849601 -0.34594,0.06025 -1.0785,0.08573 -1.40158,0.04872 z m -10.00902,0.0017 c -0.44614,-0.04402 -0.70166,-0.111569 -1.06742,-0.282207 -0.63014,-0.293718 -1.09069,-0.73488 -1.37998,-1.320121 -0.32378,-0.655631 -0.3713,-1.176039 -0.37149,-4.068457 V 65.06407 h 1.68537 l 0.0159,0.916109 c 0.0616,3.561349 0.0901,3.991974 0.29473,4.429244 0.14254,0.304477 0.47716,0.549112 0.87231,0.637336 0.24288,0.05431 0.69665,0.05602 0.95049,0.0033 0.412,-0.08523 0.79915,-0.356955 0.93273,-0.654526 0.15721,-0.35022 0.18711,-0.678899 0.22072,-2.423004 0.0146,-0.775334 0.034,-1.746867 0.042,-2.159194 l 0.0146,-0.749846 h 1.71361 l -0.0159,1.044128 c -0.034,2.320477 -0.0643,3.64725 -0.0895,3.914934 -0.0347,0.367299 -0.0994,0.597996 -0.25441,0.906689 -0.36712,0.731559 -1.01753,1.280223 -1.78013,1.500799 -0.44321,0.128489 -1.26471,0.194371 -1.78343,0.143137 z m -12.85781,-3.794709 v -3.722068 l 1.73634,0.01391 c 1.81282,0.01434 2.26062,0.03461 2.68071,0.122607 0.96213,0.200839 1.8472,0.759262 2.36704,1.494144 0.2766,0.390607 0.50886,0.922757 0.57194,1.310704 0.0383,0.235446 0.0388,1.360585 10e-4,1.576171 -0.15968,0.904472 -0.89835,1.883756 -1.80282,2.390865 -0.46812,0.262495 -1.02696,0.431337 -1.59444,0.481658 -0.19273,0.01687 -1.09791,0.03461 -2.14647,0.04191 l -1.81339,0.012 z m 3.45275,2.24344 c 0.37444,-0.04141 0.72656,-0.119123 0.98871,-0.218142 0.20824,-0.07869 0.50505,-0.2839 0.65674,-0.454061 0.37012,-0.415218 0.59133,-1.22758 0.51646,-1.894841 -0.0368,-0.33017 -0.10141,-0.545956 -0.24746,-0.829656 -0.36146,-0.702184 -0.92054,-0.994807 -2.09934,-1.100106 -0.30495,-0.02707 -1.2553,-0.07893 -1.44926,-0.07893 h -0.10117 v 2.328233 c 0,1.280224 0.006,2.332665 0.0107,2.338763 0.0199,0.01995 1.35613,-0.05079 1.72468,-0.09155 z M 213.99635,68.77959 v -3.715977 h 5.61414 v 1.409356 h -3.89553 v 1.563426 h 3.3829 v 1.409353 h -3.38309 v 1.640463 h 3.99806 v 1.409355 h -5.7139 z m -13.09597,0.01435 v -3.73102 h 5.61414 v 1.409353 h -3.89553 v 1.563425 h 3.48543 v 1.409352 h -3.48562 v 1.63381 l 0.40368,0.01579 c 0.22202,0.0087 1.13336,0.02331 2.02454,0.03234 l 1.62107,0.01651 v 1.294079 l -0.26273,0.01544 c -0.14444,0.0083 -1.42155,0.02221 -2.83865,0.03047 -1.41659,0.0083 -2.59594,0.0207 -2.62031,0.02783 -0.0426,0.012 -0.0449,-0.177324 -0.0449,-3.718195 z m -8.98372,3.699352 c -0.76206,-0.0207 -1.13225,-0.0567 -1.19155,-0.115499 -0.0339,-0.0331 -0.0377,-0.395647 -0.0332,-2.991065 0.002,-1.623836 0.0119,-3.248776 0.0222,-3.610123 l 0.0177,-0.657296 0.69553,-0.01844 c 1.094,-0.02897 3.09967,-0.0017 3.42833,0.04637 0.55477,0.08138 0.99647,0.219424 1.45755,0.455666 0.62407,0.319827 1.29578,1.005339 1.56343,1.595018 0.33244,0.733221 0.40503,1.827231 0.17461,2.631383 -0.41046,1.43319 -1.69975,2.457924 -3.28756,2.612548 -0.25969,0.0252 -0.68945,0.04048 -1.74358,0.06146 -0.22556,0.0044 -0.72157,-3.05e-4 -1.1023,-0.01056 z m 1.10231,-1.394392 c 1.7369,-0.06466 2.27945,-0.202082 2.78214,-0.703844 0.25802,-0.257832 0.39376,-0.503833 0.50338,-0.912233 0.0611,-0.228187 0.0685,-0.300753 0.0693,-0.690545 10e-4,-0.527939 -0.0474,-0.761479 -0.23927,-1.153304 -0.24857,-0.508045 -0.65618,-0.831314 -1.24308,-0.98483 -0.3906,-0.10232 -0.79363,-0.141485 -2.01954,-0.19629 l -0.37802,-0.01686 v 4.697477 l 0.0577,-0.012 c 0.0316,-0.0064 0.24218,-0.01881 0.46775,-0.02707 z m -17.10863,1.374388 c -0.08,-0.009 -0.1513,-0.02256 -0.15852,-0.02972 -0.0225,-0.02256 0.6268,-1.506336 2.32989,-5.323733 l 0.89449,-2.005685 1.76959,1.73e-4 0.70384,1.569522 c 1.08182,2.413027 1.97243,4.416491 2.27228,5.110913 0.20674,0.478952 0.2639,0.634576 0.23864,0.650089 -0.0609,0.03777 -0.4396,0.053 -1.11063,0.04501 l -0.66451,-0.0081 -0.64843,-1.614408 h -0.12644 c -0.66339,0 -3.21498,0.04853 -3.23602,0.06146 -0.0146,0.0094 -0.17122,0.350447 -0.34712,0.758161 -0.21565,0.499731 -0.33507,0.747071 -0.36648,0.758158 -0.0666,0.02407 -1.37612,0.04748 -1.55013,0.02747 z m 4.65369,-2.925673 c 0.1705,-2.02e-4 0.32655,-0.0108 0.34683,-0.02371 0.0432,-0.02707 0.0447,-0.02296 -0.40939,-1.129472 -0.46582,-1.135024 -0.6174,-1.486392 -0.63956,-1.486392 -0.0486,0 -1.07681,2.459583 -1.07681,2.575964 0,0.02106 0.0199,0.03976 0.0449,0.04175 0.2648,0.0207 0.94659,0.03979 1.15719,0.0316 0.14673,-0.0057 0.40618,-0.01009 0.57637,-0.01009 z m -8.77314,-5.04441 c -0.0623,-0.009 -0.11708,-0.02821 -0.12175,-0.04251 -0.0119,-0.03423 0.24628,-0.320165 0.89781,-0.996471 l 0.54003,-0.560306 0.7443,0.01346 c 0.71826,0.01273 0.87732,0.02783 0.89006,0.08246 0.0174,0.07377 -1.46755,1.250297 -1.77013,1.402701 l -0.2148,0.108233 -0.42592,0.0044 c -0.23427,0.0024 -0.4769,-0.0027 -0.53925,-0.012 z m -0.0533,4.27628 v -3.715978 h 1.71695 v 7.431956 h -1.71695 z m -68.00149,3.777491 c -0.74874,-0.08983 -1.36724,-0.256363 -1.84663,-0.496906 -0.24614,-0.123573 -0.51143,-0.284539 -0.51143,-0.310307 0,-0.03499 0.34913,-0.808038 0.45596,-1.009217 0.094,-0.177324 0.0962,-0.1794 0.19756,-0.177442 0.0705,0.0011 0.20257,0.05061 0.42287,0.157948 0.53238,0.259261 1.12171,0.41433 1.77514,0.466814 0.69386,0.05579 1.14665,-0.05414 1.38884,-0.337507 0.2833,-0.330997 0.17026,-0.763145 -0.25523,-0.975958 -0.16177,-0.08074 -0.76038,-0.269755 -1.60167,-0.505439 -1.01808,-0.285404 -1.32622,-0.424304 -1.63936,-0.73876 -0.29272,-0.294172 -0.45993,-0.550276 -0.52981,-0.811364 -0.0461,-0.172517 -0.0442,-0.696085 0.003,-0.969867 0.1196,-0.68611 0.52872,-1.184348 1.28133,-1.560657 0.46876,-0.234433 0.71936,-0.275549 1.67759,-0.275549 0.67448,0 1.17659,0.03234 1.44926,0.09412 0.36666,0.08272 1.05355,0.377635 1.14223,0.490419 0.0714,0.0908 0.0561,0.181469 -0.0953,0.5653 -0.16796,0.425572 -0.28217,0.644545 -0.33597,0.643987 -0.0747,-0.0011 -0.34961,-0.07106 -0.7055,-0.180751 -0.62349,-0.192227 -1.16163,-0.272991 -1.63271,-0.245194 -0.44075,0.02596 -0.61627,0.09091 -0.83242,0.307751 -0.1829,0.18346 -0.25272,0.336829 -0.2391,0.525334 0.0135,0.185454 0.0803,0.284125 0.28056,0.413496 0.22017,0.142304 0.39365,0.204151 1.3639,0.486044 1.05023,0.305229 1.26693,0.379019 1.55678,0.530934 0.58026,0.303912 0.90614,0.68112 0.97651,1.12892 0.0379,0.242445 0.0118,1.027505 -0.0412,1.22425 -0.0679,0.253394 -0.21051,0.514528 -0.37002,0.677799 -0.23341,0.238496 -0.65729,0.495188 -1.16106,0.703293 -0.37241,0.153815 -0.51303,0.172925 -1.34119,0.182032 -0.40879,0.0044 -0.78365,0.0033 -0.83297,-0.0027 z m 6.50641,-3.762528 v -3.730941 h 5.61415 v 1.409355 h -3.89665 l 0.007,0.775343 0.007,0.775336 1.70419,0.02934 c 0.93717,0.01614 1.70697,0.03047 1.71085,0.03198 0.003,0.0017 0.006,0.295148 0.006,0.652857 v 0.65009 l -1.23645,0.01649 c -0.68001,0.009 -1.45258,0.02371 -1.71693,0.03234 l -0.48056,0.01614 v 1.626601 l 0.40369,0.01579 c 0.22202,0.0087 1.13336,0.02333 2.02452,0.03234 l 1.62107,0.01651 v 1.294083 l -0.23711,0.01544 c -0.13041,0.0083 -1.4077,0.02221 -2.83866,0.03047 -1.43097,0.0083 -2.62141,0.0207 -2.64635,0.02783 -0.0426,0.012 -0.0448,-0.177288 -0.0448,-3.718199 z m 52.28368,-0.02793 v -3.72983 l 0.58303,0.01435 c 0.32065,0.0081 1.2708,0.02558 2.1121,0.03946 l 1.52906,0.0252 0.14487,0.06407 c 0.31484,0.139232 0.83022,0.407897 0.9987,0.520957 0.32449,0.217166 0.6174,0.546453 0.78974,0.88784 0.31807,0.630693 0.32355,1.600002 0.0132,2.272815 -0.19087,0.413218 -0.40736,0.674473 -0.80638,0.974303 -0.26523,0.199185 -0.35259,0.301392 -0.33065,0.386835 0.007,0.03084 0.17543,0.293004 0.37218,0.581922 0.19675,0.288979 0.52801,0.775895 0.736,1.082371 0.20814,0.306286 0.36943,0.565846 0.35842,0.576379 -0.0249,0.02445 -1.69478,0.01273 -1.78842,-0.01273 -0.0537,-0.01472 -0.20901,-0.219804 -0.71272,-0.941606 -0.35426,-0.50743 -0.66561,-0.94105 -0.69222,-0.963771 -0.0395,-0.03385 -0.1513,-0.04406 -0.64564,-0.0583 -0.32872,-0.0094 -0.6756,-0.02407 -0.77091,-0.03235 l -0.17306,-0.01543 v 2.057139 h -1.71694 z m 3.37014,0.231987 c 0.50135,-0.07711 0.82245,-0.229955 1.01312,-0.481829 0.28847,-0.381679 0.28329,-1.095116 -0.0107,-1.524076 -0.25989,-0.378913 -0.55586,-0.447023 -2.31548,-0.532984 l -0.33956,-0.01651 v 2.626955 l 0.69828,-0.01613 c 0.41666,-0.0094 0.80196,-0.0316 0.95491,-0.05548 z m -13.74993,3.475418 c -0.12997,-0.02747 -0.15757,-0.05037 -0.1383,-0.114513 0.056,-0.185981 0.85958,-2.024525 1.84938,-4.23305 0.30972,-0.690546 0.73988,-1.650993 0.95657,-2.133708 l 0.3935,-0.877869 0.89394,0.0068 0.89394,0.0068 0.60131,1.345622 c 1.9004,4.251337 2.65744,5.974375 2.63748,5.991002 -0.0418,0.0418 -1.77734,0.01806 -1.82058,-0.02446 -0.008,-0.009 -0.15901,-0.366694 -0.33279,-0.794182 l -0.31604,-0.777557 h -0.11138 c -0.51059,0 -3.19556,0.04453 -3.22769,0.0536 -0.0259,0.007 -0.15632,0.288414 -0.35493,0.765362 -0.2879,0.691654 -0.31949,0.755387 -0.38187,0.767028 -0.11874,0.02256 -1.44815,0.03905 -1.54235,0.01881 z m 5.04995,-2.926226 c 0,-0.03611 -0.68444,-1.695329 -0.85957,-2.084378 -0.0772,-0.171008 -0.16403,-0.350071 -0.19317,-0.397867 -0.0452,-0.07429 -0.058,-0.08174 -0.0887,-0.05125 -0.0989,0.09886 -1.01143,2.292769 -1.01143,2.431871 0,0.02671 0.0249,0.05602 0.0577,0.06659 0.14843,0.04806 2.09492,0.08058 2.09492,0.03499 z m -10.0201,-0.04725 v -3.027081 h -2.3576 v -1.409362 h 6.53412 v 1.409362 h -2.35817 l -2e-4,0.44209 c -5.6e-4,1.638239 -0.0566,5.51715 -0.08,5.531562 -0.0148,0.009 -0.35153,0.02407 -0.74875,0.03348 -0.39702,0.0094 -0.78254,0.02371 -0.85623,0.03198 l -0.1345,0.0151 z m -9.6377,2.970562 c -0.42015,-0.02183 -0.50339,-0.03782 -0.53892,-0.104077 -0.0286,-0.05372 -0.0345,-4.629861 -0.008,-6.229315 l 0.0169,-1.01531 1.01476,-0.01614 c 0.55808,-0.0087 1.83055,-0.02332 2.82813,-0.03234 l 1.81337,-0.01614 v 1.416559 h -3.89634 l 0.007,0.775342 0.007,0.77534 1.70419,0.02934 c 0.93717,0.01614 1.70697,0.03047 1.71085,0.03198 0.004,0.0017 0.006,0.295112 0.006,0.652863 V 69.3892 l -1.23644,0.01651 c -0.68002,0.009 -1.45258,0.0237 -1.71693,0.03234 l -0.48056,0.01614 v 1.626605 l 0.40368,0.01579 c 0.22203,0.0087 1.13334,0.02332 2.02452,0.03235 l 1.62107,0.0165 v 1.294633 l -0.28831,0.01472 c -0.46536,0.02371 -4.58497,0.03687 -4.99121,0.01613 z m -9.55457,-0.0017 c -0.21876,-0.04321 -0.20231,0.01687 -0.22225,-0.810251 -0.0188,-0.783654 5.5e-4,-5.494434 0.0255,-6.151727 l 0.0147,-0.390886 h 4.26962 l 0.38673,0.178119 c 0.45844,0.211149 0.67558,0.334798 0.94438,0.537865 0.67114,0.506933 1.00145,1.587255 0.77534,2.534395 -0.15035,0.629588 -0.44959,1.089576 -0.93828,1.442611 -0.24135,0.174237 -0.36827,0.308576 -0.36827,0.389775 0,0.03123 0.16082,0.293453 0.35733,0.581918 0.19651,0.288752 0.53303,0.78421 0.74762,1.10177 l 0.39049,0.576378 -0.10069,0.01919 c -0.15356,0.02934 -1.68812,-0.0068 -1.75241,-0.04134 -0.0293,-0.0158 -0.35723,-0.461433 -0.72879,-0.989818 l -0.67502,-0.961 -1.54514,-0.01346 v 2.025632 l -0.7371,-0.0027 c -0.40528,-0.0017 -0.7853,-0.01244 -0.8446,-0.02407 z m 3.22161,-3.469349 c 0.73932,-0.115832 1.09789,-0.386951 1.20708,-0.911672 0.0392,-0.188652 0.0154,-0.616836 -0.0439,-0.79474 -0.10533,-0.315085 -0.3571,-0.574158 -0.63457,-0.652861 -0.28337,-0.0802 -0.79806,-0.131169 -1.82944,-0.181279 l -0.33958,-0.01651 v 2.626953 l 0.69831,-0.01613 c 0.40878,-0.0094 0.79917,-0.0316 0.94159,-0.05421 z m -10.20854,3.407279 c -1.02196,-0.312829 -1.97076,-1.125046 -2.4025,-2.056671 -0.22345,-0.482496 -0.26133,-0.708834 -0.26215,-1.569519 -5.6e-4,-0.858474 0.0361,-1.084589 0.25242,-1.541815 0.38185,-0.806927 0.88284,-1.324007 1.71472,-1.76848 0.74596,-0.398478 0.75261,-0.399919 1.92755,-0.399145 1.08734,0.0011 1.22258,0.02295 1.74297,0.287438 0.31013,0.157701 0.72546,0.419593 0.92277,0.581922 l 0.3588,0.295448 -0.3588,0.373807 c -0.56863,0.592449 -0.63568,0.604639 -1.23977,0.228827 -0.48943,-0.304252 -0.60797,-0.333218 -1.36501,-0.333218 -0.76759,0 -0.86459,0.02445 -1.30627,0.331148 -0.64678,0.449186 -0.95049,1.081817 -0.9466,1.974639 0.002,0.799178 0.2582,1.366132 0.82467,1.833336 0.76258,0.628469 2.03726,0.630136 2.90239,0.0033 0.47534,-0.34435 0.56585,-0.323736 1.12393,0.256439 l 0.35214,0.366096 -0.24518,0.260953 c -0.13484,0.143504 -0.56475,0.420871 -0.95545,0.616279 -0.6756,0.33807 -0.76039,0.354924 -1.74742,0.346495 -0.5703,-0.005 -1.15221,-0.04412 -1.29354,-0.08722 z"
     fill="#bb955b"
     style="stroke:none" />
</svg>
