<?xml version="1.0" encoding="UTF-8" standalone="no"?>
<svg
   version="1.1"
   width="155"
   height="36.6"
   xmlns:xlink="http://www.w3.org/1999/xlink"
   xmlns="http://www.w3.org/2000/svg">
  <title>Logotipo SIITEC</title>
  <use
     width="38.805222"
     height="36.556889"
     xlink:href="#logo-itcolima"
     x="0"
     y="0" />
  <path
     style="stroke:none"
     fill="var(--text-color, #000)"
     d="m 89.716578,7.5333899 v 4.2431521 h 5.930387 v 17.489371 h 4.710305 V 11.776542 h 5.91333 V 7.5333899 Z m 47.072572,0.027389 c -5.17566,0.065987 -11.32127,2.5402971 -11.5104,10.5729971 -0.26315,11.175931 9.47791,12.68631 16.584,10.53579 -0.30843,-1.25141 -0.9214,-3.519681 -0.9214,-3.519681 0,0 -11.20305,3.274809 -10.98485,-6.590812 0.2182,-9.8656196 9.99648,-7.33949 10.89029,-6.472989 0.77569,-2.3935502 0.5594,-1.755374 1.15755,-3.6855632 -1.31341,-0.5229309 -3.18993,-0.8655629 -5.21519,-0.8397419 z m -73.074085,0.092501 c -4.003878,0.013187 -8.362169,1.3038798 -8.318356,6.1727501 0.06676,7.41924 9.67034,4.981677 9.822139,9.688297 0.103826,3.219059 -6.259599,2.390555 -9.127608,1.030945 -0.462582,1.98126 -0.632965,2.809866 -0.841809,3.879865 4.792829,1.614641 14.798666,2.270958 14.620813,-5.488553 -0.172474,-7.52485 -9.864253,-5.619303 -9.910505,-9.527583 -0.03123,-2.63913 5.447151,-3.053055 7.842932,-1.086755 0.554339,-1.69834 0.690449,-2.14294 1.228865,-3.9687503 C 67.812384,7.9898487 65.812335,7.646372 63.715065,7.6532799 Z m 9.647989,0.013951 V 29.265912 h 4.694287 V 7.667232 Z m 8.820133,0.033073 V 29.298985 h 4.693769 V 7.7003049 Z m 26.643333,0.03359 v 3.8752161 13.831196 3.725353 h 13.43019 v -3.725352 h -8.8868 v -5.31182 h 7.98504 v -3.992521 h -7.98504 V 11.60911 h 8.35246 V 7.7338945 Z"
     id="text-siitec" />
</svg>
