<?xml version="1.0" encoding="UTF-8"?>
<svg width="331.004mm" height="146.135mm" version="1.1" viewBox="0 0 331.004 146.135" xmlns="http://www.w3.org/2000/svg">
 <title>Logotipo del Tecnológico Nacional de México</title>
 <g transform="translate(57.9961 -73.5663)">
  <g transform="matrix(.352778 0 0 -.352778 -62.744 244.083)">
   <path d="m110.369 215.906 4.61-11.11c2.01-3.95 4.28-7.63 6.76-11.04l0.24-0.28 7.85-9.14c5.81-5.74 12.4-10.39 19.56-13.99-1.48-15.08-11.21-24.67-23.8-30.05l-3.61-1.09-9.73-2.94-1.88-0.23zm286.35 28.92-0.06-0.19-5.2-15.08h10.39zm261.21 7.59v-27.87h2.07c2.06 0 3.89 0.31 5.51 0.92l0.04 0.03 4.12 2.74c2.33 2.46 3.5 5.86 3.5 10.2 0 4.37-1.17 7.77-3.5 10.26l-4.12 2.77-0.04 0.03c-1.62 0.61-3.45 0.92-5.51 0.92zm-167.45 1.05-4.42-1.28c-3.87-2.45-6.01-8.06-6.01-13.75 0-5.64 2.17-11.22 6.03-13.66l4.4-1.27c6.65 0 10.44 7.36 10.44 14.93 0 7.59-3.78 15.03-10.44 15.03zm370.87 8.7h9.47v-49.01h-9.48v44.93zm-43.1 0h9.18l8.2-13.99 7.7 13.99h10.31l-12.79-22.64 15.66-26.37h-11.67l-9.66 16.63-9.14-16.63h-10.38l14.27 25.35zm-30.68 0h24.46v-10.11h-15.26v-8.86h9.33v-10.04h-9.33v-9.69h15.49v-10.31h-24.69v44.93zm-43.07 0h1.54l14.25-30.32 13.43 30.32h1.68l8.04-49.01h-9.01l-3.37 22.38-9.83-22.38h-2.42l-10.49 22.71-3.49-22.71h-8.46zm-32.16 0.65v-10.04h-15.19v-8.82h10.01v-9.99h-10.01v-9.63h15.4v-10.26h-24.55v48.7c9.13 0 15.2 0.04 24.34 0.04zm-63.73 0h10.5l6.44-1.06 3.42-0.57c2.89-1.09 5.39-2.71 7.48-4.89 4.16-4.34 6.26-10.3 6.26-17.86 0-9.1-3.38-16.17-9.76-20.7-2.18-1.55-4.41-2.46-6.71-2.99l-0.69-0.07-6.44-0.6h-10.51v44.7zm-53.51 0h9.43v-38.27h15.4v-10.47h-24.84zm-23.45 0h1.37l19.12-48.74h-9.87l-2.52 7.09h-8.1v8.39h5.19l-5.13 15.27-0.06-0.2zm-0.43 0h0.43v-18.19l-5.2-15.07h5.2v-8.39h-7.93l-2.55-7.09h-9.5zm-56.6 0h2.26l23.24-26.87v26.87h8.7v-48.58h-2.57l-22.94 26.43v-26.59h-8.69v44.7zm-59.16 0h9.43v-48.74h-9.44v44.7zm-59.25 0h1.8l19.13-48.74h-9.88l-2.5 7.09h-16.03l-2.56-7.09h-9.5zm-56.56 0h2.23l23.24-26.87v26.87h8.71v-48.74h-2.57l-22.94 26.59v-26.59h-8.7zm-229.28 0.46 3.26-8.77c1.44-2.95 3.16-5.87 5.11-8.68l3.24-4 3.29-4.08c14.29-15.29 35.62-24.69 55.27-14.8 6.78-11.47-3.46-42.15-17.55-44.73-11.52 2.47-21.62 9.03-29.97 17.94l-11.04 14.75-0.12 0.15c-3.25 5.41-6.02 11.19-8.26 17.12l-3.23 10.7zm783.69 0.48c4.8 0.48 9.75-1.03 13.94-4.57v-13.68l-3.06 3.45c-5.1 4.95-12.24 6.2-16.97-0.15-4.27-5.71-4.36-16.24-0.03-21.92 5.66-7.44 14.57-3.9 20.06 1.82v-12.43c-7.62-6.34-17.58-6.48-24.91 0.62-9.75 9.44-10.62 28.48-2.03 39.4 3.56 4.47 8.2 6.97 13 7.46zm37.42 0c11.92 0 20.26-11.97 20.26-26.09 0-14.32-8.56-26.1-20.26-26.1v11.07c6.68 0 10.49 7.39 10.49 15.03 0 7.62-3.8 15.08-10.49 15.08zm0 0v-11.01c-6.66 0-10.49-7.49-10.49-15.08 0-7.58 3.87-15.03 10.49-15.03v-11.07c-11.75 0-20.25 12.09-20.25 26.1 0 14.05 8.43 26.09 20.25 26.09zm-497.69 0.65c4.77 0.47 9.69-1.04 13.83-4.55v-13.61l-3.04 3.43c-5.07 4.93-12.16 6.17-16.88-0.15-2.12-2.84-3.19-6.5-3.19-10.96s1.05-8.07 3.16-10.85c5.65-7.42 14.51-3.86 19.95 1.83v-12.37c-7.61-6.34-17.52-6.42-24.78 0.62-5.24 5.09-7.87 12.49-7.87 20.64 0 6.97 1.9 13.52 5.85 18.53 3.56 4.49 8.19 6.96 12.97 7.44zm56.69 0.01c11.87 0 20.15-11.9 20.15-25.98 0-14.09-8.39-25.95-20.15-25.95l-4.17 0.53c-9.36 2.47-15.97 13.09-15.97 25.42 0 12.43 6.55 23 15.95 25.45zm-379.4 5.68c1.04-0.05 2.07-0.06 3.09-0.01 2.41-5.26 3.99-8.94 6.24-12.25l1.57-1.88 2.47-2.97c1.64-1.63 3.63-3.32 6.16-5.23 5.61-4.21 10.82-6.15 18.28-6.81 6.23-0.55 5.33 1.6 10.33-2.68 8.69-7.43 21.84-1.98 14.67-7.42-14.71-11.15-33.75-3.2-47.1 10.68l-4.81 5.94-2.44 3c-4.26 6.3-7.3 13.12-8.46 19.63zm-3.94 0.36c0.53-0.07 1.05-0.13 1.56-0.18 0.12-1.48 0.76-4.11 1.13-5.57l0.54-1.43v-24.4l-1.12 3.71c-2.2 9.65-2.96 19.24-2.11 27.87zm693.94 0.19 2.33-2.88-1.91-2.36h-4.67zm-706.905 2.61c3.552-0.71 6.985-1.79 10.645-2.43-0.04-0.58-0.34-4.88-0.36-5.26-1.2-18.55 0.79-34.56 5.25-48.08l0.66-1.58v-79.87l-9.37-1.16c-7.517-0.43-14.929 0.13-21.422 1.46-3.372 36.64-1.293 103.43 14.597 136.92zm-11.372 2.04c2.179-0.34 4.36-0.71 6.532-1.11-18.432-43.51-23.676-86.56-24.43-133.57-16.479-1.06-45.235 0.74-51.445 19.53 18.282 41.07 40.895 80.25 69.343 115.15zm-11.964 1.62c2.027-0.23 4.049-0.48 6.074-0.76-1.724-1.92-5.235-5.88-5.86-6.57-17.423-19.18-37.55-53.3-49.91-73.37-5.454-3.52-12.0529 39.66 0 48.67 13.291 9.22 25.952 17.18 40.353 26.22zm-27.608 2.03c7.989-0.22 16.014-0.85 23.341-1.58l1.072-0.1c-14.809-6.07-36.737-19.07-45.996-25-1.205-0.6-2.284-0.5-3.106 0.09-0.779 0.57-0.49 1.65-0.49 2.63l-0.052 20.19c-8e-3 1.71 1.069 2.77 2.106 2.9 7.183 0.91 15.136 1.09 23.125 0.87zm80.859 1.2c-0.86-8.18 1.18-16.88 5.9-24.05 0.52-0.79 1.03-1.59 1.65-2.3 1.78-2.07 0.51-3.11-1.69-1.44-1.55 1.17-3.07 2.58-4.53 4.16l-3.44 4.29-0.65 0.8c-2.53 3.6-4.6 7.45-5.84 10.86 1.88 0.66 3.59 1.7 5.05 3.01l1.44 1.88zm-16 8.46h4.56c0.47 0 0.86-0.38 0.86-0.86v-1.75c0-0.48-0.39-0.87-0.86-0.87h-4.56c-0.47 0-0.86 0.39-0.86 0.87v1.75c0 0.48 0.39 0.86 0.86 0.86zm2.28 3.52-3.72-1.54c-0.95-0.95-1.54-2.27-1.54-3.72 0-1.44 0.59-2.76 1.54-3.71l3.72-1.54c2.9 0 5.25 2.36 5.25 5.25 0 2.9-2.35 5.26-5.25 5.26zm0 5.1c5.72 0 10.35-4.63 10.35-10.36 0-5.71-4.63-10.34-10.35-10.34l-4.03 0.81c-3.71 1.57-6.319 5.25-6.319 9.53 0 4.29 2.609 7.98 6.319 9.55zm-48.894 3.69c13.471 0.29 26.86-0.1 40.844-1.05-8.216-5.11-9.665-16.49-3.048-23.49-25.46 5.74-52.906 7.69-79.016 6.98-3.924-0.1-3.781 14.2-0.113 14.64 14.31 1.7 27.862 2.64 41.333 2.92zm70.954 17.21c10.97-0.35 21.4-2.27 29.3-5.44-15.82-0.22-30.93-10.24-36.09-25.41-0.06 3.55-1.12 6.53-2.88 8.96l-0.78 0.81-2.35 2.42c-1.2 0.94-2.54 1.74-3.98 2.41l-5.28 1.65-0.98 0.3c-9.283 1.74-20.055 2.02-26.854 1.38 5.945 4.85 13.852 8.23 22.554 10.31l5.28 0.86 8.23 1.34 3.38 0.1zm37.75 2.15 11.25-3.91c4.14-1.44-0.81-15.14-3.83-14.34-3.24 0.43-6.25 0.14-8.68-1.95 2.12-4.49 7.21-15.43 8.86-22.73 0.61-2.71 1.38-9.2-1.68-11.01-2.11-1.25-5.74-0.91-10.66-1.49l-0.71-5.11c0.35-0.71 1.27-1 1.22-1.5-0.06-0.72-1.69-3.61-4.98-3.46 0.44-1.71 1.66-2.45 1.21-5.09-0.28-1.62-3.32-1.87-5.35-2.95-2.01-1.07-1.07-1.71-2.28-1.82-0.24 0.04-0.51 0.08-0.81 0.14-28.6 5.01-29.6 41.15-8.16 54.98l6.56-2.15c1.84-0.6 1.65-0.72-0.38-1.39-0.82-0.28-1.71-0.44-2.59-0.61-2.29-0.45-2.5-0.41-0.16-1.23 2.73-0.95 5.97-1.58 7.95-2.29 1.03-0.37 0.98-0.71 1.76 0.36 0.83 1.12 0.84 2.49 0.23 4.04 1.43-0.04 2.71 0.13 3.68 0.71 2.07 1.22 1.38 1.98-0.76 1.86-1.4-0.08-2.85-0.53-4.18-0.16l-9.11 2.58c3.48 3.08 10.5 6.35 18.21 5.85zm-150.22 7.9c0.353 0.09 0.744 0.09 1.178-0.03 21.753-6.08 44.395-12.85 66.244-15.27-4.072-2.26-7.705-4.84-10.807-7.67-7.574 0.08-15.079-0.03-22.496-0.32-11.405-0.45-22.817-1.44-34.21-2.29-1.725-0.13-5.199 24.14 0.091 25.58zm796.39 1.31c-6.35 0-10-7.54-10-15.19 0-7.62 3.69-15.11 10-15.11l4.25 1.28c3.7 2.45 5.75 8.07 5.75 13.83s-2.04 11.43-5.75 13.9zm-199.73 0h-0.01l-4.23-1.3c-3.71-2.48-5.77-8.15-5.77-13.89 0-5.71 2.08-11.35 5.78-13.82l4.22-1.29h0.01c6.35 0 9.99 7.44 9.99 15.11 0 7.68-3.62 15.19-9.99 15.19zm141 9.49v-49.34h-9.04v49.33zm-117.02 0h9.06v-38.76h14.75v-10.58h-23.79v45.22zm-146.21 0h23.34v-10.18h-14.55v-8.92h8.5v-10.11h-8.5v-9.75h14.76v-10.38h-23.53v45.22zm-38.68 0h33.04v-10.33h-11.97v-39.01h-9.04v39.01l-12.03-0.02zm104.12 0.02 2.19-0.02 22.26-27.2v27.2h8.33v-49.34h-2.33l-22.09 26.91v-26.91h-8.34v45.22zm221.19 1.56c4.57 0.5 9.29-1.03 13.28-4.6v-13.77l-2.91 3.47c-4.87 4.99-11.67 6.24-16.18-0.15-2.03-2.88-3.05-6.58-3.05-11.08 0-4.51 1-8.17 3.03-10.96 5.41-7.53 13.89-3.93 19.11 1.82v-12.51c-7.26-6.4-16.76-6.54-23.73 0.63-5.03 5.13-7.55 12.64-7.55 20.89 0 7.04 1.82 13.67 5.61 18.75 3.4 4.51 7.82 7.02 12.39 7.51zm-240.54 0.01c4.57 0.49 9.29-1.04 13.28-4.61v-13.77l-2.92 3.47c-4.85 4.98-11.66 6.24-16.16-0.15-2.04-2.88-3.06-6.58-3.06-11.08 0-4.51 1.01-8.17 3.03-10.96 5.41-7.53 13.9-3.93 19.11 1.82v-12.51c-7.29-6.42-16.78-6.5-23.74 0.63-5.01 5.13-7.55 12.64-7.55 20.89 0 7.04 1.83 13.67 5.63 18.75 3.39 4.52 7.81 7.03 12.38 7.52zm142.77 0v-11.08l-4.24-1.3c-3.71-2.48-5.76-8.15-5.76-13.89 0-5.71 2.07-11.35 5.77-13.82l4.23-1.29v-11.17l-4.04 0.55c-9.06 2.53-15.26 13.41-15.26 25.73 0 3.66 0.48 7.07 1.45 10.26 2.17 7.21 6.65 12.61 12.11 14.86zm133.1 0.01 5.72-1.15c5.47-2.24 10.02-7.63 12.15-14.81 0.96-3.18 1.43-6.63 1.43-10.32 0-12.47-6.16-23.24-15.24-25.73l-4.06-0.55c-11.15 0-19.27 12.14-19.3 26.2-0.02 14.2 8.03 26.36 19.3 26.36zm-133.1 0c11.35 0 19.3-12.05 19.3-26.28 0-14.38-8.16-26.28-19.3-26.28v11.17c6.35 0 10 7.44 10 15.11 0 7.68-3.63 15.19-10 15.19v11.08zm-66.63 0c11.25 0 19.29-11.91 19.29-26.28 0-14.26-8.04-26.28-19.29-26.28h-0.01l-4.01 0.55c-9.01 2.51-15.29 13.32-15.29 25.73 0 12.57 6.28 23.26 15.29 25.74l4.01 0.54zm111.09 0.09c1.88-0.1 3.76-0.5 5.57-1.22 2.03-0.81 3.96-2 5.83-3.6l-0.97-12.34c-1.76 2.29-3.5 3.99-5.25 5.06-4.59 2.84-10.28 2-13.9-2.82-2.24-2.95-3.35-6.66-3.35-11.08 0-9.01 4.42-15.9 11.53-15.9 1.66 0 3.3 0.42 4.89 1.05v7.17h-7.17v10.03h16.09v-23.99c-4.44-2.91-9.42-5.01-14.44-5.01-11.63 0-20.05 11.07-20.05 26.22 0 7.62 1.93 13.92 5.79 18.91 4.08 5.28 9.77 7.8 15.43 7.52zm-707.865 8.13c22.856-4.07 45.101-7.56 67.532-13.93 2.855-7.91 6.796-12.16 11.04-17.01-13.001-4.66-59.753 11.61-79.028 17.34-1.855 0.56-3.03 14.21 0.456 13.6zm664.965 2.54 2.21-2.91-3.16-4.13-0.61 0.01-3.78 0.06 3.78 4.93zm-547.2 3.56c10.35-4.39 21.05-9.09 30.91-14.39-0.04-2.23-0.34-4.58-0.51-6.83-0.75-5.46-2.48-10.98-3.92-16.31-8.58 3.73-20.6 5.68-32.38 5.85l-9.73-0.34-1.85-0.07-9.76-1.67-4.01-0.69c-11.347 6.01-17.747 18.87-15.284 31.82 0.286-0.09 2.548-0.75 3.787-1.12 0.316-8.49 5.717-15.71 13.287-18.79l2.22-0.43 5.96-1.16 5.65 1.12 2.72 0.55c7.71 3.21 13.12 10.73 13.12 19.51 0 1-0.07 1.98-0.21 2.95zm-14.53 4.02-1.1-0.15-2.15-0.28c-0.95-0.55-1.69-1.46-2-2.61-0.61-2.28 0.74-4.64 3.04-5.25l1.11 0.15 2.14 0.28c0.95 0.55 1.69 1.47 2 2.61 0.61 2.29-0.75 4.64-3.04 5.25zm-12.71 5.18v-25.7l-2.83 1.4c-4.39 3.43-6.56 9.27-5.04 14.98 0.77 2.87 2.35 5.29 4.43 7.1zm6.78 1.28c0.94-0.05 1.9-0.21 2.85-0.46l1.98-0.98 3.11-1.54c4.4-3.43 6.57-9.27 5.04-14.99-1.02-3.82-3.49-6.86-6.65-8.69l-1.5-0.52-3.69-1.27c-1.84-0.26-3.76-0.16-5.66 0.35l-2.26 1.12v25.7l0.01 0.01c1.25 0.57 2.58 0.96 3.96 1.16 0.92 0.13 1.86 0.17 2.81 0.11zm-97.926 0.54c22.879-2.99 44.483-5.36 66.835-11.94-0.975-4.62-0.993-9.24-0.175-13.64-22.046 6.5-43.89 10.97-66.495 14.57-2.217 0.35-2.224 11.28-0.165 11.01zm148.096 4.47c21.42-6.16 41.83-18.72 50.3-40.38 5.77-14.73 5.14-34.78-7.92-42.86-4.53-2.79-6.32 0.3-3.02 3.73 2.55 2.65 2.44 8.24 1.62 11.15-3.42 12.12-25.96 19.99-36.66 23.28 4.13 15.3 1.97 30.71-4.32 45.08zm-147.892 9.08c29.325-0.72 54.196-2.53 82.822-11.52-3.454-2.96-5.939-6.99-6.929-11.57-25.231 8.62-49.933 11.86-76.198 14.12-1.838 0.16-2.214 9.03 0.305 8.97zm90.942 103.89h6.45l5.16-0.89 1.4-0.25c1.64-0.92 2.76-2.41 3.4-4.49l7.99-35.76c7.06-1.74 13.95-3.92 20.73-6.55l26.99 24.61c3.49 2.47 7.26 1.66 11.18-1.05l40.69-29.02c4.68-2.74 5.63-6.12 4.56-10.17l-14.51-33.53c4.69-5.55 8.99-11.38 12.92-17.49l36.52 4.12c4.34-0.26 7.14-2.52 8.11-7.13l15.81-47.41c1.9-5.44 1.43-9.37-2.02-11.21l-31.57-18.69c0.52-7.21 0.58-14.49 0.18-21.73l31.82-18.08c3.27-2.69 3.79-6.38 2.48-10.72l-15.08-47.81c-1.7-5.07-4.35-7.52-8.18-7.57l-36.54 3.45c-3.83-6.14-8.04-12.05-12.6-17.67l15.02-33.12c0.5-4.32-1.04-7.73-4.24-10.35l-40.26-29.8c-3.98-3.027-7.64-2.869-11.16-1.246l-27.4 24.176c-6.7-2.77-13.64-5.06-20.64-6.92l-7.58-36.116c-1.04-1.824-2.33-3.273-3.93-4.269l-4.09-1.109-1.65-0.446h-53.002c-5.034 0.025-8.372 2.052-10.239 5.824l-7.836 35.106c-11.043 2.61-21.787 5.96-31.073 12.07v18.19c17.215-8.45 31.719-14.32 51.587-11.1 7.996-4.79 20.041-6.1 32.683-4.63l7.92 1.34 1.63 0.28 9.98 3.02 4.04 1.23c4.52 1.76 8.82 3.85 12.72 6.24 14.91 11.05 20.4 24.82 19.35 34.99 29.51-2.01 35.85 32.47 27.92 54.52 16.32 13.79 34.04 6.87 42.7 4.57 27.26 81.06-22.18 160.13-94.75 181.87l-11.98 2.89-2.83 0.68-8.78 1-10.149 1.15c-12.843 0.57-26.095-0.63-39.519-3.84 14.208-0.97 27.158-3.13 39.417-6.63l10.251-3.37 1.8-0.59 9.81-4.1 1.9-0.79c11.59-5.37 22.87-12.19 34.4-20.61 5.46-9.91 9.13-20.96 10.05-32.31-12.92 7.99-24.8 14.39-36.57 19.5l-9.78 3.9-1.98 0.79-9.63 3.05-6.29 2c-21.591 5.86-45.099 8.42-75.727 9.43-11.361 0.37-10.301-2.09-10.301 8.74v37.83c6.365 3.06 24.223 8.99 31.201 10.67l7.949 35.61c1.202 3.16 3.85 5.53 9.725 5.72z" fill="var(--tecnm-logo-color, #012d6c)" fill-rule="evenodd"/>
  </g>
 </g>
</svg>
